<svg width="526" height="563" viewBox="0 0 526 563" fill="none" xmlns="http://www.w3.org/2000/svg">
<path d="M515.117 562.351C351.59 561.493 168.155 561.479 4.62756 562.351C168.092 563.224 351.59 563.209 515.117 562.351Z" fill="#03326C"/>
<path d="M401.264 107.36C392.9 142.37 378.746 176.283 368.659 178.956C356.444 182.177 351.413 145.198 353.111 144.199C354.378 143.481 373.209 120.188 390.607 100.088C406.674 81.5349 403.342 98.6954 401.264 107.36Z" fill="#D3766A"/>
<path d="M372.422 176.085C368.849 181.599 359.497 183.048 323.801 182.415C318.859 182.331 312.587 142.257 317.871 142.06C324.523 141.793 351.248 143.776 353.111 144.198C367.024 147.306 375.983 170.586 372.422 176.085Z" fill="#D3766A"/>
<path d="M331.062 182.275C326.087 184.036 321.005 185.404 315.856 186.368C311.788 186.902 300.042 188.098 299.066 183.189C298.394 179.827 305.224 178.224 310.04 176.972C312.574 176.311 315.907 174.159 315.463 172.274C314.678 169.095 308.139 170.952 303.742 172.794C295.227 176.381 283.556 183.484 279.463 178.238C277.917 176.269 280.451 173.638 283.936 171.205C278.487 173.737 272.798 175.593 270.998 173.455C270.538 172.91 270.281 172.191 270.281 171.444C270.281 170.697 270.538 169.978 270.998 169.433C270.324 169.633 269.61 169.607 268.949 169.356C268.288 169.106 267.709 168.643 267.286 168.026C265.955 165.86 267.146 163.258 269.326 160.754C269.034 160.66 268.766 160.49 268.546 160.257C268.325 160.024 268.158 159.737 268.059 159.418C265.524 153.046 284.988 139.655 291.096 139.191C303.188 138.515 315.309 139.459 327.197 142.004C333.089 149.374 331.075 182.261 331.062 182.275Z" fill="#D3766A"/>
<path d="M308.254 159.909C304.023 159.868 299.833 160.827 295.962 162.723C291.097 165.128 287.624 168.349 283.379 171.472C283.356 171.488 283.339 171.515 283.333 171.545C283.328 171.576 283.333 171.607 283.348 171.633C283.363 171.66 283.387 171.678 283.414 171.685C283.441 171.691 283.47 171.685 283.494 171.669C285.521 170.192 293.796 164.748 295.899 163.553C299.721 161.341 303.946 160.125 308.254 159.994V159.909Z" fill="#03326C"/>
<path d="M306.237 151.162C301.432 151.524 296.672 152.429 292.032 153.862C287.027 155.621 282.769 159.221 278.6 162.668C276.066 164.735 273.633 166.887 271.226 169.068C271.124 169.152 271.226 169.349 271.34 169.265C275.572 165.692 279.906 162.232 284.341 158.968C288.437 155.892 293.04 153.746 297.887 152.653C300.662 152.02 303.462 151.64 306.263 151.246C306.288 151.246 306.288 151.162 306.237 151.162Z" fill="#03326C"/>
<path d="M302.436 143.144C297.874 143.34 293.883 143.495 289.574 145.394C284.699 147.846 280.119 150.965 275.94 154.678C273.659 156.619 271.441 158.63 269.249 160.698C269.148 160.782 269.249 160.951 269.376 160.867C274.36 156.383 279.6 152.263 285.063 148.531C287.642 146.708 290.459 145.337 293.414 144.466C296.384 143.768 299.402 143.349 302.436 143.214C302.436 143.214 302.461 143.144 302.436 143.144Z" fill="#03326C"/>
<path d="M353.11 144.198C358.939 146.294 363.083 150.88 367.277 155.69C364.616 149.754 359.396 144.311 353.11 144.198Z" fill="#03326C"/>
<path d="M393.647 137.01L361.892 128.134C361.892 128.134 385.892 98.3284 395.18 91.7736C405.622 84.389 406.737 91.9424 404.279 104.714C401.82 117.486 393.647 137.01 393.647 137.01Z" fill="#FF781C"/>
<path d="M394.191 130.765C393.127 130.287 383.255 127.417 381.101 126.855C378.947 126.292 370.128 123.859 367.859 123.479C367.843 123.486 367.829 123.499 367.819 123.515C367.809 123.532 367.804 123.551 367.804 123.57C367.804 123.59 367.809 123.609 367.819 123.626C367.829 123.642 367.843 123.655 367.859 123.662C370.026 124.506 378.896 126.967 381.089 127.6C383.281 128.233 393.101 130.821 394.216 130.934C394.28 130.99 394.292 130.85 394.191 130.765Z" fill="#03326C"/>
<path opacity="0.1" d="M367.86 129.794L393.659 137.01C393.659 137.01 401.82 117.487 404.291 104.658C405.887 96.3314 405.963 90.2127 402.935 89.0171L367.86 129.794Z" fill="#251212"/>
<path d="M452.735 546.907C455.764 545.683 524.039 485.382 525.318 481.247C525.838 479.685 473.238 405.656 473.238 405.656L431.32 443.634L465.154 493.203C465.154 493.203 448.326 529.268 447.337 533.994C446.349 538.72 449.719 548.13 452.735 546.907Z" fill="#D3766A"/>
<path d="M458.362 507.424C458.489 507.213 458.553 507.072 458.514 507.016C458.476 506.96 458.451 507.157 458.362 507.424Z" fill="#FF781C"/>
<path d="M452.596 548.384C455.662 547.118 524.71 485.523 525.977 481.331C526.471 479.742 518.957 466.998 508.553 454.775L464.063 494.539C464.063 494.539 447.983 530.492 447.007 535.26C446.032 540.029 449.542 549.636 452.596 548.384Z" fill="#FF781C"/>
<path d="M451.367 544.431C462.772 533.783 509.404 492.063 521.353 482.541C521.442 482.456 521.492 482.541 521.353 482.625C510.316 493.442 463.329 534.754 451.469 544.684C451.215 544.853 451.139 544.656 451.367 544.431Z" fill="#03326C"/>
<path d="M449.504 528.551C450.765 527.365 452.233 526.483 453.817 525.96C455.4 525.437 457.064 525.284 458.704 525.512C461.671 525.881 464.395 527.509 466.307 530.056C466.307 530.14 466.243 530.253 466.167 530.182C463.927 528.004 461.111 526.69 458.142 526.436C455.172 526.183 452.208 527.004 449.694 528.776C449.529 528.832 449.415 528.635 449.504 528.551Z" fill="#03326C"/>
<path d="M461.352 499.069C465.939 494.85 472.617 491.882 478.548 493.527C478.776 493.527 478.687 493.949 478.548 493.992C472.789 495.246 467.169 497.184 461.783 499.773C461.742 499.804 461.695 499.826 461.646 499.837C461.596 499.849 461.545 499.849 461.496 499.839C461.447 499.828 461.4 499.807 461.358 499.777C461.315 499.746 461.279 499.706 461.251 499.66C461.223 499.614 461.203 499.562 461.193 499.507C461.182 499.453 461.182 499.396 461.191 499.341C461.201 499.287 461.22 499.234 461.247 499.188C461.275 499.141 461.311 499.101 461.352 499.069Z" fill="#03326C"/>
<path d="M458.956 503.808C463.543 499.588 470.221 496.62 476.151 498.266C476.379 498.266 476.291 498.688 476.151 498.73C470.393 499.987 464.773 501.925 459.387 504.511C459.303 504.575 459.199 504.599 459.1 504.578C459 504.556 458.912 504.492 458.854 504.399C458.797 504.306 458.776 504.191 458.795 504.08C458.814 503.969 458.872 503.872 458.956 503.808Z" fill="#03326C"/>
<path d="M456.499 508.549C461.086 504.329 467.776 501.361 473.694 503.007C473.922 503.007 473.846 503.429 473.694 503.471C467.936 504.727 462.315 506.666 456.929 509.252C456.845 509.316 456.742 509.339 456.642 509.318C456.542 509.297 456.454 509.233 456.397 509.14C456.34 509.046 456.319 508.932 456.338 508.821C456.357 508.71 456.415 508.612 456.499 508.549Z" fill="#03326C"/>
<path d="M454.041 513.275C458.629 509.056 465.319 506.102 471.237 507.748C471.465 507.748 471.389 508.169 471.237 508.212C465.48 509.466 459.86 511.399 454.472 513.979C454.431 514.01 454.384 514.032 454.335 514.043C454.285 514.055 454.235 514.055 454.185 514.045C454.136 514.034 454.089 514.013 454.047 513.983C454.005 513.952 453.968 513.912 453.94 513.866C453.912 513.82 453.892 513.768 453.882 513.713C453.872 513.659 453.871 513.602 453.881 513.548C453.89 513.493 453.909 513.44 453.937 513.394C453.964 513.347 454 513.307 454.041 513.275Z" fill="#03326C"/>
<path d="M509.504 472.92C514.712 468.306 521.187 477.281 515.966 481.908C510.746 486.536 504.347 477.548 509.504 472.92Z" fill="white"/>
<path d="M446.475 489.8C447.261 485.58 451.734 485.032 454.813 485.988C460.053 487.723 464.787 490.965 468.536 495.384C468.555 495.4 468.57 495.42 468.58 495.443C468.59 495.466 468.595 495.492 468.595 495.518C468.595 495.543 468.59 495.569 468.58 495.592C468.57 495.615 468.555 495.636 468.536 495.651C468.587 495.765 468.614 495.891 468.613 496.018C468.613 496.145 468.586 496.27 468.534 496.383C468.482 496.497 468.408 496.595 468.316 496.671C468.223 496.746 468.117 496.797 468.004 496.819C462.935 497.227 457.436 498.366 452.342 497.016C449.326 496.228 445.727 493.823 446.475 489.8ZM460.084 495.665C462.619 495.539 465.153 495.272 467.687 495.243C465.062 493.324 462.351 491.554 459.565 489.941C458.187 489.199 456.764 488.565 455.307 488.042C453.077 487.24 445.41 487.001 448.971 493.007C450.986 496.256 457.056 495.834 460.084 495.665Z" fill="#03326C"/>
<path d="M481.436 487.014C477.9 491.304 472.806 493.738 468.346 496.593C468.243 496.647 468.13 496.674 468.016 496.67C467.902 496.667 467.791 496.634 467.691 496.574C467.591 496.513 467.505 496.427 467.44 496.323C467.376 496.219 467.334 496.099 467.319 495.974C467.295 495.974 467.272 495.969 467.25 495.958C467.228 495.947 467.209 495.931 467.193 495.911C467.177 495.891 467.166 495.867 467.159 495.842C467.152 495.816 467.151 495.789 467.155 495.763C468.038 489.769 470.323 484.138 473.782 479.433C475.847 476.746 479.826 474.397 482.652 477.421C485.478 480.445 483.501 484.524 481.436 487.014ZM482.107 481.599C482.107 474.383 475.835 479.348 474.377 481.402C473.45 482.745 472.604 484.155 471.843 485.622C470.259 488.646 469.093 491.881 467.788 495.06C469.904 493.513 472.109 492.176 474.276 490.713C476.886 488.997 482.145 485.565 482.107 481.599Z" fill="#03326C"/>
<path d="M494.945 436.405L451.646 474.875C451.646 474.875 379.988 381.013 377.365 366.919C374.375 350.898 366.075 225.387 366.265 219.128C366.506 211.546 374.033 178.21 374.033 178.21H427.71C427.71 178.21 435.211 342.346 436.77 347.381C438.455 352.895 494.945 436.405 494.945 436.405Z" fill="#FF781C"/>
<path d="M447.413 462.426C454.331 455.013 481.322 431.214 484.68 429.272C484.756 429.272 484.857 429.371 484.807 429.441C482.361 432.648 459.4 453.593 447.59 462.665C447.413 462.721 447.299 462.538 447.413 462.426Z" fill="#03326C"/>
<path d="M371.383 202.881C372.098 202.641 372.826 202.453 373.563 202.319C374.342 202.07 375.1 201.75 375.831 201.362C377.348 200.511 378.741 199.411 379.962 198.099C381.342 196.471 382.423 194.56 383.143 192.472C383.612 191.277 385.804 184.877 385.829 184.835C385.854 184.792 386.045 184.835 386.019 184.933C385.867 185.819 384.372 191.333 383.928 192.712C383.252 195.145 382.121 197.394 380.608 199.309C379.313 200.797 377.75 201.967 376.021 202.741C375.232 203.097 374.407 203.343 373.563 203.472C372.818 203.662 372.039 203.608 371.32 203.317C371.193 203.219 371.269 202.938 371.383 202.881Z" fill="#03326C"/>
<path d="M418.851 181.121L419.979 214.077L421.246 247.034L424.11 312.933C424.642 323.918 425.174 334.89 425.795 345.875C425.795 347.282 425.96 348.689 426.087 350.095C426.092 350.312 426.13 350.526 426.201 350.728C426.268 350.909 426.348 351.083 426.441 351.249L426.936 352.177C427.29 352.768 427.645 353.33 428 353.893C429.432 356.158 430.927 358.352 432.422 360.546C435.426 364.935 438.505 369.239 441.584 373.543C447.768 382.151 453.989 390.713 460.249 399.228L479.193 424.617L460.731 398.763C454.585 390.141 448.427 381.533 442.357 372.854C439.316 368.503 436.3 364.142 433.309 359.773C431.814 357.578 430.344 355.384 428.925 353.147C428.57 352.585 428.228 352.022 427.899 351.46C427.607 350.883 427.189 350.32 427.214 349.842C427.113 348.52 427.012 347.183 426.948 345.791C426.365 334.834 425.884 323.848 425.377 312.862L422.247 246.977L420.612 214.049L418.851 181.121Z" fill="#03326C"/>
<path d="M376.286 358.169C376.679 362.22 377.034 365.202 377.363 366.918C378.833 374.838 402.086 407.907 422.183 435.392L436.008 339.166C433.55 305.014 427.746 178.195 427.746 178.195H400.996L376.286 358.169Z" fill="#03326C"/>
<path d="M300.992 545.036C303.805 546.752 389.693 563.898 393.33 562.238C394.724 561.634 410.107 468.911 410.107 468.911L356.772 459.064L345.52 520.026C345.52 520.026 310.039 529.788 306.175 532.067C302.31 534.346 298.166 543.334 300.992 545.036Z" fill="#D3766A"/>
<path d="M331.403 523.67C331.645 523.67 331.771 523.6 331.797 523.529L331.403 523.67Z" fill="#FF781C"/>
<path d="M299.497 545.346C302.373 547.062 389.656 563.927 393.343 562.225C394.75 561.592 398.412 546.907 399.793 530.154L343.506 519.366C343.506 519.366 308.57 529.732 304.692 532.025C300.815 534.318 296.621 543.615 299.497 545.346Z" fill="#FF781C"/>
<path d="M301.36 541.716C316.047 544.136 375.109 555.473 389.466 559.102C389.58 559.102 389.567 559.229 389.466 559.215C374.856 557.161 315.882 545.289 301.322 541.97C301.005 541.899 301.043 541.66 301.36 541.716Z" fill="#03326C"/>
<path d="M310.864 529.662C312.496 529.927 314.062 530.563 315.462 531.531C316.862 532.499 318.066 533.779 318.999 535.288C320.685 538.007 321.369 541.339 320.913 544.6C320.913 544.699 320.723 544.6 320.735 544.6C320.739 541.29 319.777 538.067 317.993 535.415C316.209 532.763 313.699 530.823 310.839 529.887C310.812 529.883 310.787 529.868 310.771 529.844C310.754 529.82 310.747 529.79 310.75 529.76C310.753 529.731 310.767 529.703 310.789 529.685C310.81 529.667 310.837 529.658 310.864 529.662Z" fill="#03326C"/>
<path d="M338.663 520.111C344.543 521.152 350.968 524.753 353.768 530.773C353.882 531.012 353.578 531.181 353.426 531.04C348.766 527.076 343.741 523.672 338.435 520.884C338.349 520.846 338.279 520.772 338.239 520.678C338.2 520.584 338.194 520.478 338.223 520.379C338.252 520.281 338.314 520.198 338.396 520.149C338.477 520.099 338.573 520.085 338.663 520.111Z" fill="#03326C"/>
<path d="M333.837 521.195C339.717 522.236 346.141 525.837 348.942 531.857C349.056 532.096 348.752 532.265 348.6 532.124C343.94 528.16 338.915 524.756 333.609 521.968C333.523 521.93 333.453 521.856 333.413 521.762C333.374 521.668 333.368 521.562 333.397 521.463C333.426 521.365 333.488 521.282 333.569 521.233C333.651 521.183 333.747 521.169 333.837 521.195Z" fill="#03326C"/>
<path d="M329.009 522.278C334.889 523.319 341.313 526.92 344.114 532.94C344.228 533.179 343.924 533.348 343.772 533.207C339.112 529.243 334.087 525.839 328.781 523.051C328.695 523.013 328.625 522.939 328.585 522.845C328.546 522.751 328.54 522.645 328.569 522.546C328.598 522.448 328.66 522.365 328.741 522.316C328.823 522.266 328.919 522.252 329.009 522.278Z" fill="#03326C"/>
<path d="M324.181 523.36C330.061 524.401 336.485 528.002 339.286 534.022C339.4 534.261 339.095 534.43 338.943 534.29C334.286 530.323 329.261 526.918 323.953 524.134C323.866 524.095 323.796 524.022 323.757 523.928C323.718 523.834 323.712 523.727 323.741 523.629C323.77 523.53 323.832 523.448 323.913 523.398C323.995 523.348 324.091 523.335 324.181 523.36Z" fill="#03326C"/>
<path d="M388.16 542.898C394.724 544.192 392.924 555.558 386.348 554.235C379.771 552.913 381.52 541.674 388.16 542.898Z" fill="white"/>
<path d="M335.054 501.545C338.45 499.393 341.77 502.768 343.151 505.961C345.437 511.479 346.373 517.568 345.862 523.614C345.862 523.755 345.748 523.783 345.66 523.769C345.617 523.887 345.549 523.992 345.463 524.076C345.376 524.159 345.273 524.219 345.161 524.249C345.05 524.279 344.933 524.279 344.822 524.25C344.71 524.22 344.606 524.161 344.519 524.078C340.857 520.07 336.485 516.3 334.027 511.166C332.595 508.156 331.848 503.584 335.054 501.545ZM340.122 516.75C341.884 518.761 343.734 520.674 345.419 522.77C344.982 519.316 344.386 515.889 343.632 512.502C343.25 510.867 342.763 509.264 342.175 507.706C341.25 505.3 336.346 498.76 334.661 505.722C333.672 509.562 337.981 514.345 340.072 516.75H340.122Z" fill="#03326C"/>
<path d="M359.979 528.832C354.746 528.72 349.728 526.089 344.862 524.261C344.757 524.21 344.665 524.133 344.593 524.036C344.52 523.938 344.47 523.823 344.445 523.699C344.42 523.576 344.422 523.448 344.45 523.325C344.479 523.203 344.533 523.089 344.608 522.995C344.608 522.91 344.52 522.784 344.608 522.713C349.242 519.483 354.562 517.668 360.03 517.453C363.21 517.382 367.43 519.155 367.227 523.487C367.113 527.58 363.096 528.902 359.979 528.832ZM364.085 525.808C368.925 520.997 361.462 519.098 359.117 519.253C357.597 519.38 356.085 519.619 354.594 519.971C351.532 520.734 348.508 521.673 345.533 522.784C347.979 523.515 350.349 524.472 352.756 525.316C355.709 526.356 361.487 528.466 364.148 525.808H364.085Z" fill="#03326C"/>
<path d="M384.714 178.21C384.714 178.21 386.121 203.683 392.456 221.814C392.456 221.814 401.593 228.13 402.594 229.129L348.22 501.08L403.975 513.121C403.975 513.121 425.871 381.379 427.709 372.348C430.699 357.846 454.319 234.502 455.422 227.553C457.614 212.897 445.424 178.21 445.424 178.21H384.714Z" fill="#FF781C"/>
<path d="M353.858 487.506C369.191 490.052 398.513 496.959 402.124 498.619C402.2 498.619 402.124 498.83 402.124 498.83C398.209 498.759 362.488 490.896 353.833 487.816C353.814 487.814 353.797 487.808 353.78 487.799C353.764 487.789 353.75 487.776 353.738 487.761C353.726 487.745 353.717 487.727 353.712 487.707C353.706 487.688 353.704 487.667 353.706 487.647C353.708 487.627 353.713 487.607 353.722 487.589C353.73 487.571 353.742 487.555 353.756 487.542C353.77 487.529 353.786 487.519 353.804 487.513C353.821 487.507 353.84 487.505 353.858 487.506Z" fill="#03326C"/>
<path d="M438.542 202.896C437.399 202.715 436.249 202.598 435.095 202.545C433.902 202.387 432.721 202.138 431.56 201.799C429.343 201.183 427.212 200.236 425.224 198.986C423.3 197.635 421.714 195.767 420.611 193.556C419.965 192.389 417 186.13 416.962 186.087C416.924 186.045 416.607 186.087 416.645 186.2C417.428 188.809 418.328 191.372 419.344 193.88C420.349 196.459 421.998 198.665 424.096 200.238C426.258 201.7 428.641 202.715 431.129 203.234C432.406 203.523 433.703 203.688 435.006 203.726C436.217 203.84 437.436 203.711 438.605 203.346C438.833 203.206 438.719 202.938 438.542 202.896Z" fill="#03326C"/>
<path d="M391.125 221.139C396.211 223.134 401.129 225.619 405.824 228.566C405.844 228.575 405.863 228.588 405.878 228.605C405.893 228.622 405.905 228.643 405.913 228.665C405.922 228.687 405.926 228.711 405.926 228.735C405.926 228.759 405.921 228.782 405.913 228.805C405.905 228.827 405.893 228.847 405.877 228.864C405.862 228.881 405.844 228.894 405.824 228.903C405.804 228.913 405.782 228.917 405.761 228.917C405.739 228.917 405.718 228.912 405.698 228.903C400.743 226.596 395.7 224.402 390.872 221.8C390.808 221.752 390.761 221.682 390.74 221.6C390.718 221.519 390.722 221.431 390.752 221.353C390.782 221.275 390.836 221.21 390.904 221.171C390.972 221.132 391.05 221.121 391.125 221.139Z" fill="#03326C"/>
<path d="M389.251 183.597C389.251 183.414 389.567 183.358 389.567 183.597C389.616 189.706 389.942 195.809 390.543 201.883C390.796 204.696 392.963 220.253 397.36 219.071C398.095 218.874 398.463 218.073 398.628 216.835C398.599 215.222 398.386 213.62 397.994 212.066C397.487 208.803 397.069 205.54 396.727 202.22C396.15 196.09 396.15 189.91 396.727 183.78C396.727 183.739 396.741 183.699 396.768 183.67C396.794 183.641 396.829 183.625 396.866 183.625C396.903 183.625 396.939 183.641 396.965 183.67C396.991 183.699 397.006 183.739 397.006 183.78C396.944 192.288 397.46 200.789 398.551 209.211C399.147 213.262 401.086 219.339 397.221 220C393.356 220.661 390.733 210.491 390.239 207.692C388.974 199.741 388.642 191.642 389.251 183.597Z" fill="#03326C"/>
<path d="M397.245 219.465C397.645 220.513 397.983 221.589 398.258 222.686C398.551 223.534 398.698 224.436 398.689 225.344C398.689 225.513 398.474 225.527 398.385 225.344C397.922 224.55 397.572 223.682 397.346 222.77C397.004 221.772 396.636 220.787 396.319 219.788C396.307 219.662 396.334 219.534 396.396 219.428C396.459 219.321 396.553 219.242 396.662 219.204C396.771 219.166 396.889 219.171 396.995 219.218C397.102 219.266 397.19 219.353 397.245 219.465Z" fill="#03326C"/>
<path d="M440.86 178.21C442.381 184.671 443.805 191.155 445.131 197.663C446.398 204.176 447.665 210.716 448.413 217.356L448.616 219.831C448.616 220.661 448.616 221.477 448.616 222.293L447.957 227.202L446.284 237.048L442.685 256.74L427.948 335.158L413.198 413.491L405.874 452.707L398.639 491.951L406.482 452.848L414.161 413.716L429.203 335.369C434.068 309.22 438.985 283.072 443.648 256.881L447.07 237.189L448.666 227.342L449.287 222.335C449.267 220.646 449.157 218.96 448.958 217.285C448.109 210.646 446.765 204.134 445.372 197.593C443.978 191.052 442.482 184.638 440.86 178.21Z" fill="#03326C"/>
<path d="M399.084 38.0136C395.815 35.3551 388.3 15.9441 403.304 6.54801C418.079 -2.69333 436.123 18.5322 425.276 34.2158C417.977 44.7512 406.041 43.654 399.084 38.0136Z" fill="#03326C"/>
<path d="M371.156 184.793L373.551 159.826C373.551 159.826 364.617 144.353 368.888 132.636C371.029 126.715 386.298 97.4715 394.877 89.8337C402.924 82.646 415.963 88.5678 420.106 94.2082C432.03 110.412 438.531 126.068 447.211 180.63L371.156 184.793Z" fill="#FF781C"/>
<path d="M387.857 154.677C391.687 154.889 395.499 155.411 399.261 156.239C401.124 156.689 402.961 157.223 404.799 157.8C405.711 158.095 406.636 158.348 407.561 158.602C408.524 158.894 409.515 159.055 410.514 159.08C410.602 159.08 410.602 159.221 410.514 159.235C409.574 159.328 408.63 159.352 407.688 159.305C406.78 159.225 405.878 159.074 404.989 158.855C403.088 158.433 401.187 157.898 399.312 157.448C395.51 156.548 391.709 155.634 387.793 155.029C387.758 155.013 387.729 154.983 387.711 154.946C387.693 154.909 387.688 154.866 387.695 154.824C387.703 154.783 387.723 154.745 387.752 154.719C387.782 154.692 387.819 154.677 387.857 154.677Z" fill="#03326C"/>
<path d="M378.581 158.897C381.723 158.391 384.887 158.081 388.06 157.969C389.644 157.969 391.215 157.969 392.799 158.067C393.559 158.067 394.319 158.18 395.067 158.25C395.815 158.32 396.727 158.531 397.601 158.602C397.69 158.602 397.69 158.756 397.601 158.742C396.816 158.742 396.03 158.813 395.245 158.827H392.875C391.291 158.827 389.707 158.897 388.123 158.911C384.955 158.911 381.787 158.996 378.645 159.136C378.417 159.221 378.429 158.897 378.581 158.897Z" fill="#03326C"/>
<path d="M421.196 97.006C446.995 119.188 472.668 160.5 468.651 172.203C464.178 185.228 434.97 161.808 434.843 159.684C434.742 158.095 420.904 130.694 411.008 105.08C401.872 81.3928 414.809 91.4921 421.196 97.006Z" fill="#D3766A"/>
<path d="M420.106 136.771L451.582 126.728C451.582 126.728 426.695 97.8224 417.217 91.563C406.56 84.53 405.673 92.1538 408.511 104.841C411.35 117.529 420.106 136.771 420.106 136.771Z" fill="#FF781C"/>
<path d="M419.357 130.597C420.396 130.076 430.191 126.841 432.332 126.194C434.474 125.547 443.192 122.804 445.447 122.34C445.468 122.34 445.487 122.349 445.501 122.365C445.515 122.38 445.523 122.402 445.523 122.424C445.523 122.447 445.515 122.468 445.501 122.484C445.487 122.5 445.468 122.509 445.447 122.509C443.319 123.437 434.524 126.236 432.358 126.939C430.191 127.643 420.446 130.597 419.331 130.765C419.293 130.765 419.293 130.625 419.357 130.597Z" fill="#03326C"/>
<path d="M423.945 135.547C422.678 135.829 421.335 136.166 420.042 136.504L420.334 136.645L415.531 125.04C414.099 121.636 412.11 116.798 410.64 113.464C412.94 121.63 416.038 129.493 419.878 136.912L419.992 137.123C421.259 136.616 422.64 136.11 423.945 135.547Z" fill="#03326C"/>
<path d="M413.984 122.451C412.895 120.877 411.714 119.383 410.449 117.979C410.731 118.953 411.191 119.852 411.799 120.622C412.407 121.391 413.151 122.014 413.984 122.451Z" fill="#03326C"/>
<path d="M467.345 174.257C464.228 180.094 453.749 187.029 418.268 189.94C413.339 190.348 403.886 151.048 409.132 150.331C415.734 149.416 437.934 148.741 439.823 148.924C453.888 150.71 470.45 168.419 467.345 174.257Z" fill="#D3766A"/>
<path d="M421.184 151.429C421.184 151.429 407.739 150.205 398.73 150.233C393.661 150.233 385.095 151.105 381.407 153.046C375.883 155.859 354.43 171.543 357.737 177.408C360.74 182.711 377.631 166.634 377.631 166.634C377.631 166.634 359.295 181.178 363.971 186.833C368.647 192.487 385.513 171.501 385.513 171.501C385.513 171.501 366.974 186.973 372.613 191.882C376.884 195.652 393.167 177.605 393.167 177.605C393.167 177.605 377.315 190.982 381.547 195.061C386.223 199.562 402.202 183.949 402.202 183.949C414.544 192.304 423.49 190.673 429.737 188.675C431.296 188.141 421.184 151.429 421.184 151.429Z" fill="#D3766A"/>
<path d="M383.688 161.092C381.47 162.723 379.227 164.341 377.162 166.184C375.096 168.026 373.069 169.925 371.155 171.965C368.613 174.578 366.35 177.509 364.414 180.7C368.215 175.326 375.552 168.631 377.63 166.788C379.709 164.946 381.685 163.019 383.751 161.162C383.802 161.134 383.738 161.049 383.688 161.092Z" fill="#03326C"/>
<path d="M389.795 169.277C387.045 171.486 384.257 173.567 381.596 175.902C378.935 178.237 376.642 180.713 374.146 183.231C373.955 183.428 374.146 183.484 374.31 183.231C376.845 180.826 379.442 178.814 382.053 176.423C384.663 174.032 387.121 171.556 389.846 169.291L389.795 169.277Z" fill="#03326C"/>
<path d="M396.169 175.256C391.891 178.548 387.93 182.318 384.346 186.509C384.156 186.719 384.346 186.762 384.574 186.509C388.439 182.697 391.442 179.687 396.27 175.425C396.346 175.354 396.257 175.199 396.169 175.256Z" fill="#03326C"/>
<path d="M403.062 150.303C397.134 150.133 391.203 150.472 385.322 151.316C383.828 151.564 382.378 152.072 381.027 152.821C377.053 155.083 373.24 157.679 369.622 160.585C366.327 163.398 353.149 173.385 358.066 178.435C361.512 180.967 368.583 175.157 371.307 172.724L370.965 172.288C368.114 175.579 364.528 178.871 363.274 183.33C364.693 178.927 368.406 175.917 371.307 172.724L370.965 172.288C368.431 174.482 361.702 179.644 358.598 177.731C354.67 173.512 367.366 163.834 370.154 161.387C374.906 157.898 379.785 153.425 385.36 152.033C391.222 151.042 397.135 150.464 403.062 150.303Z" fill="#03326C"/>
<path d="M413.377 149.839C416.633 149.839 419.877 149.656 423.134 149.557C426.39 149.459 429.622 149.29 432.866 149.29C436.085 149.089 439.314 149.32 442.483 149.979C445.665 150.665 448.809 151.552 451.898 152.638C448.926 151.127 445.828 149.94 442.648 149.093C439.435 148.301 436.142 147.975 432.853 148.122C429.584 148.221 426.327 148.376 423.083 148.671C419.839 148.966 416.595 149.318 413.377 149.839Z" fill="#03326C"/>
<path d="M409.194 90.6066C409.004 92.2101 390.187 118.893 385.777 119.189C383.319 119.357 393.583 92.4633 393.583 92.4633L389.439 78.5239L404.544 65.4004C404.544 65.4004 409.27 89.9736 409.194 90.6066Z" fill="#D3766A"/>
<path d="M406.279 74.5015C405.296 78.1835 403.641 81.6019 401.418 84.5442C399.194 87.4866 396.45 89.8902 393.354 91.6057L389.439 78.44L404.543 65.3164L406.279 74.5015Z" fill="#03326C"/>
<path d="M371.218 57.8182C369.95 81.8147 382.711 85.4015 387.374 85.711C391.606 85.9923 406.052 86.3439 409.6 62.6287C413.148 38.9135 403.505 30.6286 393.849 29.4893C384.193 28.35 372.535 33.8076 371.218 57.8182Z" fill="#D3766A"/>
<path d="M375.793 53.4026C376.287 53.3279 376.778 53.2246 377.263 53.0931C377.795 53.0693 378.304 52.8462 378.707 52.4601C378.812 52.3116 378.869 52.1284 378.869 51.9397C378.869 51.751 378.812 51.5678 378.707 51.4193C378.466 51.1531 378.165 50.9623 377.836 50.866C377.507 50.7697 377.16 50.7713 376.832 50.8707C376.139 50.9654 375.503 51.3412 375.045 51.9256C374.949 52.0695 374.893 52.2412 374.883 52.4199C374.873 52.5986 374.909 52.7767 374.988 52.9328C375.067 53.0889 375.185 53.2163 375.328 53.2996C375.471 53.383 375.632 53.4187 375.793 53.4026Z" fill="#03326C"/>
<path d="M390.187 53.9222C389.681 53.8378 389.224 53.669 388.73 53.5424C388.201 53.4865 387.702 53.2395 387.311 52.8391C387.207 52.6874 387.151 52.5022 387.151 52.3117C387.151 52.1212 387.207 51.9359 387.311 51.7842C387.563 51.5324 387.87 51.3594 388.202 51.2828C388.534 51.2062 388.878 51.2287 389.199 51.3481C389.887 51.4777 390.507 51.8893 390.935 52.5016C391.027 52.6429 391.08 52.8107 391.087 52.9846C391.094 53.1586 391.056 53.3312 390.977 53.4816C390.898 53.6319 390.781 53.7536 390.641 53.8318C390.501 53.91 390.343 53.9414 390.187 53.9222Z" fill="#03326C"/>
<path d="M386.956 59.9141C386.956 59.9141 387.07 59.9985 387.057 60.0688C386.943 61.7004 387.057 63.5853 388.324 64.2042C388.324 64.2042 388.324 64.3026 388.324 64.2886C386.74 63.951 386.588 61.4473 386.956 59.9141Z" fill="#03326C"/>
<path d="M388.339 58.269C390.721 58.269 390.683 63.4875 388.478 63.5579C386.273 63.6282 386.349 58.3394 388.339 58.269Z" fill="#03326C"/>
<path d="M389.276 58.5642C389.694 58.8596 390.099 59.3941 390.543 59.4644C390.986 59.5347 391.569 58.9721 391.949 58.4517H392.025C392.025 59.4644 391.683 60.5053 390.695 60.646C389.706 60.7866 389.174 59.8723 388.946 58.8455C388.959 58.7189 389.124 58.4376 389.276 58.5642Z" fill="#03326C"/>
<path d="M378.516 59.4932C378.516 59.4932 378.402 59.5776 378.402 59.6338C378.402 61.2795 378.25 63.1644 376.92 63.6989V63.7973C378.567 63.5442 378.795 61.0404 378.516 59.4932Z" fill="#03326C"/>
<path d="M377.2 57.7764C374.83 57.5794 374.665 62.8682 376.845 63.0511C379.024 63.234 379.189 57.9592 377.2 57.7764Z" fill="#03326C"/>
<path d="M376.199 58.0864C375.819 58.3537 375.426 58.846 374.932 58.86C374.438 58.8741 374.045 58.2833 373.741 57.7207H373.665C373.601 58.7335 373.855 59.7884 374.729 60.0275C375.603 60.2666 376.136 59.3946 376.389 58.3959C376.452 58.2693 376.351 57.988 376.199 58.0864Z" fill="#03326C"/>
<path d="M380.468 67.6377C380.468 67.6377 380.227 70.0852 380.252 71.2386C380.252 71.3512 380.506 71.3934 380.861 71.4074C381.758 71.5615 382.676 71.4382 383.514 71.0511C384.352 70.664 385.078 70.0281 385.613 69.2131C385.676 69.1006 385.613 68.9881 385.448 69.0584C384.149 70.1065 382.58 70.6592 380.975 70.6338C380.899 70.3103 381.52 66.414 381.355 66.414C380.552 66.5278 379.765 66.7498 379.011 67.0751C379.391 61.9551 380.506 56.9335 380.823 51.8276C380.823 51.7865 380.808 51.7472 380.782 51.7182C380.756 51.6892 380.72 51.6729 380.683 51.6729C380.646 51.6729 380.611 51.6892 380.585 51.7182C380.559 51.7472 380.544 51.7865 380.544 51.8276C379.212 57.1689 378.363 62.6441 378.01 68.1722C377.934 68.7771 380.062 67.8487 380.468 67.6377Z" fill="#03326C"/>
<path d="M381.52 71.1676C382.076 71.981 382.808 72.6247 383.649 73.0384C384.118 73.2367 384.63 73.2758 385.119 73.1509C386.183 72.8555 386.208 71.7443 386.018 70.8441C385.916 70.3572 385.763 69.8852 385.562 69.4375C384.416 70.4797 383 71.0861 381.52 71.1676Z" fill="#03326C"/>
<path d="M383.598 73.0952C384.067 73.2934 384.579 73.3326 385.068 73.2077C386.132 72.9123 386.158 71.8011 385.968 70.9009C385.41 70.9261 384.876 71.1548 384.447 71.5515C384.019 71.9483 383.72 72.4909 383.598 73.0952Z" fill="#FF9BBC"/>
<path d="M385.069 34.1323C384.592 36.2062 384.685 38.3909 385.335 40.4058C387.666 45.8212 393.521 44.3864 395.472 46.5245C397.424 48.6625 396.739 52.6853 398.387 54.6968C400.743 57.51 403.937 56.3847 404.33 58.2695C404.722 60.1544 405.837 66.0902 407.979 66.8498C410.12 67.6093 419.916 27.9433 391.949 29.2374C391.949 29.2374 388.148 27.4932 382.154 30.8409C375.578 34.5543 372.726 46.6088 372.726 46.6088C372.726 46.6088 372.879 46.4401 373.829 45.4976C375.172 44.1754 375.704 42.9376 376.693 42.0796C378.239 40.673 379.088 41.2357 380.71 39.9135C382.471 38.3006 383.949 36.3407 385.069 34.1323Z" fill="#03326C"/>
<path d="M385.5 32.4019C385.056 33.9496 384.78 35.5502 384.676 37.1702C384.501 38.75 384.711 40.3529 385.284 41.812C386.005 43.1554 387.146 44.1569 388.49 44.6252C389.821 45.1738 391.29 45.3285 392.722 46.0318C393.464 46.36 394.112 46.9043 394.598 47.6072C395.011 48.3366 395.291 49.1491 395.421 49.9984C395.566 51.5715 396.106 53.0677 396.98 54.3166C397.458 54.901 398.047 55.3604 398.705 55.662C399.362 55.9636 400.071 56.0998 400.782 56.0608C402.188 56.0608 403.747 55.6248 405.115 56.314C403.696 55.7514 402.264 56.314 400.782 56.4406C400.02 56.5038 399.256 56.3832 398.54 56.0869C397.825 55.7907 397.176 55.3259 396.638 54.7246C395.659 53.4244 395.043 51.8359 394.864 50.1531C394.738 49.3989 394.485 48.6781 394.116 48.0292C393.691 47.4522 393.136 47.0105 392.507 46.7491C391.24 46.1443 389.732 45.9474 388.325 45.3425C387.61 45.055 386.939 44.647 386.336 44.1329C385.677 43.6326 385.148 42.9486 384.803 42.1496C384.244 40.5769 384.086 38.864 384.346 37.1984C384.558 35.5545 384.945 33.9444 385.5 32.4019Z" fill="#03326C"/>
<path d="M384.955 33.8218C384.683 35.3169 384.232 36.7647 383.612 38.126C382.998 39.5551 382.02 40.7532 380.799 41.5721C380.182 41.9168 379.537 42.1947 378.873 42.402C378.285 42.6207 377.764 43.015 377.365 43.5414C376.999 44.2008 376.574 44.8181 376.098 45.384C375.59 45.9094 374.985 46.3034 374.324 46.5374C374.909 46.184 375.426 45.7061 375.844 45.1308C376.239 44.5297 376.582 43.8893 376.871 43.2178C377.287 42.53 377.891 42.0077 378.594 41.7268C379.225 41.5153 379.836 41.2374 380.419 40.897C381.524 40.1383 382.436 39.0777 383.067 37.8165C383.779 36.5353 384.41 35.2005 384.955 33.8218Z" fill="#03326C"/>
<path d="M405.344 63.9662C405.344 63.9662 410.248 56.5957 413.277 58.5649C416.305 60.5341 412.491 71.2243 408.854 72.6309C408.399 72.8438 407.911 72.9525 407.417 72.9504C406.923 72.9484 406.435 72.8356 405.982 72.6188C405.529 72.402 405.119 72.0857 404.779 71.689C404.439 71.2922 404.174 70.8231 404.001 70.31L405.344 63.9662Z" fill="#D3766A"/>
<path d="M412.109 61.6167V61.7292C409.575 62.7842 408.156 65.3442 407.167 68.0167C407.321 67.7402 407.526 67.5037 407.769 67.3235C408.013 67.1434 408.288 67.0238 408.577 66.973C408.866 66.9222 409.162 66.9414 409.443 67.0293C409.725 67.1172 409.986 67.2717 410.209 67.4822C410.272 67.4822 410.209 67.651 410.133 67.6369C409.688 67.4566 409.203 67.4371 408.748 67.5811C408.293 67.7251 407.89 68.0253 407.598 68.4387C407.104 69.1158 406.679 69.8517 406.331 70.633C406.204 70.8721 405.799 70.7315 405.9 70.4361C406.027 66.8071 408.65 61.8418 412.109 61.6167Z" fill="#03326C"/>
<path d="M409.193 90.5928L385.789 119.189L393.582 92.4073L384.205 102.296L387.271 104.391L383.166 108.611L383.964 123.352L401.046 111.931L399.145 106.403L405.937 106.023L409.193 90.5928Z" fill="#FF781C"/>
<path opacity="0.5" d="M409.193 90.5928L385.789 119.189L393.582 92.4073L384.205 102.296L387.271 104.391L383.166 108.611L383.964 123.352L401.046 111.931L399.145 106.403L405.937 106.023L409.193 90.5928Z" fill="white"/>
<path d="M315.629 452.272C315.629 393.195 280.934 345.131 238.332 345.131C195.73 345.131 161.035 393.195 161.035 452.272C161.035 511.349 195.73 559.412 238.332 559.412C280.934 559.412 315.629 511.349 315.629 452.272ZM307.887 452.272C307.887 506.609 276.664 550.818 238.294 550.818C199.924 550.818 168.701 506.609 168.701 452.272C168.701 397.935 199.988 353.726 238.332 353.726C276.676 353.726 307.95 397.935 307.95 452.272H307.887Z" fill="#03326C"/>
<path d="M312.879 452.271C312.879 399.904 282.188 357.298 244.452 357.298C206.716 357.298 176.025 399.904 176.025 452.271C176.025 504.639 206.703 547.245 244.452 547.245C282.201 547.245 312.879 504.639 312.879 452.271ZM307.341 452.271C307.341 501.263 279.134 541.112 244.465 541.112C209.795 541.112 181.575 501.263 181.575 452.271C181.575 403.28 209.782 363.431 244.465 363.431C279.147 363.431 307.341 403.28 307.341 452.271Z" fill="#D1D3D2"/>
<path d="M252.916 452.27C252.916 460.851 247.949 467.743 241.828 467.743C235.708 467.743 230.728 460.794 230.728 452.27C230.728 443.746 235.695 436.798 241.828 436.798C247.961 436.798 252.916 443.69 252.916 452.27Z" fill="#D1D3D2"/>
<path d="M245.377 467.8C239.254 467.8 234.289 460.847 234.289 452.271C234.289 443.695 239.254 436.742 245.377 436.742C251.501 436.742 256.465 443.695 256.465 452.271C256.465 460.847 251.501 467.8 245.377 467.8Z" fill="#D1D3D2"/>
<path d="M245.377 449.205H345.812V455.338H245.377V449.205Z" fill="#D1D3D2"/>
<path d="M143.471 542.152C143.471 553.307 137.008 562.351 129.038 562.351C121.067 562.351 114.617 553.307 114.617 542.152C114.617 530.998 121.08 521.954 129.038 521.954C136.995 521.954 143.471 530.998 143.471 542.152Z" fill="#D1D3D2"/>
<path d="M133.663 562.351C125.692 562.351 119.23 553.308 119.23 542.152C119.23 530.997 125.692 521.954 133.663 521.954C141.634 521.954 148.096 530.997 148.096 542.152C148.096 553.308 141.634 562.351 133.663 562.351Z" fill="#D1D3D2"/>
<path d="M245.757 358.943H131.484V309.966H245.757V358.943Z" fill="#A6A6A6"/>
<path d="M227.232 476.787H131.485V470.64H227.232C231.396 470.637 235.389 468.8 238.334 465.533C241.28 462.265 242.938 457.835 242.945 453.213V201.094C242.951 194.844 245.191 188.852 249.172 184.433C253.154 180.013 258.552 177.527 264.182 177.52H277.082V183.652H264.182C260.016 183.656 256.021 185.495 253.075 188.765C250.129 192.035 248.473 196.469 248.469 201.094V453.184C248.469 459.439 246.233 465.439 242.251 469.864C238.269 474.29 232.867 476.78 227.232 476.787Z" fill="#D1D3D2"/>
<path d="M134.245 521.955H128.72V280.161C128.727 274.534 130.744 269.139 134.328 265.16C137.913 261.181 142.773 258.943 147.842 258.935H245.705V265.068H147.842C144.237 265.072 140.781 266.663 138.231 269.493C135.682 272.322 134.249 276.159 134.245 280.161V521.955Z" fill="#D1D3D2"/>
<path d="M294.212 186.523H259.961V174.328H294.212V186.523Z" fill="#03326C"/>
<path d="M345.824 349.42H248.189L248.189 200.968H345.824V349.42Z" fill="#03326C"/>
<path d="M256.983 157.941C262.736 192.163 260.658 239.523 254.183 247.414C246.047 257.26 226.546 218.058 227.674 216.469C228.523 215.245 235.023 182.458 241.815 159.952C248.886 136.49 255.564 149.473 256.983 157.941Z" fill="#F7A9A0"/>
<path d="M255.476 245.192C251.927 253.997 239.801 256.206 201.722 259.975C196.451 260.496 183.133 220.211 188.734 219.339C195.779 218.228 226.381 214.43 228.422 214.514C245.63 215.302 258.149 238.553 255.476 245.192Z" fill="#F7A9A0"/>
<path d="M228.421 214.513C236.126 215.92 242.728 220.506 248.48 226.202C244.007 219.085 236.404 213.979 228.421 214.513Z" fill="#03326C"/>
<path d="M207.576 259.13C202.762 262.093 197.766 264.673 192.624 266.853C188.531 268.344 176.619 272.268 174.693 267.415C173.426 264.11 180.142 260.889 184.831 258.483C187.365 257.217 190.355 254.165 189.557 252.393C188.151 249.284 181.739 252.702 177.544 255.614C169.422 261.24 158.689 271.297 153.468 266.867C151.504 265.165 153.62 261.873 156.776 258.61C151.618 262.478 146.093 265.643 143.838 263.913C142.571 262.9 142.457 261.437 143.103 259.693C142.449 260.063 141.71 260.208 140.981 260.11C140.252 260.012 139.566 259.676 139.01 259.145C137.236 257.217 137.983 254.25 139.77 251.169C139.446 251.141 139.132 251.028 138.855 250.84C138.578 250.652 138.344 250.393 138.174 250.086C134.372 244.08 151.986 225.78 158.207 223.895C170.572 220.429 183.267 218.625 196.02 218.522C203.534 224.697 207.589 259.116 207.576 259.13Z" fill="#F7A9A0"/>
<path d="M179.839 241.267C175.469 242.199 171.327 244.15 167.687 246.992C163.1 250.607 160.084 254.728 156.282 258.92C156.181 259.032 156.282 259.215 156.434 259.103C158.246 257.105 165.786 249.594 167.75 247.85C171.28 244.682 175.414 242.45 179.839 241.323C179.839 241.323 179.889 241.267 179.839 241.267Z" fill="#03326C"/>
<path d="M176.139 232.7C171.244 234.179 166.498 236.205 161.972 238.749C157.119 241.717 153.406 246.415 149.744 250.93C147.539 253.645 145.398 256.401 143.307 259.229C143.218 259.341 143.37 259.524 143.459 259.412C147.168 254.723 151.007 250.184 154.977 245.796C158.623 241.676 162.969 238.401 167.763 236.161C170.513 234.881 173.339 233.84 176.152 232.799C176.24 232.771 176.24 232.686 176.139 232.7Z" fill="#03326C"/>
<path d="M170.716 225.288C166.04 226.54 161.947 227.609 157.854 230.577C152.443 234.487 147.299 240.958 145.487 243.236C143.497 245.768 141.584 248.37 139.696 251.001C139.62 251.113 139.784 251.254 139.86 251.155C144.182 245.373 148.838 239.908 153.799 234.797C156.123 232.323 158.777 230.264 161.668 228.692C164.604 227.28 167.644 226.15 170.754 225.316C170.754 225.316 170.741 225.274 170.716 225.288Z" fill="#03326C"/>
<path d="M266.553 206.496L232.757 186.803C232.757 186.803 237.357 166.14 241.362 155.098C246.646 140.484 252.766 139.232 258.519 157.462C262.409 169.643 266.553 206.496 266.553 206.496Z" fill="#FF781C"/>
<g opacity="0.5">
<path d="M266.553 206.496L232.757 186.803C232.757 186.803 237.357 166.14 241.362 155.098C246.646 140.484 252.766 139.232 258.519 157.462C262.409 169.643 266.553 206.496 266.553 206.496Z" fill="white"/>
</g>
<path d="M264.8 200.94C260.061 197.691 255.297 194.526 250.393 191.6C247.951 190.138 245.485 188.731 242.992 187.381C240.458 185.974 237.924 184.905 235.39 183.498C235.25 183.414 235.149 183.667 235.288 183.738C237.822 185.004 240.192 186.663 242.65 188.084C245.109 189.505 247.58 190.897 250.025 192.402C254.917 195.3 259.82 198.197 264.648 201.222C264.838 201.264 264.94 201.095 264.8 200.94Z" fill="#03326C"/>
<path d="M253.854 168.743C254.998 168.237 256.201 167.915 257.427 167.786C256.439 168.601 255.351 169.254 254.196 169.727C253.052 170.236 251.849 170.563 250.622 170.698C251.61 169.879 252.698 169.22 253.854 168.743ZM237.064 180.797C237.554 179.547 238.198 178.377 238.977 177.323C238.795 178.673 238.446 179.989 237.938 181.233C237.447 182.488 236.803 183.661 236.025 184.722C236.203 183.366 236.553 182.044 237.064 180.797ZM257.541 190.179C258.675 190.716 259.734 191.431 260.684 192.303C259.462 192.099 258.272 191.706 257.148 191.136C256.018 190.599 254.964 189.883 254.018 189.012C255.242 189.208 256.433 189.602 257.554 190.179H257.541Z" fill="white"/>
<path opacity="0.1" d="M237.509 189.561L266.553 206.44C266.553 206.44 262.358 169.587 258.519 157.392C255.579 148.038 252.525 143.832 249.547 143.889L237.509 189.561Z" fill="#251212"/>
<path d="M250.42 234.276L241.854 262.24C241.854 262.24 159.666 277.276 141.393 299.964C114.783 332.991 58.7107 445.632 58.7107 445.632L107.306 484.229C107.306 484.229 176.937 358.001 183.919 347.451C190.901 336.902 292.946 326.507 311.827 310.247C330.707 293.986 317.605 234.29 317.605 234.29L250.42 234.276Z" fill="#F7A9A0"/>
<path d="M0.508881 472.765C2.87848 475.367 86.524 520.266 90.5916 519.732C91.0604 519.732 101.996 501.01 101.996 501.01C105.215 493.766 135.943 440.09 135.943 440.09L77.7679 402.632L50.3971 462.033C50.3971 462.033 36.8258 461.147 24.7244 461.006C17.2608 460.908 10.7856 461.006 9.04955 461.372C4.62715 462.483 -1.87338 470.191 0.508881 472.765Z" fill="#EBEBEB"/>
<path d="M116.127 475.592L122.26 464.339C122.26 464.339 97.322 458.84 76.7433 446.616C76.7433 446.616 86.2723 472.976 94.4836 475.536C102.695 478.096 116.127 475.592 116.127 475.592Z" fill="#EBEBEB"/>
<path d="M116.125 475.592L122.46 464.55L122.65 464.213C118.621 463.172 114.591 462.019 110.612 460.725C98.461 456.917 86.6947 451.732 75.4992 445.252L76.1455 446.982C79.8076 456.153 83.5457 465.507 89.8562 472.863C93.0494 476.858 98.2068 477.083 102.68 477.083C107.186 477.059 111.681 476.588 116.112 475.677L116.125 475.592ZM116.125 475.592C111.679 476.267 107.191 476.535 102.705 476.394C98.3969 476.141 93.5436 476.014 90.5405 472.076C84.5848 464.761 80.796 455.422 77.3113 446.419L76.4496 447.277C83.6289 451.435 91.1001 454.94 98.7897 457.757C106.452 460.629 114.274 462.946 122.207 464.691L122.029 464.255L116.125 475.592Z" fill="#D1D3D2"/>
<path d="M65.1861 427.796L55.6443 447.151C55.6443 447.151 74.7278 475.283 84.9539 480.741C95.1799 486.198 107.813 491.628 107.813 491.628L117.229 475.593C117.229 475.593 99.6403 469.249 90.7828 461.977C81.9253 454.705 65.1861 427.796 65.1861 427.796Z" fill="#EBEBEB"/>
<path d="M65.1859 427.796L55.4034 447.01L55.302 447.179L55.416 447.348C58.774 452.356 62.2968 457.194 65.9335 461.949C71.5344 468.982 77.0212 476.394 84.4214 481.135C92.0244 485.256 99.7794 488.815 107.611 492.289L108.092 492.5L108.371 492.022L117.748 475.958L118.166 475.241C112.444 473.173 106.833 470.74 101.363 467.955C96.168 465.226 91.0107 462.258 87.0318 457.616C78.9726 448.459 72.0412 438.093 65.1859 427.796ZM65.1859 427.796C71.7244 438.402 78.4404 448.895 86.4489 458.277C90.4405 463.032 95.6612 466.281 100.907 469.038C106.17 471.767 111.569 474.162 117.076 476.211L116.759 475.241L107.306 491.248L108.067 490.981C100.274 487.577 92.4679 484.046 84.9283 480.009C77.7435 475.41 72.1806 468.053 66.5798 461.33C62.8796 456.641 59.3105 451.854 55.8722 446.968V447.306L65.1605 427.796H65.1859Z" fill="#D1D3D2"/>
<path d="M50.0539 461.188C50.0539 461.188 36.5713 460.625 30.1594 460.625C30.1594 460.625 38.0032 474.087 40.5882 479.375C43.1732 484.664 43.1225 497.155 43.1225 497.155L69.4922 510.841C69.4922 510.841 66.3623 490.811 63.017 484.228C59.6716 477.645 50.0539 461.188 50.0539 461.188Z" fill="#EBEBEB"/>
<path d="M50.0574 461.189C44.786 460.936 34.8514 460.429 29.5293 460.204C32.8366 466.084 36.1692 471.977 39.2611 477.969C40.0392 479.351 40.6485 480.841 41.0732 482.4C42.1266 487.23 42.6331 492.187 42.5811 497.155V497.577L42.9106 497.746C49.4745 501.192 62.7037 508.057 69.2929 511.418L70.3066 511.939C69.2063 504.749 67.7082 497.642 65.8209 490.657C64.1229 484.004 60.2073 478.363 56.9507 472.582C54.6825 468.756 52.4016 464.958 50.07 461.189H50.0574ZM50.0574 461.189L56.5453 472.863C59.6118 478.771 63.3879 484.271 64.9592 490.966C66.5305 497.662 67.899 504.245 68.9888 510.954L69.7871 510.265C63.2359 506.805 50.0194 499.94 43.4301 496.551L43.7722 497.155C43.5188 490.488 43.4428 483.216 40.1862 477.379C36.9296 471.541 33.7617 466.013 30.4544 460.415L30.1629 461.006C35.1302 461.076 45.1028 461.147 50.0574 461.189Z" fill="#D1D3D2"/>
<path opacity="0.1" d="M161.616 386.428C172.666 366.736 181.637 350.897 183.918 347.451C190.9 336.888 292.958 326.493 311.838 310.247C330.719 294.001 317.617 234.291 317.617 234.291H250.457L241.891 262.254C241.891 262.254 194.537 270.918 163.72 285.026L161.616 386.428Z" fill="#251212"/>
<path d="M119.762 535.007C122.93 536.175 215.826 535.513 219.26 533.052C219.678 532.799 219.792 523.459 219.78 510.701V510.448C219.78 502.36 221.047 433.24 221.047 433.24L162.098 432.888L160.223 500.953C160.223 500.953 147.691 506.805 136.78 512.614C130.039 516.173 124.198 519.422 122.842 520.604C119.37 523.754 116.595 533.868 119.762 535.007Z" fill="#F7A9A0"/>
<path d="M161.427 479.826L220.236 479.981C220.236 479.981 224.797 342.472 232.096 338.744C244.375 332.485 292.35 333.582 319.923 311.456C342.314 293.494 323.814 234.276 323.814 234.276H264.536C264.536 234.276 256.413 255.15 255.057 261.48C255.057 261.48 197.718 278.978 177.925 303.073C159.12 325.987 161.427 479.826 161.427 479.826Z" fill="#F7A9A0"/>
<path d="M179.116 522.953C179.116 522.953 170.424 508.887 163.644 505.708C159.421 503.739 154.743 503.315 150.288 504.498C148.932 504.639 124.4 517.158 121.144 520.604C117.887 524.05 115.91 533.741 118.394 535.57C120.877 537.399 218.36 535.57 219.513 534.979C220.667 534.388 221.49 523.726 220.882 522.953C220.274 522.179 179.116 522.953 179.116 522.953Z" fill="#FF781C"/>
<path d="M331.555 257.486C333.684 266.98 340.426 305.859 310.66 322.963C280.894 340.067 239.635 335.707 234.947 339.153C230.258 342.599 229.131 369.704 229.131 369.704C229.131 369.704 192.776 333.695 178.064 330.826C163.352 327.956 122.663 325.453 122.663 325.453C122.663 325.453 132.002 300.514 152.556 286.954C177.785 270.314 241.853 262.24 241.853 262.24L331.555 257.486Z" fill="#FF781C"/>
<path opacity="0.5" d="M331.555 257.486C333.684 266.98 340.426 305.859 310.66 322.963C280.894 340.067 239.635 335.707 234.947 339.153C230.258 342.599 229.131 369.704 229.131 369.704C229.131 369.704 192.776 333.695 178.064 330.826C163.352 327.956 122.663 325.453 122.663 325.453C122.663 325.453 132.002 300.514 152.556 286.954C177.785 270.314 241.853 262.24 241.853 262.24L331.555 257.486Z" fill="white"/>
<path d="M285.102 259.946C285.109 260.059 285.109 260.171 285.102 260.284C285.026 260.171 284.95 260.073 284.887 259.96L285.102 259.946ZM241.613 265.334C242.756 264.821 243.96 264.499 245.187 264.377C244.199 265.192 243.11 265.845 241.956 266.318C240.813 266.831 239.609 267.153 238.382 267.275C239.373 266.465 240.461 265.812 241.613 265.334ZM311.396 258.554L314.057 258.413L313.107 258.863C311.963 259.369 310.759 259.691 309.533 259.82C310.113 259.327 310.737 258.903 311.396 258.554ZM329.136 273.421C329.629 272.165 330.277 270.991 331.062 269.933C330.878 271.285 330.524 272.601 330.011 273.843C329.53 275.104 328.886 276.279 328.097 277.332C328.255 275.984 328.584 274.668 329.073 273.421H329.136ZM269.136 269.483C270.268 270.025 271.326 270.74 272.279 271.607C269.834 271.182 267.535 270.046 265.613 268.316C266.811 268.519 267.976 268.912 269.073 269.483H269.136ZM243.185 296.56C243.652 297.826 243.943 299.163 244.046 300.527C242.599 298.304 241.7 295.7 241.436 292.973C242.148 294.074 242.715 295.282 243.121 296.56H243.185ZM328.541 300.062C328.772 300.749 328.97 301.449 329.136 302.158C329.022 302.44 328.896 302.721 328.769 302.988C328.325 302.174 327.948 301.317 327.641 300.428C327.183 299.16 326.897 297.823 326.792 296.462C327.502 297.569 328.069 298.781 328.477 300.062H328.541ZM283.595 289.007C284.06 290.274 284.355 291.61 284.469 292.973C282.996 290.786 282.073 288.203 281.795 285.49C282.517 286.568 283.102 287.751 283.531 289.007H283.595ZM253.778 316.041C254.915 315.516 256.114 315.175 257.339 315.029C256.345 315.845 255.253 316.503 254.095 316.984C252.951 317.49 251.748 317.812 250.522 317.94C251.498 317.14 252.574 316.5 253.715 316.041H253.778ZM256.313 282.283C257.45 281.759 258.649 281.418 259.873 281.27C257.875 282.889 255.528 283.893 253.069 284.182C254.058 283.373 255.146 282.724 256.3 282.255L256.313 282.283ZM313.829 288.739C314.973 288.232 316.176 287.905 317.402 287.769C316.416 288.598 315.323 289.258 314.159 289.724C313.015 290.232 311.811 290.554 310.585 290.68C311.576 289.862 312.663 289.199 313.816 288.711L313.829 288.739ZM298.04 275.461C298.526 274.203 299.17 273.029 299.954 271.973C299.776 273.326 299.422 274.643 298.902 275.883C298.414 277.139 297.77 278.313 296.988 279.371C297.16 278.009 297.51 276.682 298.028 275.433L298.04 275.461ZM244.439 330.445C244.899 331.714 245.194 333.05 245.314 334.412C244.571 333.313 243.978 332.1 243.552 330.811C243.095 329.541 242.805 328.205 242.691 326.844C243.418 327.938 244.003 329.141 244.427 330.417L244.439 330.445ZM271.962 329.573C272.422 330.842 272.716 332.178 272.836 333.539C271.378 331.322 270.474 328.716 270.213 325.986C270.941 327.075 271.525 328.273 271.949 329.545L271.962 329.573ZM312.841 320.979C313.321 319.722 313.966 318.552 314.754 317.504C314.6 318.701 314.301 319.87 313.867 320.979C313.424 321.274 312.98 321.583 312.511 321.865C312.6 321.541 312.714 321.246 312.828 320.95L312.841 320.979ZM285.407 316.337C285.899 315.085 286.548 313.915 287.333 312.862C287.148 314.214 286.794 315.53 286.281 316.773C285.8 318.029 285.156 319.2 284.368 320.247C284.543 318.888 284.888 317.562 285.394 316.309L285.407 316.337ZM268.389 301.722C269.521 302.261 270.575 302.981 271.518 303.86C270.3 303.662 269.113 303.269 267.996 302.693C266.859 302.156 265.8 301.436 264.853 300.555C266.069 300.752 267.255 301.135 268.376 301.694L268.389 301.722ZM229.461 282.283C230.592 282.82 231.65 283.53 232.604 284.393C230.163 283.964 227.865 282.834 225.939 281.116C227.16 281.298 228.349 281.692 229.461 282.283ZM301.88 302.369C303.013 302.908 304.071 303.623 305.022 304.493C303.804 304.302 302.617 303.913 301.5 303.34C300.365 302.798 299.307 302.078 298.357 301.202C299.575 301.406 300.76 301.799 301.88 302.369ZM174.973 276.797C175.141 277.507 175.252 278.232 175.303 278.963C174.888 278.367 174.527 277.726 174.226 277.05L174.973 276.797ZM212.595 295.589C213.051 296.859 213.341 298.195 213.457 299.556C212.718 298.462 212.129 297.254 211.708 295.969C211.253 294.699 210.962 293.364 210.847 292.003C211.562 293.105 212.138 294.312 212.557 295.589H212.595ZM181.867 329.559C182.184 330.47 182.426 331.412 182.589 332.372C182.348 332.259 182.107 332.147 181.879 332.062C181.536 331.373 181.235 330.659 180.98 329.924C180.524 328.655 180.234 327.319 180.118 325.958C180.841 327.061 181.417 328.273 181.829 329.559H181.867ZM153.989 323.932C154.443 325.204 154.737 326.538 154.863 327.899C154.126 326.802 153.532 325.595 153.102 324.312C152.645 323.043 152.354 321.707 152.24 320.346C152.959 321.439 153.538 322.636 153.964 323.904L153.989 323.932ZM212.279 327.744C213.422 327.234 214.625 326.907 215.852 326.774C214.867 327.598 213.778 328.257 212.621 328.729C211.477 329.235 210.273 329.557 209.047 329.685C210.009 328.858 211.071 328.185 212.203 327.688L212.279 327.744ZM213.799 270.946C214.943 270.435 216.146 270.108 217.373 269.975C215.337 271.594 212.948 272.58 210.454 272.831C211.452 272.017 212.554 271.372 213.723 270.918L213.799 270.946ZM183.223 295.336C184.367 294.829 185.57 294.502 186.796 294.366C185.804 295.185 184.711 295.843 183.552 296.321C182.408 296.829 181.205 297.151 179.979 297.277C180.974 296.468 182.066 295.815 183.223 295.336ZM155.966 291.342C156.451 290.087 157.091 288.913 157.867 287.853C157.691 289.205 157.341 290.522 156.827 291.763C156.336 293.018 155.693 294.192 154.914 295.252C155.089 293.898 155.443 292.58 155.966 291.342ZM197.326 314.86C197.809 313.601 198.454 312.426 199.239 311.371C199.061 312.729 198.707 314.051 198.188 315.296C197.707 316.552 197.062 317.723 196.274 318.77C196.453 317.417 196.807 316.1 197.326 314.86ZM228.511 343.259C228.994 341.997 229.643 340.821 230.437 339.771C230.249 341.121 229.895 342.437 229.385 343.681C228.896 344.939 228.247 346.114 227.459 347.169C227.638 345.816 227.992 344.499 228.511 343.259ZM136.578 307.911C137.709 308.448 138.767 309.158 139.721 310.021C137.28 309.592 134.982 308.462 133.055 306.744C134.274 306.942 135.461 307.335 136.578 307.911ZM196.198 278.457C197.332 278.994 198.391 279.709 199.341 280.581C198.119 280.377 196.929 279.984 195.805 279.414C194.675 278.877 193.621 278.161 192.676 277.29C193.894 277.488 195.081 277.881 196.198 278.457ZM169.258 311.568C170.39 312.11 171.448 312.825 172.401 313.692C171.179 313.499 169.988 313.111 168.866 312.539C167.734 311.991 166.676 311.271 165.723 310.401C166.946 310.612 168.137 311.015 169.258 311.597V311.568ZM226.864 367.495L226.217 366.876C226.183 366.686 226.162 366.493 226.154 366.299C226.418 366.677 226.655 367.076 226.864 367.495ZM216.815 357.578L216.498 357.845L216.295 357.663C216.458 357.621 216.623 357.593 216.79 357.578H216.815ZM199.366 341.754C199.316 342.23 199.231 342.7 199.113 343.161L198.669 342.809C198.885 342.457 199.049 342.12 199.366 341.754ZM125.313 320.824C125.799 319.57 126.443 318.401 127.227 317.35C127.046 318.702 126.692 320.019 126.175 321.26C125.689 322.517 125.044 323.692 124.261 324.748C124.446 323.401 124.8 322.09 125.313 320.852V320.824ZM228.384 311.568C229.516 312.11 230.574 312.825 231.527 313.692C230.304 313.499 229.114 313.111 227.991 312.539C226.862 311.994 225.809 311.274 224.861 310.401C226.08 310.614 227.266 311.017 228.384 311.597V311.568Z" fill="white"/>
<path opacity="0.1" d="M257.427 269.765C244.299 272.268 225.152 275.391 211.809 277.712L200.404 279.78C188.772 281.51 178.47 290.146 172.654 301.216C178.267 292.031 186.592 284.703 196.375 281.918C199.213 281.172 208.958 279.653 211.999 279.104C227.205 276.291 242.411 273.731 257.439 269.765H257.427Z" fill="#251212"/>
<path opacity="0.1" d="M235.797 271.551C226.268 272.381 216.916 273.506 207.374 274.069C216.906 275.297 226.562 274.442 235.797 271.551Z" fill="#251212"/>
<path d="M241.854 262.239L331.557 257.485C331.899 256.529 308.165 168.588 271.126 141.947C264.6 137.263 252.232 141.539 249.242 146.575C237.407 166.436 241.854 262.239 241.854 262.239Z" fill="#FF781C"/>
<g opacity="0.5">
<path d="M241.854 262.239L331.557 257.485C331.899 256.529 308.165 168.588 271.126 141.947C264.6 137.263 252.232 141.539 249.242 146.575C237.407 166.436 241.854 262.239 241.854 262.239Z" fill="white"/>
</g>
<path d="M265.156 150.33C265.612 151.6 265.902 152.936 266.018 154.297C265.28 153.201 264.687 151.993 264.256 150.71C263.806 149.438 263.516 148.104 263.395 146.744C264.133 147.84 264.726 149.048 265.156 150.33ZM276.852 201.77C277.308 203.04 277.598 204.375 277.714 205.736C276.253 203.522 275.352 200.914 275.103 198.183C275.832 199.283 276.421 200.49 276.852 201.77ZM315.006 222.362C315.464 223.637 315.754 224.977 315.868 226.343C315.133 225.24 314.54 224.028 314.107 222.742C313.653 221.472 313.368 220.136 313.258 218.775C313.984 219.878 314.572 221.084 315.006 222.362ZM284.278 256.332C284.687 257.494 284.963 258.708 285.101 259.947H284.924C284.294 258.933 283.779 257.837 283.391 256.683C282.935 255.413 282.645 254.078 282.529 252.717C283.262 253.825 283.85 255.042 284.278 256.332ZM256.4 250.705C256.854 251.977 257.148 253.311 257.274 254.672C256.527 253.587 255.933 252.382 255.513 251.099C255.051 249.831 254.761 248.495 254.651 247.132C255.383 248.218 255.975 249.411 256.413 250.677L256.4 250.705ZM298.85 181.866C299.306 183.136 299.596 184.472 299.712 185.833C298.268 183.607 297.364 181.006 297.089 178.28C297.833 179.363 298.431 180.562 298.863 181.838L298.85 181.866ZM253.853 168.743C254.997 168.237 256.2 167.915 257.426 167.786C256.438 168.601 255.35 169.255 254.195 169.727C253.051 170.236 251.848 170.563 250.622 170.698C251.61 169.879 252.698 169.221 253.853 168.743ZM241.181 209.928L242.094 209.492C243.234 208.987 244.433 208.665 245.654 208.535C244.675 209.358 243.59 210.012 242.436 210.477C242.018 210.645 241.587 210.814 241.169 210.955C241.118 210.645 241.131 210.308 241.143 209.97L241.181 209.928ZM312.814 257.837C313.957 257.324 315.161 256.998 316.388 256.866C315.68 257.468 314.91 257.973 314.094 258.371L311.433 258.512C311.826 258.301 312.307 258.09 312.776 257.879L312.814 257.837ZM285.697 222.039C286.842 221.52 288.051 221.193 289.283 221.068C288.291 221.887 287.198 222.546 286.039 223.023C284.895 223.526 283.691 223.844 282.466 223.966C283.445 223.174 284.52 222.539 285.659 222.081L285.697 222.039ZM277.283 174.805C277.766 173.546 278.411 172.371 279.196 171.317C278.817 174.032 277.794 176.585 276.231 178.716C276.401 177.379 276.742 176.077 277.245 174.847L277.283 174.805ZM258.44 218.072C258.93 216.817 259.574 215.643 260.354 214.584C260.175 215.935 259.825 217.252 259.314 218.494C258.826 219.75 258.182 220.924 257.401 221.983C257.571 220.648 257.908 219.346 258.402 218.114L258.44 218.072ZM299.8 241.59C300.29 240.337 300.939 239.167 301.726 238.116C301.54 239.467 301.186 240.783 300.675 242.027C300.194 243.283 299.549 244.453 298.761 245.501C298.933 244.166 299.27 242.865 299.762 241.633L299.8 241.59ZM242.132 236.794C241.781 236.753 241.434 236.683 241.093 236.583C241.093 236.372 241.093 236.161 241.093 235.95C241.461 236.197 241.808 236.479 242.132 236.794ZM298.647 205.314C299.781 205.851 300.84 206.566 301.79 207.438C300.568 207.234 299.378 206.841 298.254 206.271C297.124 205.734 296.07 205.019 295.125 204.147C296.343 204.345 297.53 204.738 298.647 205.314ZM271.707 238.426C272.839 238.973 273.897 239.692 274.85 240.564C272.402 240.129 270.099 238.989 268.172 237.258C269.392 237.443 270.582 237.817 271.707 238.369V238.426ZM326.867 240.986L327.285 242.308C326.213 241.777 325.211 241.086 324.307 240.254C325.181 240.367 326.041 240.594 326.867 240.929V240.986ZM257.553 190.236C258.687 190.772 259.746 191.487 260.696 192.36C259.474 192.155 258.284 191.762 257.16 191.192C256.03 190.655 254.976 189.94 254.03 189.068C255.247 189.248 256.433 189.623 257.553 190.179V190.236Z" fill="white"/>
<path d="M282.099 152.046C304.806 181.584 331.86 241.955 325.36 253.321C318.124 265.896 282.821 228.987 283.1 226.736C283.302 225.048 277.195 190.165 269.744 163.833C262.293 137.502 276.485 144.83 282.099 152.046Z" fill="#F7A9A0"/>
<path d="M325.765 252.435C320.57 261.451 305.592 263.786 268.401 273.604C263.256 275.011 245.288 234.416 250.661 232.644C257.503 230.421 284.038 226.258 286.065 226.019C303.197 224.05 329.25 246.33 325.765 252.435Z" fill="#F7A9A0"/>
<path d="M261.989 230.437C261.989 230.437 246.416 231.928 236.139 233.869C230.399 234.952 220.718 237.793 216.827 240.733C211.011 245.121 189.241 267.627 194.018 273.605C198.365 279.02 214.876 257.049 214.876 257.049C214.876 257.049 196.451 277.586 202.775 283.043C209.098 288.501 224.747 260.903 224.747 260.903C224.747 260.903 206.259 282.481 213.571 286.954C219.096 290.344 234.555 266.249 234.555 266.249C234.555 266.249 218.766 284.914 224.316 288.67C230.462 292.805 245.934 271.565 245.934 271.565C261.482 278.472 271.429 274.688 278.209 271.073C279.907 270.201 261.989 230.437 261.989 230.437Z" fill="#F7A9A0"/>
<path d="M220.843 249.496C218.601 251.817 216.32 254.152 214.267 256.698C212.214 259.244 210.25 261.86 208.425 264.589C205.982 268.122 203.903 271.949 202.229 275.996C205.663 269.048 212.873 259.835 214.9 257.303C216.928 254.771 218.879 252.112 220.919 249.58C220.983 249.51 220.894 249.44 220.843 249.496Z" fill="#03326C"/>
<path d="M229.232 257.541C226.482 260.65 223.657 263.618 221.034 266.853C218.411 270.088 216.206 273.408 213.798 276.812C213.608 277.079 213.798 277.107 214.001 276.812C216.535 273.506 219.07 270.651 221.604 267.387C224.138 264.124 226.609 260.72 229.27 257.541C229.346 257.555 229.27 257.485 229.232 257.541Z" fill="#03326C"/>
<path d="M237.559 262.985C233.242 267.635 229.369 272.768 226.003 278.303C225.825 278.57 226.079 278.57 226.269 278.303C230.07 273.126 232.934 269.033 237.673 263.14C237.775 263.083 237.648 262.9 237.559 262.985Z" fill="#03326C"/>
<path d="M241.093 233.024C236.386 233.702 231.713 234.641 227.091 235.838C223.644 236.822 219.957 237.68 216.953 239.945C208.489 246.978 200.48 255.614 195.145 265.826C196.475 263.657 197.945 261.598 199.543 259.665C204.262 253.817 209.389 248.389 214.875 243.433C216.588 241.715 218.544 240.322 220.666 239.312C227.255 236.499 234.263 234.923 241.105 233.024H241.093Z" fill="#03326C"/>
<path d="M283.1 226.667C290.875 226.422 298.611 227.969 305.82 231.21C302.543 228.7 298.821 226.996 294.903 226.212C290.984 225.428 286.96 225.584 283.1 226.667Z" fill="#03326C"/>
<path d="M311.521 187.141L273.393 189.012C273.393 189.012 267.982 168.588 266.436 156.801C264.37 141.23 269.11 136.729 282.326 149.261C291.184 157.645 311.521 187.141 311.521 187.141Z" fill="#FF781C"/>
<g opacity="0.5">
<path d="M311.521 187.141L273.393 189.012C273.393 189.012 267.982 168.588 266.436 156.801C264.37 141.23 269.11 136.729 282.326 149.261C291.184 157.645 311.521 187.141 311.521 187.141Z" fill="white"/>
</g>
<path d="M276.018 188.886C275.131 188.717 274.256 188.619 273.382 188.548L273.8 188.872C271.887 180.432 269.885 172.091 267.287 163.891C267.853 168.192 268.631 172.456 269.618 176.663C270.607 181.009 271.747 185.313 273.116 189.533C274.092 189.373 275.061 189.157 276.018 188.886Z" fill="#03326C"/>
<path d="M269.047 171.556C268.173 169.854 267.336 168.208 266.398 166.576C266.462 167.577 266.734 168.548 267.194 169.413C267.653 170.277 268.288 171.01 269.047 171.556Z" fill="#03326C"/>
<path d="M287.751 155.183C288.22 155.732 288.689 156.294 289.157 156.885C287.411 156.292 285.781 155.338 284.355 154.072C285.53 154.254 286.675 154.628 287.751 155.183ZM277.259 174.875C277.742 173.616 278.387 172.442 279.172 171.387C278.793 174.102 277.77 176.655 276.207 178.786C276.379 177.424 276.729 176.097 277.246 174.847L277.259 174.875ZM298.877 181.908C299.332 183.178 299.623 184.514 299.738 185.875C298.294 183.649 297.391 181.047 297.115 178.321C297.848 179.394 298.437 180.578 298.864 181.838L298.877 181.908Z" fill="white"/>
<path d="M307.492 183.315C301.929 183.16 296.366 183.09 290.803 183.315C288.032 183.428 285.261 183.582 282.49 183.779C279.715 183.976 276.953 184.482 274.19 184.637C274.038 184.637 274.064 184.919 274.19 184.904C276.94 184.595 279.766 184.693 282.528 184.539C285.291 184.384 288.079 184.257 290.854 184.145C296.391 183.92 301.941 183.681 307.492 183.596C307.669 183.568 307.644 183.315 307.492 183.315Z" fill="#03326C"/>
<path d="M253.016 159.769C258.085 160.331 265.434 150.795 267.931 143.593C268.095 143.1 264.129 124.969 263.711 121.284C263.622 120.525 243.563 129.991 243.563 129.991C245.306 134.425 246.557 139.077 247.288 143.846C247.339 144.38 248.15 159.234 253.016 159.769Z" fill="#F7A9A0"/>
<path d="M247.34 144.591C247.34 144.873 247.34 145.224 247.429 145.618C248.116 145.624 248.803 145.562 249.481 145.435C260.772 143.466 262.723 127.459 263.053 121.354L262.673 121.481L261.824 121.805L261.355 121.987L260.721 122.241L260.392 122.381L259.682 122.677L257.287 123.704C257.214 123.744 257.138 123.777 257.059 123.802C256.844 123.9 256.641 123.985 256.438 124.097C254.753 124.829 252.941 125.659 251.23 126.446L250.698 126.686L248.164 127.867L247.53 128.162L247.175 128.331L246.82 128.5L245.895 128.936L245.388 129.161L245.046 129.33C244.932 129.368 244.821 129.42 244.717 129.485L243.652 129.977C245.402 134.408 246.653 139.061 247.378 143.832V144.338V144.577L247.34 144.591Z" fill="#03326C"/>
<path d="M237.949 90.1006C235.756 90.5382 233.734 91.7042 232.15 93.4447C230.566 95.1851 229.495 97.418 229.079 99.8483C227.66 108.372 230.207 116.137 230.878 116.587C231.55 117.037 237.949 90.1006 237.949 90.1006Z" fill="#03326C"/>
<path d="M265.095 97.2319C267.629 105.418 264.385 129.429 259.253 134.957C251.802 142.946 239.257 144.142 233.048 134.113C227.029 124.393 231.781 93.1809 237.508 88.1312C246.011 80.6903 261.382 85.1492 265.095 97.2319Z" fill="#F7A9A0"/>
<path d="M244.173 112.479C244.173 112.479 244.274 112.577 244.261 112.648C244.008 114.251 243.957 116.15 245.199 116.868C245.199 116.868 245.199 116.966 245.199 116.952C243.603 116.46 243.691 113.956 244.173 112.479Z" fill="#03326C"/>
<path d="M245.693 110.988C248.063 111.171 247.569 116.418 245.364 116.249C243.159 116.08 243.704 110.833 245.693 110.988Z" fill="#03326C"/>
<path d="M236.051 111.776C236.051 111.706 235.924 111.776 235.924 111.903C235.823 113.534 235.455 115.391 234.074 115.771V115.869C235.722 115.799 236.19 113.337 236.051 111.776Z" fill="#03326C"/>
<path d="M234.898 109.919C232.566 109.455 231.882 114.673 234.049 115.109C236.216 115.545 236.862 110.313 234.898 109.919Z" fill="#03326C"/>
<path d="M247.784 108.808C247.15 108.541 246.618 108.203 246.022 107.88C245.356 107.647 244.777 107.177 244.375 106.543C244.289 106.317 244.271 106.067 244.323 105.829C244.376 105.59 244.496 105.377 244.666 105.221C245.052 104.974 245.489 104.844 245.934 104.844C246.378 104.844 246.815 104.974 247.201 105.221C248.044 105.598 248.73 106.31 249.127 107.218C249.206 107.431 249.229 107.664 249.192 107.891C249.154 108.117 249.059 108.327 248.917 108.495C248.776 108.662 248.593 108.781 248.392 108.837C248.191 108.892 247.98 108.882 247.784 108.808Z" fill="#03326C"/>
<path d="M233.261 107.064C233.908 106.998 234.551 106.89 235.187 106.741C235.882 106.737 236.555 106.475 237.1 105.995C237.253 105.804 237.344 105.562 237.358 105.307C237.371 105.052 237.307 104.799 237.176 104.589C236.871 104.232 236.487 103.97 236.062 103.829C235.638 103.689 235.187 103.674 234.756 103.787C233.846 103.879 232.998 104.34 232.374 105.081C232.225 105.257 232.129 105.479 232.097 105.717C232.065 105.955 232.1 106.199 232.197 106.415C232.293 106.63 232.447 106.808 232.637 106.924C232.827 107.041 233.045 107.089 233.261 107.064Z" fill="#03326C"/>
<path d="M243.399 122.706C242.964 123.301 242.424 123.792 241.811 124.148C241.199 124.503 240.528 124.716 239.839 124.773C239.233 124.834 238.622 124.796 238.027 124.661C237.914 124.647 237.803 124.619 237.697 124.576L237.38 124.478C237.303 124.453 237.236 124.402 237.188 124.33C237.14 124.259 237.114 124.173 237.114 124.084C237.108 124.033 237.108 123.981 237.114 123.929V123.732C237.203 122.466 237.494 120.582 237.494 120.582C237.063 120.764 234.859 121.566 234.96 120.919C235.63 115.288 236.81 109.746 238.483 104.378C238.483 104.209 238.774 104.279 238.736 104.448C238.153 109.652 236.747 114.716 236.088 119.92C236.873 119.622 237.692 119.447 238.521 119.4C238.673 119.47 237.9 123.043 237.9 123.62C238.815 123.831 239.759 123.835 240.675 123.632C241.592 123.429 242.462 123.023 243.235 122.438C243.399 122.452 243.513 122.579 243.399 122.706Z" fill="#03326C"/>
<path d="M262.698 121.931C260.024 122.157 258.807 113.126 258.643 109.722C258.491 106.712 259.454 97.5551 259.454 96.9222C259.454 96.2892 246.985 102.169 241.092 98.5819C235.2 94.9951 232.222 87.6949 232.755 84.741C233.287 81.7872 242.537 76.3014 249.38 77.5674C256.222 78.8333 263.471 90.6347 263.471 90.6347C262.64 88.9707 261.933 87.2349 261.354 85.4443C261.519 85.1349 265.511 88.145 265.625 91.7881C265.625 91.7881 265.625 87.2448 265.967 87.2448C266.309 87.2448 268.97 91.7881 267.64 94.4184C267.64 94.4184 270.82 99.1586 270.351 103.393C269.882 107.626 265.827 121.65 262.698 121.931Z" fill="#03326C"/>
<path d="M236.911 96.0218C238.555 97.5841 240.4 98.8642 242.385 99.8196C244.66 100.613 247.075 100.772 249.418 100.284C251.764 99.8728 254.036 99.0465 256.147 97.8363C258.009 96.7814 259.745 95.3889 261.684 94.5168C262.166 94.3058 262.521 95.0935 262.178 95.4592C258.497 99.1596 253.841 101.448 248.899 101.986C246.604 102.238 244.291 101.823 242.185 100.782C240.079 99.7415 238.253 98.1107 236.886 96.05C236.886 96.05 236.886 96.0078 236.911 96.0218Z" fill="#03326C"/>
<path d="M259.544 116.854C259.544 116.854 264.321 109.075 267.501 110.946C270.682 112.817 267.159 124.084 263.459 125.659C262.998 125.892 262.5 126.02 261.994 126.036C261.488 126.052 260.984 125.956 260.512 125.753C260.039 125.55 259.608 125.244 259.244 124.854C258.88 124.463 258.59 123.996 258.39 123.479L259.544 116.854Z" fill="#F7A9A0"/>
<path d="M266.425 114.139C266.425 114.139 266.488 114.238 266.425 114.252C263.891 115.461 262.509 118.162 261.584 120.947C261.73 120.654 261.932 120.4 262.176 120.203C262.419 120.006 262.699 119.871 262.995 119.806C263.291 119.742 263.596 119.75 263.888 119.831C264.181 119.911 264.454 120.062 264.689 120.272C264.752 120.272 264.689 120.441 264.613 120.427C264.156 120.271 263.667 120.276 263.213 120.443C262.758 120.609 262.362 120.928 262.079 121.355C261.607 122.076 261.204 122.849 260.875 123.662C260.761 123.929 260.343 123.788 260.431 123.493V123.423C260.355 119.751 262.864 114.561 266.425 114.139Z" fill="#03326C"/>
<path d="M101.603 534.979H223.809V549.326H101.603V534.979Z" fill="#03326C"/>
<path d="M348.803 359.027H234.365V310.05H348.803V359.027Z" fill="#A6A6A6"/>
<path d="M330.111 476.788H234.364V470.655H330.111C334.277 470.651 338.272 468.812 341.218 465.542C344.164 462.272 345.82 457.838 345.824 453.213V201.221C345.827 194.972 348.064 188.98 352.043 184.56C356.023 180.141 361.419 177.654 367.049 177.646H379.961V183.793H367.049C362.887 183.801 358.897 185.639 355.954 188.906C353.011 192.173 351.355 196.601 351.348 201.221V453.255C351.332 459.498 349.087 465.479 345.107 469.889C341.127 474.3 335.735 476.78 330.111 476.788Z" fill="#D1D3D2"/>
<path d="M237.064 540.282H231.539V280.23C231.546 274.603 233.562 269.209 237.147 265.23C240.731 261.251 245.591 259.012 250.66 259.005H348.574V265.152H250.711C248.923 265.146 247.151 265.532 245.497 266.287C243.843 267.042 242.34 268.151 241.072 269.552C239.805 270.952 238.798 272.616 238.111 274.448C237.423 276.281 237.067 278.245 237.064 280.23V540.282Z" fill="#D1D3D2"/>
<path d="M397.082 186.607H362.83V174.412H397.082V186.607Z" fill="#03326C"/>
<path d="M417.268 452.272C417.268 393.195 382.573 345.131 339.971 345.131C297.369 345.131 262.674 393.195 262.674 452.272C262.674 511.349 297.369 559.412 339.971 559.412C382.573 559.412 417.268 511.349 417.268 452.272ZM409.525 452.272C409.525 506.609 378.315 550.818 339.933 550.818C301.55 550.818 270.34 506.609 270.34 452.272C270.34 397.935 301.563 353.726 339.933 353.726C378.302 353.726 409.525 397.935 409.525 452.272Z" fill="#03326C"/>
<path d="M414.467 452.271C414.467 399.904 383.776 357.298 346.04 357.298C308.304 357.298 277.613 399.904 277.613 452.271C277.613 504.639 308.304 547.245 346.04 547.245C383.776 547.245 414.467 504.639 414.467 452.271ZM408.942 452.271C408.942 501.263 380.722 541.112 346.053 541.112C311.383 541.112 283.163 501.263 283.163 452.271C283.163 403.28 311.358 363.431 346.04 363.431C380.722 363.431 408.929 403.28 408.929 452.271H408.942Z" fill="#D1D3D2"/>
<path d="M354.518 452.27C354.518 460.851 349.55 467.743 343.417 467.743C337.284 467.743 332.33 460.794 332.33 452.27C332.33 443.746 337.297 436.798 343.417 436.798C349.538 436.798 354.518 443.69 354.518 452.27Z" fill="#D1D3D2"/>
<path d="M346.979 467.8C340.855 467.8 335.891 460.847 335.891 452.271C335.891 443.695 340.855 436.742 346.979 436.742C353.102 436.742 358.066 443.695 358.066 452.271C358.066 460.847 353.102 467.8 346.979 467.8Z" fill="#D1D3D2"/>
<path d="M233.161 562.351C225.19 562.351 218.728 553.308 218.728 542.152C218.728 530.997 225.19 521.954 233.161 521.954C241.132 521.954 247.594 530.997 247.594 542.152C247.594 553.308 241.132 562.351 233.161 562.351Z" fill="#D1D3D2"/>
<path d="M237.788 562.351C229.817 562.351 223.355 553.308 223.355 542.152C223.355 530.997 229.817 521.954 237.788 521.954C245.759 521.954 252.221 530.997 252.221 542.152C252.221 553.308 245.759 562.351 237.788 562.351Z" fill="#D1D3D2"/>
<path d="M310.028 31.7548C310.522 36.9985 312.318 41.9867 315.217 46.1631C318.116 50.3395 322.003 53.5398 326.445 55.407C330.887 57.2742 335.708 57.7348 340.372 56.7376C345.036 55.7403 349.359 53.3244 352.858 49.7592L365.682 51.841L359.257 39.5473C360.73 35.5417 361.361 31.2159 361.101 26.899C360.842 22.5822 359.699 18.3878 357.759 14.6349C355.82 10.8821 353.135 7.66949 349.909 5.24152C346.683 2.81356 343.001 1.23414 339.142 0.623359C335.284 0.0125807 331.35 0.386533 327.642 1.71677C323.933 3.04701 320.546 5.29851 317.739 8.30007C314.932 11.3016 312.778 14.9742 311.442 19.0385C310.106 23.1028 309.622 27.4518 310.028 31.7548Z" fill="white"/>
<path d="M310.027 31.7543C310.518 37.0022 312.307 41.997 315.197 46.186C316.628 48.2951 318.337 50.1538 320.265 51.6999C324.083 54.8687 328.61 56.8148 333.355 57.3263C334.54 57.4248 335.731 57.4248 336.916 57.3263C338.106 57.2956 339.293 57.1592 340.464 56.9184C345.188 55.9559 349.576 53.5495 353.135 49.9698L352.831 50.0823L365.642 52.2625L366.58 52.4172L366.111 51.503L359.775 39.1812V39.6594C361.272 35.6177 361.918 31.2503 361.665 26.8897C361.412 22.529 360.266 18.2898 358.315 14.4945C356.364 10.6992 353.659 7.44781 350.406 4.98756C347.153 2.5273 343.437 0.923012 339.541 0.296706C335.645 -0.329599 331.672 0.0385773 327.923 1.37323C324.175 2.70788 320.75 4.97386 317.909 7.99882C315.068 11.0238 312.886 14.728 311.529 18.8299C310.172 22.9317 309.675 27.3231 310.077 31.6699L310.027 31.7543ZM310.027 31.7543C309.651 27.4607 310.156 23.1284 311.503 19.0822C312.851 15.036 315.006 11.3809 317.807 8.39075C320.627 5.44425 324.003 3.2337 327.691 1.92041C331.379 0.65038 335.277 0.323381 339.095 0.96392C342.894 1.60105 346.512 3.1883 349.676 5.60569C352.811 8.05266 355.431 11.2247 357.355 14.9033C359.239 18.5897 360.348 22.7008 360.599 26.9297C360.837 31.1621 360.222 35.4001 358.8 39.3359L358.711 39.5891L358.825 39.8141L365.275 52.0937L365.744 51.3482L352.907 49.3509H352.73L352.603 49.4775C349.181 53.0463 344.928 55.4823 340.324 56.5104C339.18 56.7683 338.019 56.9282 336.852 56.9887C335.684 57.0801 334.511 57.0801 333.342 56.9887C331.003 56.7851 328.7 56.2218 326.5 55.3148C324.287 54.4239 322.203 53.1776 320.316 51.6155C319.369 50.8398 318.464 50.0038 317.604 49.1117C316.778 48.1855 316.003 47.2037 315.285 46.1719C312.362 42 310.542 37.0083 310.027 31.7543Z" fill="#03326C"/>
<path d="M321.228 29.6587C321.226 30.3408 321.406 31.0085 321.745 31.5771C322.085 32.1456 322.569 32.5895 323.136 32.8525C323.703 33.1155 324.328 33.1858 324.931 33.0544C325.534 32.923 326.088 32.5959 326.524 32.1145C326.959 31.6331 327.256 31.0191 327.377 30.3502C327.498 29.6814 327.437 28.9877 327.202 28.3572C326.968 27.7267 326.57 27.1876 326.059 26.8083C325.548 26.429 324.948 26.2266 324.333 26.2266C323.512 26.2266 322.724 26.5877 322.142 27.2309C321.56 27.8742 321.232 28.7471 321.228 29.6587Z" fill="#03326C"/>
<path d="M332.353 29.6587C332.351 30.3408 332.531 31.0085 332.87 31.5771C333.21 32.1456 333.694 32.5895 334.261 32.8525C334.828 33.1155 335.453 33.1858 336.056 33.0544C336.659 32.923 337.213 32.5959 337.649 32.1145C338.084 31.6331 338.381 31.0191 338.502 30.3502C338.623 29.6814 338.562 28.9877 338.327 28.3572C338.093 27.7267 337.695 27.1876 337.184 26.8083C336.673 26.429 336.073 26.2266 335.458 26.2266C334.637 26.2266 333.849 26.5877 333.267 27.2309C332.685 27.8742 332.357 28.7471 332.353 29.6587Z" fill="#03326C"/>
<path d="M343.504 29.6587C343.501 30.3408 343.681 31.0085 344.021 31.5771C344.36 32.1456 344.844 32.5895 345.411 32.8525C345.979 33.1155 346.603 33.1858 347.206 33.0544C347.809 32.923 348.364 32.5959 348.799 32.1145C349.235 31.6331 349.531 31.0191 349.652 30.3502C349.773 29.6814 349.712 28.9877 349.478 28.3572C349.243 27.7267 348.845 27.1876 348.334 26.8083C347.824 26.429 347.223 26.2266 346.608 26.2266C345.787 26.2266 344.999 26.5877 344.418 27.2309C343.836 27.8742 343.507 28.7471 343.504 29.6587Z" fill="#03326C"/>
</svg>
