<svg width="485" height="561" viewBox="0 0 485 561" fill="none" xmlns="http://www.w3.org/2000/svg">
<path d="M437.068 560.606C299.848 560.083 145.917 560.079 8.69724 560.606C145.917 561.133 299.849 561.129 437.068 560.606Z" fill="#03326C"/>
<path d="M347.117 540.42C350.616 542.619 354.481 545.133 358.835 544.613C362.854 544.133 367.212 542.469 369.053 538.72C369.576 537.651 369.724 536.889 368.337 536.669C366.223 536.335 363.778 537.388 361.803 537.978C359.241 538.743 356.686 539.35 354.016 539.64C352.158 539.844 350.279 539.862 348.414 540.021C348.18 540.037 347.946 540.059 347.711 540.087C347.624 540.094 347.533 540.102 347.443 540.113C347.408 540.097 347.373 540.076 347.34 540.057C347.269 540.02 347.2 540.02 347.146 540.046C347.123 540.056 347.1 540.07 347.082 540.089C346.996 540.177 346.979 540.334 347.117 540.42Z" fill="#FF781C"/>
<path d="M347.082 540.089C350.256 541.862 353.563 543.972 357.359 543.371C359.115 543.092 360.841 542.436 362.41 541.641C363.129 541.28 365.279 540.21 365.25 539.27C365.196 537.568 358.339 540.393 357.523 540.571C354.458 541.231 351.368 540.88 348.415 540.021C348.181 540.036 347.946 540.059 347.711 540.087C349.776 540.77 351.942 541.176 354.127 541.181C357.158 541.191 359.581 540.012 362.431 539.251C363.047 539.085 364.988 538.456 364.916 539.509C364.869 540.202 362.78 541.259 362.33 541.485C360.84 542.236 359.204 542.853 357.545 543.137C353.722 543.797 350.392 541.76 347.146 540.046C347.123 540.056 347.101 540.07 347.082 540.089Z" fill="white"/>
<path d="M343.835 541.382C343.784 541.532 343.727 541.68 343.672 541.832C343.669 541.836 343.67 541.84 343.669 541.847C343.654 541.888 343.665 541.928 343.689 541.955C343.741 542.021 343.853 542.042 343.92 541.994C343.947 541.979 343.965 541.95 343.974 541.912C343.98 541.892 343.985 541.872 343.99 541.848L344.024 541.707L344.038 541.702C344.048 541.691 344.063 541.679 344.073 541.668C346.129 539.751 347.855 537.518 349.946 535.618C351.94 533.806 354.065 532.125 355.91 530.164C357.074 528.929 362.471 522.468 358.711 521.479C357.044 521.041 354.828 522.466 353.546 523.344C351.827 524.521 350.387 526.038 349.211 527.72C346.302 531.881 345.498 536.738 343.835 541.382Z" fill="#FF781C"/>
<path d="M343.666 541.83C343.711 541.712 343.757 541.594 343.803 541.461C343.818 541.431 343.818 541.416 343.834 541.387C343.941 541.209 344.063 541.032 344.17 540.869C345.47 537.884 346.618 534.824 348.27 532.001C349.234 530.375 350.351 528.838 351.758 527.523C352.232 527.064 354.558 524.877 355.414 525.468C355.98 525.852 355.384 527.035 355.2 527.434C354.435 529.119 352.905 530.42 351.651 531.75C349.065 534.484 346.74 537.426 344.614 540.485C344.507 540.692 344.415 540.914 344.323 541.135C344.247 541.313 344.155 541.49 344.078 541.668L343.987 541.845C343.971 541.904 343.941 541.948 343.925 541.993C343.864 542.022 343.788 542.022 343.742 542.008C343.726 541.978 343.711 541.963 343.696 541.948C343.757 541.815 343.818 541.668 343.879 541.535C343.803 541.638 343.742 541.727 343.666 541.83ZM348.913 534.558C350.045 533.198 351.238 531.912 352.477 530.641C353.165 529.917 353.869 529.208 354.435 528.38C354.863 527.759 356.24 525.32 354.068 526.059C352.477 526.591 350.84 528.749 349.922 529.991C348.882 531.366 348.041 532.873 347.276 534.41C346.419 536.169 345.685 537.972 344.92 539.761C346.159 537.958 347.49 536.228 348.913 534.558Z" fill="white"/>
<path d="M336.01 549.741L336.012 549.742C336.066 549.789 336.126 549.83 336.135 549.834C339.503 551.574 343.673 554.4 347.693 553.891C350.662 553.514 354.533 551.611 355.509 548.654C356.603 545.318 350.346 546.449 348.742 546.666C344.653 547.223 336.109 549.438 336.045 549.541C336.02 549.554 335.993 549.561 335.968 549.574L335.956 549.581C335.895 549.614 335.947 549.683 336.01 549.741Z" fill="#FF781C"/>
<path d="M335.956 549.589C336.216 549.575 336.476 549.575 336.737 549.575C339.689 549.515 342.657 549.338 345.609 549.013C346.344 548.924 351.989 547.904 351.851 549.353C351.759 550.225 349.679 550.92 348.99 551.171C347.766 551.599 346.466 551.836 345.181 551.866C342.183 551.91 339.368 550.654 336.507 549.855C336.37 549.811 336.232 549.781 336.094 549.737H336.002C335.956 549.693 335.926 549.663 335.926 549.634C335.926 549.619 335.941 549.604 335.956 549.589ZM343.544 551.54C344.86 551.688 346.206 551.614 347.506 551.333C348.363 551.156 351.484 550.387 351.453 549.308C351.438 548.747 351.071 548.835 350.398 548.776C350.092 548.747 349.77 548.747 349.465 548.762C348.7 548.791 347.935 548.895 347.185 548.998C345.854 549.175 344.539 549.308 343.193 549.427C341.005 549.604 338.817 549.708 336.63 549.737C338.955 550.299 341.173 551.274 343.544 551.54Z" fill="white"/>
<path d="M334.087 539.765C332.67 543.863 332.608 548.322 333.805 552.475C333.815 552.504 333.828 552.528 333.845 552.544C333.895 552.603 333.979 552.611 334.05 552.582C334.118 552.554 334.171 552.485 334.146 552.391C334.122 552.307 334.104 552.219 334.081 552.133C336.212 547.525 338.272 542.909 340.495 538.337C341.019 537.261 344.217 530.325 341.509 530.183C339.836 530.096 338.104 532.693 337.256 533.819C335.892 535.626 334.822 537.646 334.087 539.765Z" fill="#FF781C"/>
<path d="M333.72 549.664C333.72 547.742 333.95 545.806 334.378 543.959C334.776 542.303 335.342 540.707 336.076 539.155C336.749 537.736 337.637 535.755 338.86 534.706C339.197 534.41 339.61 534.144 339.87 534.647C340.375 535.593 338.799 538.8 338.402 539.717C336.795 543.5 335.571 547.329 334.332 551.216C334.225 551.541 334.118 551.881 334.011 552.206C334.026 552.339 334.042 552.457 334.042 552.576C333.98 552.62 333.889 552.605 333.843 552.546C333.858 552.517 333.858 552.472 333.873 552.443C333.858 552.28 333.827 552.103 333.827 551.94C333.751 551.186 333.72 550.432 333.72 549.664ZM333.996 551.955C334.026 551.807 334.057 551.674 334.103 551.541C334.883 548.481 335.816 545.437 337.009 542.495C337.606 541.003 338.31 539.554 338.86 538.046C339.09 537.396 339.809 535.608 339.487 535.061C339.182 534.529 338.784 535.164 338.508 535.489C338.31 535.741 338.004 536.214 337.851 536.45C334.852 541.106 333.613 546.368 333.98 551.704C333.98 551.792 333.996 551.866 333.996 551.955Z" fill="white"/>
<path d="M328.445 559.995H329.332C330.785 557.852 332.224 555.709 333.723 553.61C334.61 552.369 335.482 551.171 336.415 549.989V549.974C336.446 549.945 336.476 549.9 336.507 549.856C336.584 549.767 336.66 549.664 336.736 549.575C336.813 549.472 336.905 549.368 336.981 549.265C339.092 546.649 341.433 544.239 344.355 542.318C345.319 541.697 346.282 541.106 347.292 540.529H347.307C347.399 540.485 347.491 540.426 347.583 540.367H347.598C347.613 540.352 347.644 540.337 347.675 540.337C347.675 540.337 347.69 540.337 347.69 540.323C347.766 540.278 347.873 540.219 347.965 540.16H347.98C348.057 540.116 348.118 540.086 348.21 540.042C351.316 538.357 354.574 536.894 357.756 535.371C358.658 534.942 359.561 534.499 360.463 534.056H360.479C360.54 534.041 360.601 534.011 360.647 533.982C360.708 533.952 360.785 533.923 360.846 533.878C364.869 531.942 368.862 529.947 372.931 528.114C373.084 528.04 372.947 527.833 372.794 527.892C370.086 529.104 367.332 530.242 364.594 531.41C364.227 531.558 363.86 531.72 363.492 531.868C362.758 532.178 362.039 532.489 361.32 532.799H361.305C359.867 533.405 358.444 534.041 357.021 534.691C353.029 536.509 348.914 538.312 345.15 540.603C345.15 540.603 345.135 540.603 345.135 540.618C344.86 540.781 344.6 540.943 344.324 541.135C344.141 541.239 343.972 541.357 343.804 541.461C343.605 541.594 343.406 541.727 343.207 541.86C339.765 544.239 337.18 547.255 334.824 550.536C334.656 550.758 334.488 550.994 334.335 551.216C334.258 551.319 334.182 551.438 334.105 551.541C334.059 551.6 334.029 551.659 333.983 551.704C333.937 551.792 333.876 551.851 333.83 551.94C333.784 551.999 333.753 552.044 333.707 552.103C333.57 552.31 333.447 552.502 333.294 552.709C331.811 554.896 330.357 557.098 328.904 559.316C328.751 559.537 328.598 559.774 328.445 559.995Z" fill="#FF781C"/>
<path d="M372.309 532.114C375.545 530.828 380.825 527.364 379.74 523.337C379.306 521.717 377.894 520.759 376.168 520.898C374.168 521.062 372.397 522.539 370.998 523.801C367.257 527.166 363.875 530.846 359.884 533.956C359.843 533.964 359.545 534.222 359.455 534.288C359.372 534.353 359.487 534.467 359.568 534.405C359.7 534.305 359.829 534.202 359.96 534.102C364.054 533.76 368.47 533.639 372.309 532.114Z" fill="#FF781C"/>
<path d="M359.82 533.997C359.82 533.982 359.835 533.967 359.85 533.952C359.881 533.938 359.896 533.923 359.927 533.923L359.942 533.908C361.181 533.302 362.344 532.607 363.491 531.868C365.862 530.316 368.05 528.528 370.207 526.71C371.033 526 374.98 522.468 375.5 525.099C375.714 526.193 374.842 527.405 374.184 528.232C373.144 529.548 371.798 530.612 370.314 531.44C367.361 533.08 363.996 533.672 360.646 533.982L360.187 534.026C360.141 534.056 360.11 534.071 360.064 534.086C360.064 534.1 360.049 534.1 360.049 534.1C360.034 534.115 359.988 534.13 359.957 534.145C359.942 534.145 359.927 534.159 359.912 534.145C359.835 534.145 359.789 534.071 359.804 534.012L359.82 533.997ZM360.845 533.879C363.598 533.553 366.382 533.051 368.922 531.927C370.238 531.351 371.492 530.583 372.578 529.651C373.052 529.237 373.511 528.779 373.909 528.292C374.2 527.922 374.49 527.538 374.72 527.124C375.24 526.237 375.469 525.055 374.98 524.655C374.399 524.153 373.94 524.389 373.037 524.877C372.731 525.04 372.441 525.232 372.165 525.424C371.461 525.912 370.804 526.459 370.161 527.02C369.09 527.922 368.019 528.838 366.903 529.71C366.153 530.287 365.373 530.863 364.593 531.41C363.231 532.341 361.808 533.199 360.324 533.952C360.493 533.938 360.676 533.908 360.845 533.879Z" fill="white"/>
<path d="M83.8775 540.42C80.3786 542.62 76.5134 545.133 72.1588 544.613C68.14 544.134 63.7817 542.469 61.9415 538.721C61.4179 537.651 61.2699 536.889 62.6567 536.67C64.7706 536.335 67.2165 537.388 69.191 537.978C71.7536 538.744 74.3082 539.35 76.9786 539.641C78.8364 539.844 80.7148 539.862 82.5798 540.022C82.8136 540.037 83.0482 540.059 83.2832 540.088C83.3699 540.095 83.4614 540.102 83.5512 540.114C83.5858 540.097 83.6214 540.077 83.6545 540.058C83.7251 540.021 83.7942 540.021 83.848 540.047C83.8714 540.057 83.8937 540.071 83.9124 540.09C83.9976 540.178 84.0147 540.335 83.8775 540.42Z" fill="#FF781C"/>
<path d="M83.9121 540.09C80.7377 541.863 77.4313 543.973 73.6347 543.372C71.879 543.093 70.1536 542.437 68.5837 541.642C67.8647 541.281 65.7155 540.211 65.7444 539.271C65.7984 537.569 72.6546 540.394 73.4714 540.572C76.5356 541.232 79.626 540.881 82.5795 540.022C82.8134 540.037 83.0479 540.06 83.2829 540.088C81.2178 540.771 79.0522 541.177 76.8671 541.182C73.8362 541.192 71.4128 540.013 68.5633 539.252C67.9467 539.086 66.0064 538.457 66.0778 539.51C66.1247 540.203 68.2143 541.26 68.6637 541.486C70.1545 542.237 71.7904 542.854 73.4495 543.138C77.2718 543.797 80.6021 541.761 83.8477 540.047C83.8711 540.057 83.8935 540.071 83.9121 540.09Z" fill="white"/>
<path d="M87.1615 541.382C87.2126 541.532 87.269 541.68 87.3244 541.832C87.3275 541.836 87.3264 541.84 87.3269 541.847C87.3421 541.888 87.3316 541.928 87.3073 541.955C87.255 542.021 87.1434 542.042 87.0759 541.994C87.0495 541.979 87.0314 541.95 87.0219 541.912C87.0165 541.892 87.0108 541.872 87.0063 541.848L86.9719 541.707L86.9582 541.702C86.9481 541.691 86.9338 541.679 86.9236 541.668C84.8677 539.751 83.1417 537.518 81.0507 535.618C79.0559 533.806 76.9313 532.125 75.0859 530.164C73.9221 528.929 68.5249 522.468 72.2856 521.479C73.9527 521.041 76.1686 522.466 77.4505 523.344C79.1689 524.521 80.6094 526.038 81.7858 527.72C84.6947 531.881 85.4985 536.738 87.1615 541.382Z" fill="#FF781C"/>
<path d="M87.1141 541.535C87.1753 541.668 87.2363 541.816 87.2978 541.949C87.2825 541.964 87.2672 541.979 87.2519 542.008C87.206 542.023 87.1295 542.023 87.0683 541.993C87.053 541.949 87.0224 541.905 87.0071 541.845L86.9152 541.668C86.8387 541.491 86.747 541.313 86.6706 541.136C86.5788 540.914 86.4869 540.693 86.3797 540.486C84.2535 537.426 81.9282 534.485 79.3428 531.75C78.0884 530.42 76.5585 529.119 75.7937 527.434C75.6101 527.035 75.0135 525.853 75.5795 525.469C76.436 524.877 78.7615 527.065 79.2357 527.523C80.6429 528.839 81.7599 530.376 82.7236 532.002C84.3758 534.825 85.5232 537.884 86.8235 540.87C86.9306 541.033 87.053 541.21 87.1601 541.387C87.1753 541.417 87.1754 541.432 87.1907 541.461C87.2363 541.594 87.2825 541.712 87.3281 541.831C87.2519 541.727 87.1907 541.638 87.1141 541.535ZM86.0739 539.761C85.309 537.973 84.5747 536.17 83.7181 534.411C82.9531 532.874 82.1117 531.366 81.0715 529.992C80.1534 528.75 78.5167 526.592 76.9257 526.06C74.7535 525.321 76.1302 527.76 76.5585 528.38C77.1246 529.208 77.8282 529.918 78.5166 530.642C79.7558 531.913 80.9491 533.199 82.0811 534.559C83.5037 536.229 84.8348 537.958 86.0739 539.761Z" fill="white"/>
<path d="M94.9868 549.742L94.9847 549.743C94.9313 549.79 94.8708 549.83 94.8625 549.835C91.4942 551.574 87.3238 554.401 83.3044 553.891C80.3351 553.515 76.4636 551.612 75.4878 548.655C74.3945 545.318 80.6508 546.449 82.2554 546.666C86.3439 547.224 94.8885 549.439 94.952 549.542C94.9771 549.555 95.0039 549.561 95.0288 549.574L95.0414 549.581C95.102 549.615 95.0503 549.683 94.9868 549.742Z" fill="#FF781C"/>
<path d="M95.0723 549.635C95.0723 549.664 95.0419 549.694 94.996 549.738H94.9042C94.7665 549.782 94.6288 549.812 94.4912 549.856C91.6303 550.654 88.8156 551.911 85.8172 551.866C84.5321 551.837 83.2318 551.6 82.008 551.172C81.3197 550.92 79.2391 550.226 79.1473 549.354C79.0094 547.905 84.6544 548.925 85.3889 549.014C88.3414 549.339 91.3092 549.516 94.2617 549.576C94.5218 549.576 94.7818 549.576 95.0419 549.59C95.0572 549.605 95.0723 549.62 95.0723 549.635ZM94.3688 549.738C92.1811 549.709 89.9935 549.605 87.8057 549.428C86.4597 549.309 85.1441 549.176 83.8131 548.999C83.0636 548.896 82.2987 548.792 81.5337 548.763C81.2278 548.748 80.9065 548.748 80.6006 548.777C79.9275 548.836 79.5602 548.748 79.5451 549.309C79.5145 550.388 82.6352 551.157 83.4919 551.334C84.7923 551.615 86.1385 551.689 87.454 551.541C89.8251 551.275 92.0435 550.3 94.3688 549.738Z" fill="white"/>
<path d="M96.9056 539.766C98.3227 543.864 98.3848 548.323 97.1878 552.475C97.1781 552.504 97.1652 552.528 97.1478 552.545C97.0978 552.603 97.0135 552.612 96.9432 552.582C96.8747 552.555 96.8216 552.485 96.8463 552.391C96.8705 552.307 96.8892 552.22 96.912 552.133C94.7809 547.525 92.7208 542.91 90.4979 538.338C89.9738 537.261 86.7759 530.325 89.4841 530.183C91.1564 530.097 92.8884 532.693 93.7369 533.819C95.1012 535.627 96.1712 537.647 96.9056 539.766Z" fill="#FF781C"/>
<path d="M97.1645 551.941C97.1645 552.103 97.1339 552.281 97.1186 552.443C97.1339 552.473 97.1339 552.517 97.1492 552.547C97.1033 552.606 97.0115 552.621 96.9503 552.576C96.9503 552.458 96.9656 552.34 96.9808 552.207C96.8739 551.881 96.7668 551.541 96.6597 551.216C95.4205 547.329 94.1967 543.501 92.5902 539.717C92.1926 538.801 90.617 535.593 91.1218 534.647C91.3819 534.145 91.7949 534.411 92.1315 534.706C93.3551 535.756 94.2426 537.736 94.9157 539.155C95.6498 540.707 96.2158 542.304 96.6138 543.959C97.0421 545.807 97.2715 547.743 97.2715 549.664C97.2715 550.433 97.241 551.187 97.1645 551.941ZM97.0115 551.704C97.3787 546.368 96.1396 541.106 93.1412 536.45C92.9881 536.214 92.682 535.741 92.4834 535.49C92.2078 535.165 91.8102 534.529 91.5043 535.061C91.183 535.608 91.902 537.397 92.1315 538.047C92.682 539.554 93.3859 541.003 93.9825 542.496C95.1756 545.437 96.109 548.482 96.889 551.541C96.935 551.675 96.9656 551.808 96.9962 551.955C96.9962 551.867 97.0115 551.793 97.0115 551.704Z" fill="white"/>
<path d="M102.551 559.995H101.664C100.21 557.852 98.7721 555.709 97.2729 553.61C96.3857 552.369 95.5137 551.171 94.5805 549.989V549.974C94.5499 549.945 94.5194 549.9 94.4888 549.856C94.4121 549.767 94.3358 549.664 94.2593 549.575C94.1828 549.472 94.091 549.368 94.0145 549.265C91.9034 546.649 89.5629 544.239 86.641 542.318C85.6771 541.697 84.7134 541.106 83.7035 540.529H83.6885C83.5964 540.485 83.5047 540.426 83.4129 540.367H83.3977C83.3824 540.352 83.3518 540.337 83.3211 540.337C83.3211 540.337 83.3059 540.337 83.3059 540.323C83.2294 540.278 83.1222 540.219 83.0304 540.16H83.0153C82.9386 540.116 82.8776 540.086 82.7858 540.042C79.6802 538.357 76.4219 536.894 73.2399 535.371C72.3374 534.942 71.4347 534.499 70.5322 534.056H70.5169C70.4557 534.041 70.3945 534.011 70.3486 533.982C70.2874 533.952 70.2108 533.923 70.1497 533.878C66.1264 531.942 62.1336 529.947 58.0643 528.114C57.9114 528.04 58.049 527.833 58.202 527.892C60.9098 529.104 63.6634 530.242 66.4016 531.41C66.7686 531.558 67.136 531.72 67.5032 531.868C68.2374 532.178 68.9565 532.489 69.6755 532.799H69.6908C71.1288 533.405 72.5515 534.041 73.9742 534.691C77.9668 536.509 82.0821 538.312 85.8454 540.603C85.8454 540.603 85.8607 540.603 85.8607 540.618C86.1361 540.781 86.3962 540.943 86.6716 541.135C86.8549 541.239 87.0233 541.357 87.1917 541.461C87.3905 541.594 87.5894 541.727 87.7883 541.86C91.2303 544.239 93.8157 547.255 96.1716 550.536C96.3397 550.758 96.5079 550.994 96.6611 551.216C96.7376 551.319 96.8141 551.438 96.8904 551.541C96.9364 551.6 96.967 551.659 97.0129 551.704C97.0588 551.792 97.12 551.851 97.1659 551.94C97.2118 551.999 97.2424 552.044 97.2883 552.103C97.426 552.31 97.5483 552.502 97.7013 552.709C99.185 554.896 100.639 557.098 102.092 559.316C102.245 559.537 102.398 559.774 102.551 559.995Z" fill="#FF781C"/>
<path d="M58.6853 532.114C55.4488 530.829 50.1689 527.365 51.2539 523.338C51.6886 521.718 53.1007 520.759 54.8267 520.898C56.8265 521.063 58.5971 522.54 59.9966 523.801C63.7373 527.166 67.1188 530.847 71.1098 533.956C71.1512 533.964 71.4492 534.222 71.5398 534.289C71.6226 534.353 71.5072 534.468 71.4258 534.406C71.2946 534.305 71.1653 534.203 71.0339 534.102C66.9399 533.761 62.5239 533.64 58.6853 532.114Z" fill="#FF781C"/>
<path d="M71.1885 534.012C71.2038 534.071 71.1579 534.145 71.0812 534.145C71.0662 534.159 71.0509 534.145 71.0356 534.145C71.005 534.13 70.9591 534.115 70.9438 534.1C70.9438 534.1 70.9285 534.1 70.9285 534.086C70.8824 534.071 70.852 534.056 70.8061 534.026L70.3472 533.982C66.9968 533.672 63.6313 533.08 60.6788 531.44C59.1949 530.612 57.8488 529.548 56.8084 528.232C56.1507 527.405 55.2786 526.193 55.4926 525.099C56.013 522.468 59.9598 526 60.7859 526.71C62.9428 528.528 65.1306 530.316 67.5018 531.868C68.6491 532.607 69.8118 533.302 71.0509 533.908L71.0662 533.923C71.0968 533.923 71.1121 533.938 71.1427 533.952C71.1579 533.967 71.1731 533.982 71.1731 533.997L71.1885 534.012ZM70.6684 533.952C69.1845 533.199 67.7618 532.341 66.4002 531.41C65.6198 530.863 64.8399 530.287 64.0901 529.71C62.9735 528.838 61.9025 527.922 60.8318 527.02C60.1893 526.459 59.5315 525.912 58.8278 525.424C58.5522 525.232 58.2616 525.04 57.9559 524.877C57.0532 524.389 56.5943 524.153 56.013 524.655C55.5235 525.055 55.7529 526.237 56.273 527.124C56.5025 527.538 56.7931 527.922 57.0838 528.292C57.4815 528.779 57.9406 529.237 58.4148 529.651C59.5008 530.583 60.7552 531.351 62.071 531.927C64.6104 533.051 67.3947 533.553 70.1483 533.879C70.3164 533.908 70.4999 533.938 70.6684 533.952Z" fill="white"/>
<path d="M322.492 505.16C322.967 508.861 323.699 512.526 324.474 516.177C324.909 518.248 325.374 520.314 325.807 522.393C326.285 524.677 326.987 527.004 326.347 529.309L326.334 529.314C326.31 529.335 326.306 529.629 326.309 529.633C326.317 529.65 326.326 529.663 326.336 529.673C326.45 529.821 326.755 529.821 326.831 529.588C326.846 529.535 326.858 529.484 326.873 529.435C326.884 529.418 326.899 529.403 326.911 529.386C327.314 528.86 327.573 527.851 327.737 527.467C328.484 525.727 329.107 523.931 329.64 522.116C330.734 518.401 331.398 514.566 331.503 510.7C331.598 507.243 331.239 503.773 330.39 500.416C329.707 497.727 328.736 493.718 326.662 491.661C324.781 489.803 323.217 492.781 322.675 494.289C321.455 497.713 322.043 501.657 322.492 505.16Z" fill="#FF781C"/>
<path d="M325.923 497.306C327.32 497.306 328.335 501.665 328.833 503.549C329.625 506.515 329.999 509.568 330.025 512.629C330.079 518.14 328.966 523.566 327.133 528.76C327.062 528.966 326.991 529.181 326.911 529.387C326.902 529.405 326.884 529.422 326.875 529.439C326.857 529.482 326.848 529.533 326.83 529.585C326.759 529.817 326.448 529.826 326.332 529.671C326.421 529.216 326.492 528.768 326.546 528.312C326.599 527.9 326.644 527.496 326.67 527.091C327.053 522.663 326.394 518.132 325.816 513.738C325.14 508.579 324.072 497.315 325.923 497.306ZM326.928 527.96C326.857 528.562 326.759 529.155 326.644 529.74C326.786 529.31 326.928 528.88 327.062 528.45C328.53 523.824 329.554 519.069 329.696 514.219C329.785 511.502 329.589 508.768 329.082 506.085C328.806 504.641 328.45 503.222 327.996 501.829C327.801 501.244 326.786 497.598 325.923 497.779C325.317 497.908 325.175 501.193 325.166 501.261C325.131 501.915 325.131 502.577 325.14 503.239C325.158 504.598 325.255 505.956 325.371 507.306C325.638 510.238 326.074 513.162 326.439 516.085C326.928 519.981 327.4 524.039 326.928 527.96Z" fill="white"/>
<path d="M300.494 515.382C303.059 520.216 307.378 523.918 311.84 527.091C314.233 528.789 316.705 530.379 319.134 532.021C321.17 533.395 323.633 534.852 325.433 536.704C325.513 536.782 325.596 536.867 325.673 536.955C326.176 537.498 326.619 538.077 326.979 538.696C327.011 538.744 327.053 538.768 327.099 538.77C327.126 538.844 327.149 538.913 327.184 538.984C327.204 539.034 327.288 539.025 327.282 538.963C327.276 538.887 327.26 538.8 327.254 538.724L327.25 538.704C327.294 538.653 327.308 538.588 327.265 538.519C327.255 538.494 327.237 538.468 327.22 538.441C327.21 538.364 327.201 538.283 327.188 538.204C326.457 532.553 322.367 526.844 318.909 522.493C315.469 518.162 311.183 514.297 305.842 512.308C304.498 511.811 301.447 510.434 300.082 511.49C298.834 512.454 299.948 514.358 300.494 515.382Z" fill="#FF781C"/>
<path d="M304.458 515.406C305.677 514.228 309.263 517.134 310.162 517.813C312.894 519.868 315.271 522.319 317.585 524.787C321.376 528.854 324.758 533.084 327.062 538.037V538.046C327.107 538.097 327.143 538.149 327.187 538.201C327.205 538.287 327.214 538.364 327.223 538.441C327.24 538.467 327.258 538.493 327.267 538.519C327.312 538.588 327.294 538.656 327.249 538.708C327.187 538.639 327.134 538.57 327.072 538.51C326.627 537.977 326.155 537.461 325.674 536.954C325.594 536.868 325.514 536.782 325.434 536.704C322.088 533.222 318.136 530.29 314.336 527.237C311.702 525.113 309.13 522.861 306.95 520.298C306.389 519.645 303.434 516.395 304.458 515.406ZM305.579 517.994C308.605 522.843 313.847 526.386 318.297 529.92C321.314 532.302 324.268 534.787 326.742 537.667C324.508 533.291 321.296 529.353 317.976 525.75C316.063 523.669 314.096 521.614 311.951 519.757C310.803 518.751 309.593 517.762 308.293 516.928C307.706 516.549 306.531 515.844 305.819 515.638C304.119 515.156 305.063 517.16 305.579 517.994Z" fill="white"/>
<path d="M327.794 550.207C327.84 550.292 327.946 550.344 328.054 550.348C328.031 550.381 328.01 550.407 327.988 550.436C327.954 550.482 327.97 550.53 328.003 550.556C328.035 550.589 328.088 550.597 328.128 550.556C332.87 545.896 337.438 540.233 339.799 534.058C340.795 531.454 341.413 528.71 341.492 525.929C341.545 524.028 341.65 520.2 339.967 518.813C336.577 516.031 333.489 527.845 333.03 529.627C332.189 532.874 331.636 536.182 330.863 539.444C330.013 543.014 328.897 546.516 327.785 550.016C327.761 550.09 327.766 550.156 327.794 550.207Z" fill="#FF781C"/>
<path d="M327.792 550.205C327.978 549.904 328.156 549.603 328.326 549.293C331.245 544.298 333.158 539.147 334.431 533.42C335.045 530.66 335.588 527.788 336.682 525.157C336.958 524.503 337.804 521.984 338.925 523.257C339.503 523.919 339.023 528.691 338.791 529.92C338.258 532.732 337.261 535.449 336.041 538.038C334.012 542.354 331.369 546.516 328.272 550.23C328.183 550.342 328.094 550.454 328.005 550.557C327.97 550.531 327.952 550.48 327.987 550.437C328.005 550.411 328.032 550.385 328.05 550.351C327.943 550.342 327.836 550.291 327.792 550.205ZM334.671 540.05C336.006 537.539 337.163 534.908 337.928 532.173C338.231 531.09 338.471 529.981 338.64 528.863C338.765 527.986 338.88 527.1 338.872 526.223C338.854 524.065 338.676 523.506 338.302 523.429C338.071 523.386 337.75 523.618 337.092 524.908C336.673 525.725 336.38 526.653 336.139 527.53C335.792 528.803 335.49 530.084 335.205 531.374C334.626 533.945 334.084 536.533 333.309 539.052C332.215 542.655 330.648 546.172 328.601 549.379C330.871 546.43 332.927 543.352 334.671 540.05Z" fill="white"/>
<path d="M312.585 538.879C313.038 541.165 314.301 543.255 315.695 545.124C318.507 548.879 322.106 552 325.18 555.549C325.638 556.079 326.086 556.618 326.52 557.173C326.564 557.235 326.919 558.019 326.914 557.953C326.914 557.938 326.859 557.64 326.758 557.136L326.755 557.132C326.261 554.645 324.645 547.137 322.629 543.296C321.388 540.935 319.946 538.513 318.138 536.508C317.267 535.556 315.221 533.496 313.679 533.946C312.021 534.431 312.346 537.686 312.585 538.879Z" fill="#FF781C"/>
<path d="M315.09 537.359C316.737 536.37 320.982 543.696 321.551 544.642C323.661 548.15 325.289 551.899 326.393 555.811C326.526 556.25 326.642 556.688 326.758 557.135C326.856 557.643 326.918 557.935 326.918 557.952C326.891 557.952 326.562 557.239 326.517 557.17C326.446 557.075 326.366 556.981 326.295 556.886C325.93 556.43 325.556 555.983 325.182 555.553C323.34 552.888 321.445 550.248 319.656 547.54C318.365 545.588 317.182 543.584 316.23 541.452C316.016 540.97 314.369 537.789 315.09 537.359ZM315.562 539.422C317.903 545.794 322.681 550.815 326.33 556.473C326.393 556.568 326.446 556.654 326.509 556.748C326.455 556.585 326.411 556.413 326.357 556.25C325.36 553.034 324.088 549.921 322.486 546.946C321.516 545.14 320.421 543.386 319.229 541.701C318.597 540.815 317.956 539.775 317.199 538.975C316.861 538.614 315.891 537.66 315.562 537.823C315.09 538.047 315.411 539.001 315.562 539.422Z" fill="white"/>
<path d="M296.058 486.288C300.949 497.146 313.787 502.204 319.351 512.672C319.362 512.694 319.37 512.71 319.378 512.727C319.548 513.046 319.709 513.37 319.865 513.701C319.942 513.86 320.147 513.851 320.235 513.756C320.276 513.712 320.29 513.65 320.256 513.575C320.223 513.497 320.183 513.416 320.141 513.34C319.273 506.811 316.5 500.089 313.272 494.331C310.46 489.325 306.612 484.643 301.28 482.007C299.967 481.354 297.404 479.979 295.932 481.057C294.372 482.197 295.454 484.95 296.058 486.288Z" fill="#FF781C"/>
<path d="M300.459 486.755C301.082 486.308 302.026 486.85 302.56 487.116C303.895 487.769 305.141 488.629 306.271 489.567C308.62 491.493 310.533 493.866 312.189 496.368C314.966 500.582 317.529 505.207 319.166 510.031C319.54 511.123 319.869 512.224 320.136 513.342C320.172 513.479 320.199 513.617 320.234 513.754C320.145 513.849 319.941 513.858 319.861 513.703C319.718 513.376 319.558 513.075 319.398 512.757C319.389 512.731 319.371 512.706 319.353 512.671C318.383 510.513 317.262 508.441 315.865 506.48C313.72 503.462 311.059 500.805 308.54 498.088C307.543 497.022 298.306 488.277 300.459 486.755ZM301.242 489.266C302.729 491.82 305.034 493.9 307.045 496.067C309.074 498.26 311.13 500.427 313.124 502.645C314.699 504.399 316.149 506.291 317.404 508.294C318.454 509.954 319.362 511.708 320.083 513.522C319.576 511.674 318.917 509.859 318.169 508.088C318.16 508.062 318.151 508.045 318.134 508.028C316.79 504.872 315.117 501.828 313.39 498.896C313.373 498.862 313.346 498.819 313.328 498.784C311.788 496.188 310.062 493.66 307.917 491.484C306.751 490.306 305.479 489.214 304.064 488.32C302.453 487.314 301.047 486.66 300.646 487.159C300.379 487.503 300.797 488.518 301.242 489.266Z" fill="white"/>
<path d="M313.144 499.017C314.613 502.078 316.019 505.182 317.407 508.295C318.066 509.757 318.715 511.218 319.356 512.671C319.374 512.706 319.392 512.732 319.401 512.757C319.632 513.282 319.872 513.815 320.104 514.34C322.222 519.103 324.554 523.979 325.844 529.026C326.52 531.666 326.859 534.417 327.019 537.186C327.028 537.47 327.045 537.754 327.063 538.037V538.046C327.063 538.201 327.072 538.355 327.072 538.51C327.081 538.596 327.081 538.682 327.081 538.768C327.17 541.15 327.135 543.54 327.09 545.862C327.028 549.103 326.743 552.319 326.422 555.527C326.422 555.621 326.414 555.716 326.396 555.81C326.387 555.957 326.369 556.103 326.36 556.249C326.351 556.326 326.342 556.395 326.333 556.473C326.324 556.61 326.307 556.748 326.298 556.885C326.191 557.917 326.093 558.949 326.004 559.989H327.028C327.704 556.877 328.078 553.635 328.265 550.428C328.274 550.359 328.274 550.299 328.274 550.23C328.3 549.921 328.318 549.602 328.327 549.293C328.354 548.906 328.371 548.528 328.38 548.141C328.416 547.212 328.443 546.292 328.461 545.38C328.558 540.084 328.496 534.564 327.286 529.37C327.25 529.223 327.215 529.086 327.179 528.94C327.17 528.88 327.152 528.82 327.135 528.759C327.117 528.656 327.09 528.553 327.063 528.45L326.93 527.96C326.85 527.667 326.761 527.375 326.672 527.091C326.645 527.005 326.618 526.919 326.591 526.833C325.185 522.302 322.961 517.908 320.94 513.652C320.566 512.869 320.193 512.095 319.81 511.322C319.597 510.892 319.383 510.462 319.169 510.032C318.84 509.387 318.502 508.733 318.173 508.088C318.164 508.063 318.155 508.045 318.137 508.028C316.571 504.976 314.942 501.958 313.393 498.896C313.322 498.759 313.073 498.871 313.144 499.017Z" fill="#FF781C"/>
<path d="M176.5 262.055C191.209 278.134 219.925 293.956 244.629 298.519C248.685 299.289 252.638 299.741 256.394 299.835C261.708 299.977 266.906 300.024 271.921 300.071C305.293 300.406 334.099 300.679 376.629 325.464C427.422 355.059 437.771 364.983 438.789 365.44L433.169 354.662L445.805 351.144C445.561 351.039 435.044 341.019 385.091 311.907C338.733 284.908 306.364 284.594 272.091 284.252C267.128 284.207 262.01 284.156 256.836 284.028C254.9 283.977 252.906 283.81 250.848 283.549C226.985 280.445 196.111 263.411 185.502 249.114C184.05 247.147 183.424 245.445 183.171 244.211L178.128 260.528C177.829 260.787 177.283 261.308 176.5 262.055Z" fill="#FF781C"/>
<path opacity="0.2" d="M176.5 262.055C191.209 278.134 219.925 293.956 244.629 298.519C248.685 299.289 252.638 299.741 256.394 299.835C261.708 299.977 266.906 300.024 271.921 300.071C305.293 300.406 334.099 300.679 376.629 325.464C427.422 355.059 437.771 364.983 438.789 365.44L433.169 354.662L445.805 351.144C445.561 351.039 435.044 341.019 385.091 311.907C338.733 284.908 306.364 284.594 272.091 284.252C267.128 284.207 262.01 284.156 256.836 284.028C254.9 283.977 252.906 283.81 250.848 283.549C226.985 280.445 196.111 263.411 185.502 249.114C184.05 247.147 183.424 245.445 183.171 244.211L178.128 260.528C177.829 260.787 177.283 261.308 176.5 262.055Z" fill="#251212"/>
<path d="M182.436 433.546L296.947 433.733L296.937 439.822L182.426 439.635L182.436 433.546Z" fill="#D1D3D2"/>
<path d="M66.0683 539.775C66.0489 550.846 58.6682 559.808 49.5827 559.793C40.4978 559.778 33.1487 550.792 33.1681 539.721C33.1874 528.651 40.568 519.688 49.6531 519.703C58.7383 519.718 66.0877 528.705 66.0683 539.775Z" fill="#D1D3D2"/>
<path d="M71.3398 539.783C71.3203 550.854 63.9398 559.816 54.8545 559.802C45.7694 559.787 38.4199 550.8 38.4393 539.73C38.4587 528.659 45.8394 519.697 54.9248 519.712C64.0099 519.726 71.3592 528.713 71.3398 539.783Z" fill="#A6A6A6"/>
<path d="M183.003 358.161L52.7227 357.948L52.8077 309.35L183.088 309.562L183.003 358.161Z" fill="#A6A6A6"/>
<path d="M161.73 446.673L52.5664 446.494L52.5771 440.405L161.741 440.583C171.615 440.599 179.661 432.851 179.678 423.311L180.066 201.565C180.089 188.667 190.968 178.192 204.316 178.214L219.027 178.238L219.017 184.327L204.306 184.303C194.432 184.287 186.385 192.035 186.369 201.575L185.981 423.321C185.958 436.219 175.079 446.694 161.73 446.673Z" fill="#D1D3D2"/>
<path d="M55.5898 519.713L49.2873 519.703L49.7071 279.755C49.7275 268.143 59.5222 258.711 71.5407 258.731L183.117 258.913L183.107 265.003L71.53 264.821C62.9865 264.807 56.0242 271.51 56.0098 279.765L55.5898 519.713Z" fill="#D1D3D2"/>
<path d="M238.533 187.15L199.488 187.086L199.509 174.979L238.554 175.043L238.533 187.15Z" fill="#03326C"/>
<path d="M297.097 348.899L185.787 348.718L186.045 201.397L297.355 201.578L297.097 348.899Z" fill="#03326C"/>
<path d="M183.637 433.144C183.619 443.029 177.029 451.033 168.916 451.019C160.804 451.006 154.241 442.981 154.258 433.096C154.276 423.211 160.866 415.208 168.979 415.221C177.092 415.234 183.654 423.259 183.637 433.144Z" fill="#D1D3D2"/>
<path d="M188.344 433.152C188.326 443.037 181.736 451.04 173.623 451.027C165.511 451.014 158.948 442.989 158.966 433.104C158.983 423.219 165.574 415.215 173.686 415.229C181.799 415.242 188.361 423.267 188.344 433.152Z" fill="#A6A6A6"/>
<path d="M266.746 434.874C266.867 365.894 220.429 309.699 163.227 309.606C106.026 309.512 59.3914 365.555 59.2708 434.535C59.1499 503.515 105.588 559.708 162.789 559.802C219.991 559.895 266.625 503.854 266.746 434.874ZM256.364 434.857C256.253 498.305 214.283 549.855 162.807 549.771C111.331 549.687 69.5415 498 69.6526 434.552C69.7636 371.103 111.733 319.552 163.21 319.637C214.686 319.721 256.475 371.408 256.364 434.857Z" fill="#03326C"/>
<path d="M262.972 434.868C263.08 373.719 221.996 323.904 171.39 323.821C120.784 323.739 79.5271 373.419 79.4201 434.567C79.313 495.715 120.396 545.53 171.002 545.613C221.607 545.695 262.865 496.015 262.972 434.868ZM255.557 434.855C255.457 492.052 217.531 538.524 171.014 538.448C124.498 538.372 86.7355 491.776 86.8356 434.58C86.9357 377.382 124.861 330.91 171.377 330.986C217.894 331.062 255.657 377.657 255.557 434.855Z" fill="#A6A6A6"/>
<path d="M207.467 171.679C181.889 181.891 150.508 186.43 141.012 181.163C130.018 175.063 120.146 151.471 110.671 123.717C108.85 118.382 148.821 108.077 150.072 111.843C154.36 124.742 163.03 148.89 164.553 150.468C166.298 152.277 188.515 153.955 203.206 153.589C226.367 153.012 225.59 164.443 207.467 171.679Z" fill="#D3766A"/>
<path d="M151.204 186.004L166.563 150.31C166.563 150.31 187.695 150.835 209.461 153.105C231.227 155.375 227.891 164.82 202.551 175.213C177.211 185.606 151.204 186.004 151.204 186.004Z" fill="#D1D3D2"/>
<path d="M163.078 181.228C169.232 168.717 173.583 154.862 174.535 152.484C174.58 152.371 174.372 152.331 174.333 152.447C173.535 154.815 166.629 170.277 162.856 181.187C162.812 181.313 163.019 181.349 163.078 181.228Z" fill="#03326C"/>
<path opacity="0.1" d="M177.794 182.667C185.443 181.066 194.027 178.7 202.545 175.214C227.443 165.009 231.101 155.709 210.585 153.239L177.794 182.667Z" fill="#251212"/>
<path d="M112.942 125.7C116.73 128.961 152.74 124.846 152.108 119.852C151.969 118.756 152.601 111.759 152.73 110.269C153.191 104.929 155.976 99.0148 160.983 90.3715C165.175 83.1042 172.262 72.7778 168.302 70.4536C162.537 67.0481 151.952 79.0652 146.311 86.3213C144.258 81.8035 142.053 78.1009 139.949 76.399C132.965 70.7475 97.7715 85.3741 99.023 94.244C102.312 117.552 108.994 122.301 112.942 125.7Z" fill="#D3766A"/>
<path d="M85.3769 98.6308C83.1432 96.7267 81.6565 95.282 81.4984 95.1272L85.6932 91.1202C85.7881 91.2129 95.3425 100.489 102.411 102.89C108.039 104.803 122.905 97.4368 134.024 89.21C141.06 84.0041 142.176 81.4186 142.215 80.3405C142.223 80.1055 142.246 79.4806 141.076 78.483L137.035 75.0374C132.759 77.4441 127.758 79.2666 124.94 76.8636L116.787 69.9127L120.691 65.6393L128.514 72.3095C129.775 72.2325 133.063 70.7907 135.742 69.1135L137.619 67.937L144.979 74.2096C147.142 76.0537 148.195 78.1831 148.111 80.5387C147.971 84.3952 144.733 88.4652 137.61 93.7349C131.936 97.9333 125.066 102.051 119.232 104.751C111.049 108.537 104.731 109.72 100.454 108.267C95.1853 106.477 89.192 101.884 85.3769 98.6308Z" fill="#FF781C"/>
<path opacity="0.2" d="M127.162 71.1629L120.685 65.6403L116.781 69.9144L122.26 74.5861L127.162 71.1629Z" fill="#251212"/>
<path opacity="0.2" d="M81.4976 95.1272C81.6618 95.2837 83.1424 96.7274 85.3784 98.6339C85.7527 98.953 86.1365 99.2802 86.5564 99.6053L91.457 96.1647C88.1577 93.5164 85.7395 91.1742 85.6904 91.116L81.4976 95.1272Z" fill="#251212"/>
<path d="M42.9855 62.4853C45.2188 64.3899 46.8876 65.6354 47.0663 65.7678L50.6595 61.248C50.5525 61.1686 39.8378 53.1629 36.4925 46.685C33.828 41.5271 39.544 26.36 46.6097 14.677C51.0808 7.28365 53.5971 5.89212 54.6996 5.72093C54.9399 5.68378 55.5789 5.58465 56.7489 6.58211L60.7901 10.0277C58.8503 14.4259 57.6006 19.4469 60.4189 21.8498L68.5715 28.8009L72.4746 24.5276L64.6513 17.8572C64.5735 16.6385 65.6452 13.3067 67.0346 10.5302L68.0092 8.584L60.652 2.30887C58.4891 0.464757 56.1713 -0.280268 53.7627 0.093922C49.8195 0.707011 46.0424 4.31759 41.5166 11.8016C37.9109 17.7639 34.5363 24.8621 32.4898 30.7903C29.619 39.1064 29.1896 45.3102 31.2142 49.2299C33.7082 54.0583 39.1706 59.2325 42.9855 62.4853Z" fill="#FF781C"/>
<path opacity="0.2" d="M65.9972 19.01L72.4746 24.5328L68.5707 28.8069L63.0915 24.1352L65.9972 19.01Z" fill="#251212"/>
<path opacity="0.2" d="M47.0662 65.7691C46.885 65.631 45.2181 64.3912 42.9823 62.485C42.608 62.1658 42.2241 61.8385 41.8381 61.4764L44.762 56.3502C47.8921 59.1838 50.5981 61.2107 50.6641 61.2506L47.0662 65.7691Z" fill="#251212"/>
<path d="M48.3159 142.842L46.1252 145.24L-9.53674e-05 105.913L2.19056 103.514L6.14357 106.885L12.8121 105.311L30.9487 111.597L54.0648 86.2878L59.5547 90.9687L36.4386 116.277L45.149 132.883L44.363 139.471L48.3159 142.842Z" fill="#FF781C"/>
<path d="M57.9833 95.635L49.4648 88.3721L51.8985 85.7075L60.4169 92.9704L57.9833 95.635Z" fill="#FF781C"/>
<path opacity="0.2" d="M58.8715 94.6637L50.6828 87.0398L51.8995 85.7076L60.418 92.9705L58.8715 94.6637Z" fill="#251212"/>
<path d="M133.605 59.4763C133.605 59.4763 99.9615 92.1171 85.6324 96.8472C71.3033 101.577 58.5626 92.1605 55.7605 89.7712C52.9638 87.3868 41.7028 76.3392 44.7838 62.0187C47.8591 47.6934 77.1954 11.3799 77.1954 11.3799L133.605 59.4763Z" fill="#FF781C"/>
<path opacity="0.3" d="M60.4052 93.0403C65.971 96.3841 75.3958 100.231 85.6322 96.8538C99.9608 92.1173 133.613 59.4774 133.613 59.4774L128.307 54.9529C120.964 61.5721 94.2731 88.0113 82.854 92.5885C72.8746 96.5887 61.1577 93.319 60.4052 93.0403Z" fill="white"/>
<path opacity="0.2" d="M6.14302 106.888L44.3642 139.476L44.6465 137.111L10.6444 105.828L6.14302 106.888Z" fill="#251212"/>
<path opacity="0.1" d="M95.4581 46.3142L87.006 49.6642L79.3581 44.8363L80.0439 53.6381L72.9281 59.1737L81.804 61.2634L85.0541 69.5127L89.8541 62.0024L98.9785 61.5651L93.069 54.8337L95.4581 46.3142Z" fill="#251212"/>
<path d="M145.391 88.2285C143.712 92.7411 139.169 88.2474 139.169 88.2474C139.169 88.2474 144.096 96.2388 140.504 100.245C137.031 104.097 131.74 98.4819 131.356 98.0846C131.612 98.5097 135.942 105.967 131.903 109.634C127.702 113.441 123.392 106.923 123.115 106.501C123.227 106.975 124.6 113.278 120.877 115.389C114.476 119.014 110.506 102.993 105.258 100.167C105.258 100.167 100.565 101.032 100.341 101.23C100.341 101.23 97.6841 91.2935 99.302 86.6177C100.658 82.6974 105.411 84.4954 105.411 84.4954C105.411 84.4954 103.529 79.7457 106.615 76.7623C108.203 75.2347 112.145 76.3301 112.145 76.3301C112.145 76.3301 110.803 72.4664 113.719 69.9778C116.039 67.9843 119.632 69.3934 119.632 69.3934C119.632 69.3934 120.125 65.1059 123.181 63.814C129.337 61.1944 148.975 78.5624 145.391 88.2285Z" fill="#D3766A"/>
<path d="M120.235 69.532C120.165 69.4795 120.227 69.3745 120.307 69.417C128.209 73.606 135.561 80.5476 139.439 88.4651C139.567 88.7249 139.185 89.0373 138.989 88.7773C133.376 81.3554 127.782 75.201 120.235 69.532Z" fill="#03326C"/>
<path d="M112.082 76.2056C112 76.1449 112.105 76.0122 112.201 76.0646C120.319 80.4235 128.377 88.4626 131.735 98.0972C131.85 98.4282 131.611 98.836 131.449 98.4656C128.713 92.2222 118.903 81.2749 112.082 76.2056Z" fill="#03326C"/>
<path d="M123.109 107.251C119.519 98.1325 113.265 91.0436 105.758 84.6549C105.66 84.5716 105.792 84.4467 105.894 84.4949C110.447 86.6532 114.793 91.2074 117.864 95.0276C120.805 98.6869 122.699 102.559 123.439 107.129C123.468 107.307 123.186 107.446 123.109 107.251Z" fill="#03326C"/>
<path d="M139.334 88.277C139.486 88.5894 138.847 88.4608 138.989 88.7773C139.587 90.1085 142.474 98.4179 139.849 100.247C137.742 101.708 134.248 99.9862 133.175 98.8167L130.476 95.8749L131.953 99.5455C132.597 101.148 133.045 102.927 133.113 104.634C133.187 106.338 132.791 108.055 131.623 109.113C130.426 110.241 128.806 110.535 127.388 109.722C125.954 108.973 124.715 107.551 123.82 106.125L121.32 102.142L122.329 106.676C122.602 107.904 122.734 109.251 122.669 110.519C122.596 111.786 122.306 113.055 121.584 113.957C120.881 114.844 119.666 115.368 118.589 115.124C117.452 114.883 116.387 113.988 115.466 113.047C113.609 111.101 112.16 108.744 110.604 106.478C109.833 105.336 109.06 104.188 108.23 103.076C107.389 101.99 106.512 100.835 105.256 100.168C106.425 100.951 107.145 102.16 107.905 103.286C108.637 104.444 109.313 105.637 109.991 106.832C111.348 109.224 112.743 111.617 114.596 113.794C115.552 114.838 116.627 115.94 118.259 116.4C119.948 116.861 121.742 116.093 122.747 114.842C123.779 113.57 124.098 112.039 124.212 110.612C124.303 109.158 124.194 107.766 123.899 106.326L122.409 106.877C123.452 108.569 124.691 110.105 126.581 111.165C127.513 111.682 128.713 111.957 129.863 111.75C131.018 111.547 131.982 110.978 132.765 110.239C134.385 108.698 134.767 106.47 134.654 104.57C134.533 102.615 134.041 100.79 133.287 98.9914L132.065 99.7204C133.481 101.162 137.169 103.499 140.732 101.63C144.999 98.5222 140.309 89.8114 139.334 88.277Z" fill="#03326C"/>
<path d="M139.17 88.2475C140.077 88.8188 141.014 89.2931 141.913 89.5265C142.811 89.7661 143.651 89.5802 144.197 89.0577C144.759 88.5447 145.048 87.6245 145.24 86.6877C145.404 85.7347 145.526 84.7254 145.609 83.6771C146.059 84.6412 146.313 85.6882 146.32 86.7738C146.321 87.8414 146.122 89.0568 145.166 90.0197C144.657 90.4616 144.044 90.7532 143.381 90.8349C142.715 90.8962 142.074 90.7619 141.539 90.5058C140.456 90.0094 139.691 89.1717 139.17 88.2475Z" fill="#03326C"/>
<path d="M56.1471 465.77L124.604 465.882C124.604 465.882 115.264 341.334 123.14 337.31C137.139 330.156 210.768 337.649 243.13 315.136C269.411 296.854 245.347 232.267 245.347 232.267L189.764 232.177C189.764 232.177 180.887 250.135 179.285 256.579C179.285 256.579 79.7879 266.745 58.4161 292.824C37.7495 318.042 56.1471 465.77 56.1471 465.77Z" fill="#03326C"/>
<path d="M10.6367 533.686C14.471 534.814 123.17 531.721 127.227 529.061C127.877 528.652 127.404 513.465 126.631 495.871L122.861 440.075L53.7763 439.596L58.0294 496.543C58.0294 496.543 18.0934 515.182 13.9473 518.56C9.83549 521.926 6.80108 532.573 10.6367 533.686Z" fill="#D3766A"/>
<path d="M58.0219 496.546C58.0219 496.546 18.0852 515.18 13.945 518.558C9.83926 521.93 6.80396 532.576 10.6349 533.679C14.4734 534.814 123.164 531.723 127.236 529.063C127.873 528.566 127.4 513.42 126.624 495.873L125.175 474.328L56.3889 474.249L58.0219 496.546Z" fill="#D1D3D2"/>
<path d="M56.8527 480.588L56.9736 482.316L125.697 482.189L125.59 480.448L56.8527 480.588Z" fill="#FF781C"/>
<path d="M57.2417 485.891L57.3624 487.632L126.059 487.505L125.938 485.764L57.2417 485.891Z" fill="#FF781C"/>
<path d="M10.1682 533.639C13.9856 534.756 123.557 532.442 127.609 529.807C129.15 528.815 128.615 512.899 126.597 495.113L57.1529 496.176C57.1529 496.176 17.6025 515.221 13.4803 518.573C9.38061 521.924 6.35121 532.523 10.1682 533.639Z" fill="#FF781C"/>
<path d="M11.5944 529.413C29.7224 528.474 102.932 526.336 120.926 526.739C121.072 526.742 121.075 526.838 120.929 526.849C102.982 528.159 29.7567 529.723 11.6019 529.7C11.2191 529.7 11.211 529.432 11.5944 529.413Z" fill="#03326C"/>
<path d="M20.3272 514.616C24.6244 514.326 28.8887 516.182 31.3086 518.592C33.634 520.907 35.6627 524.197 35.6444 527.836C35.6442 527.94 35.4447 527.949 35.4251 527.841C34.1827 521.011 27.5444 515.168 20.333 514.835C20.1881 514.829 20.1799 514.626 20.3272 514.616Z" fill="#03326C"/>
<path d="M51.513 498.092C58.7714 497.791 67.2639 500.031 71.9484 505.642C72.1304 505.859 71.8076 506.106 71.5889 506.004C64.9266 502.919 58.6137 500.659 51.4142 498.96C50.9061 498.84 50.9929 498.114 51.513 498.092Z" fill="#03326C"/>
<path d="M45.9716 500.361C53.2299 500.06 61.7227 502.299 66.4078 507.911C66.589 508.128 66.2661 508.374 66.0479 508.272C59.3856 505.188 53.0724 502.927 45.8726 501.228C45.3647 501.108 45.4523 500.383 45.9716 500.361Z" fill="#03326C"/>
<path d="M40.4304 502.63C47.6885 502.329 56.1819 504.569 60.8666 510.18C61.0483 510.397 60.7253 510.643 60.5061 510.542C53.8443 507.457 47.5315 505.196 40.331 503.497C39.8243 503.377 39.9103 502.652 40.4304 502.63Z" fill="#03326C"/>
<path d="M34.8898 504.899C42.148 504.597 50.6405 506.837 55.3255 512.448C55.5072 512.665 55.1849 512.911 54.9657 512.81C48.3036 509.725 41.9906 507.464 34.7909 505.765C34.2834 505.645 34.37 504.92 34.8898 504.899Z" fill="#03326C"/>
<path d="M115.804 510.22C123.951 510.015 124.296 522.247 116.136 522.454C107.988 522.66 107.643 510.426 115.804 510.22Z" fill="#03326C"/>
<path d="M43.0947 479.596C46.6906 476.542 51.4137 479.303 53.7633 482.279C56.7627 486.108 59.1107 491.171 60.242 496.095C60.4278 496.795 60.565 497.496 60.6775 498.173C60.7088 498.478 60.764 498.781 60.8191 499.062C60.7952 499.085 60.8193 499.085 60.8193 499.085L60.8249 499.319C60.855 499.577 60.8845 499.811 60.914 500.045C60.9175 500.185 60.7977 500.258 60.6757 500.237C60.6105 500.567 60.3262 500.878 59.9632 500.932C59.7947 500.983 59.5999 500.964 59.4034 500.85C57.9506 499.943 56.4249 499.037 54.8994 498.132C54.6294 497.997 54.383 497.838 54.1124 497.679C50.3968 495.459 46.7264 493.098 43.9828 489.85C41.6135 487.062 39.7134 482.482 43.0947 479.596ZM52.4568 494.243C53.6891 495.061 54.9449 495.856 56.1765 496.65C57.2359 497.332 58.2708 498.013 59.306 498.718C59.4538 498.809 59.6023 498.923 59.7258 499.014C59.8489 499.105 59.9969 499.196 60.1202 499.287C60.0687 499.148 60.0166 499.008 59.9653 498.868C59.9486 498.853 59.94 498.838 59.9397 498.822C59.5793 497.915 59.2194 497.031 58.8833 496.124C57.9302 493.705 56.9535 491.31 55.7114 488.991C54.8749 487.414 53.9884 485.791 52.9359 484.336C51.2823 482.073 43.9691 476.412 43.4874 484.067C43.2188 488.271 49.4258 492.244 52.4568 494.243Z" fill="#03326C"/>
<path d="M59.327 499.679C59.2281 499.611 59.2016 499.494 59.2959 499.375C59.4381 499.231 59.5812 499.111 59.7247 499.014C59.7711 498.919 59.8428 498.871 59.8905 498.846C59.9143 498.822 59.914 498.799 59.9386 498.822C60.1755 498.559 60.4137 498.366 60.6764 498.173C61.5806 497.38 62.5594 496.655 63.5642 496.001C67.5082 493.314 72.194 491.221 76.6144 490.26C80.4063 489.429 85.8385 490.275 86.5489 494.834C86.5769 494.997 86.5807 495.161 86.5843 495.325C86.8692 499.33 82.5496 501.509 79.0202 502.146C75.3209 502.788 71.5038 502.517 67.7305 502.034C65.1256 501.69 62.5182 501.253 59.9621 500.932L59.9137 500.933C59.2566 500.853 59.0949 500.153 59.327 499.679ZM69.6067 500.212C73.2803 500.579 80.6781 501.408 83.2956 498.022C84.0971 496.973 84.4904 496.121 84.5711 495.392C85.0482 491.817 78.2021 491.774 75.8852 492.363C74.0988 492.799 72.3427 493.493 70.6347 494.162C69.3357 494.682 68.0868 495.272 66.8387 495.908C64.7983 496.913 62.8331 498.01 60.818 499.061L60.7941 499.085C60.6746 499.158 60.5301 499.208 60.4101 499.281C60.5557 499.278 60.6777 499.298 60.8238 499.319C61.1883 499.334 61.5284 499.351 61.8934 499.39C64.4715 499.617 67.0279 499.961 69.6067 500.212Z" fill="#03326C"/>
<path d="M10.6367 533.686C14.471 534.814 123.17 531.721 127.227 529.061C127.877 528.652 127.404 513.465 126.631 495.871L122.861 440.075L53.7763 439.596L58.0294 496.543C58.0294 496.543 18.0934 515.182 13.9473 518.56C9.83549 521.926 6.80108 532.573 10.6367 533.686Z" fill="#D3766A"/>
<path d="M58.0219 496.546C58.0219 496.546 18.0852 515.18 13.945 518.558C9.83926 521.93 6.80396 532.576 10.6349 533.679C14.4734 534.814 123.164 531.723 127.236 529.063C127.873 528.566 127.4 513.42 126.624 495.873L125.175 474.328L56.3889 474.249L58.0219 496.546Z" fill="#EBEBEB"/>
<path d="M10.1682 533.639C13.9856 534.756 123.557 532.442 127.609 529.807C129.15 528.815 128.615 512.899 126.597 495.113L57.1529 496.176C57.1529 496.176 17.6025 515.221 13.4803 518.573C9.38061 521.924 6.35121 532.523 10.1682 533.639Z" fill="#FF781C"/>
<path d="M11.5944 529.413C29.7224 528.474 102.932 526.336 120.926 526.739C121.072 526.742 121.075 526.838 120.929 526.849C102.982 528.159 29.7567 529.723 11.6019 529.7C11.2191 529.7 11.211 529.432 11.5944 529.413Z" fill="#03326C"/>
<path d="M20.3272 514.616C24.6244 514.326 28.8887 516.182 31.3086 518.592C33.634 520.907 35.6627 524.197 35.6444 527.836C35.6442 527.94 35.4447 527.949 35.4251 527.841C34.1827 521.011 27.5444 515.168 20.333 514.835C20.1881 514.829 20.1799 514.626 20.3272 514.616Z" fill="#03326C"/>
<path d="M51.513 498.092C58.7714 497.791 67.2639 500.031 71.9484 505.642C72.1304 505.859 71.8076 506.106 71.5889 506.004C64.9266 502.919 58.6137 500.659 51.4142 498.96C50.9061 498.84 50.9929 498.114 51.513 498.092Z" fill="#03326C"/>
<path d="M45.9716 500.361C53.2299 500.06 61.7227 502.299 66.4078 507.911C66.589 508.128 66.2661 508.374 66.0479 508.272C59.3856 505.188 53.0724 502.927 45.8726 501.228C45.3647 501.108 45.4523 500.383 45.9716 500.361Z" fill="#03326C"/>
<path d="M40.4304 502.63C47.6885 502.329 56.1819 504.569 60.8666 510.18C61.0483 510.397 60.7253 510.643 60.5061 510.542C53.8443 507.457 47.5315 505.196 40.331 503.497C39.8243 503.377 39.9103 502.652 40.4304 502.63Z" fill="#03326C"/>
<path d="M34.8898 504.899C42.148 504.597 50.6405 506.837 55.3255 512.448C55.5072 512.665 55.1849 512.911 54.9657 512.81C48.3036 509.725 41.9906 507.464 34.7909 505.765C34.2834 505.645 34.37 504.92 34.8898 504.899Z" fill="#03326C"/>
<path d="M115.804 510.22C123.951 510.015 124.296 522.247 116.136 522.454C107.988 522.66 107.643 510.426 115.804 510.22Z" fill="#03326C"/>
<path d="M43.0947 479.596C46.6906 476.542 51.4137 479.303 53.7633 482.279C56.7627 486.108 59.1107 491.171 60.242 496.095C60.4278 496.795 60.565 497.496 60.6775 498.173C60.7088 498.478 60.764 498.781 60.8191 499.062C60.7952 499.085 60.8193 499.085 60.8193 499.085L60.8249 499.319C60.855 499.577 60.8845 499.811 60.914 500.045C60.9175 500.185 60.7977 500.258 60.6757 500.237C60.6105 500.567 60.3262 500.878 59.9632 500.932C59.7947 500.983 59.5999 500.964 59.4034 500.85C57.9506 499.943 56.4249 499.037 54.8994 498.132C54.6294 497.997 54.383 497.838 54.1124 497.679C50.3968 495.459 46.7264 493.098 43.9828 489.85C41.6135 487.062 39.7134 482.482 43.0947 479.596ZM52.4568 494.243C53.6891 495.061 54.9449 495.856 56.1765 496.65C57.2359 497.332 58.2708 498.013 59.306 498.718C59.4538 498.809 59.6023 498.923 59.7258 499.014C59.8489 499.105 59.9969 499.196 60.1202 499.287C60.0687 499.148 60.0166 499.008 59.9653 498.868C59.9486 498.853 59.94 498.838 59.9397 498.822C59.5793 497.915 59.2194 497.031 58.8833 496.124C57.9302 493.705 56.9535 491.31 55.7114 488.991C54.8749 487.414 53.9884 485.791 52.9359 484.336C51.2823 482.073 43.9691 476.412 43.4874 484.067C43.2188 488.271 49.4258 492.244 52.4568 494.243Z" fill="#03326C"/>
<path d="M59.327 499.679C59.2281 499.611 59.2016 499.494 59.2959 499.375C59.4381 499.231 59.5812 499.111 59.7247 499.014C59.7711 498.919 59.8428 498.871 59.8905 498.846C59.9143 498.822 59.914 498.799 59.9386 498.822C60.1755 498.559 60.4137 498.366 60.6764 498.173C61.5806 497.38 62.5594 496.655 63.5642 496.001C67.5082 493.314 72.194 491.221 76.6144 490.26C80.4063 489.429 85.8385 490.275 86.5489 494.834C86.5769 494.997 86.5807 495.161 86.5843 495.325C86.8692 499.33 82.5496 501.509 79.0202 502.146C75.3209 502.788 71.5038 502.517 67.7305 502.034C65.1256 501.69 62.5182 501.253 59.9621 500.932L59.9137 500.933C59.2566 500.853 59.0949 500.153 59.327 499.679ZM69.6067 500.212C73.2803 500.579 80.6781 501.408 83.2956 498.022C84.0971 496.973 84.4904 496.121 84.5711 495.392C85.0482 491.817 78.2021 491.774 75.8852 492.363C74.0988 492.799 72.3427 493.493 70.6347 494.162C69.3357 494.682 68.0868 495.272 66.8387 495.908C64.7983 496.913 62.8331 498.01 60.818 499.061L60.7941 499.085C60.6746 499.158 60.5301 499.208 60.4101 499.281C60.5557 499.278 60.6777 499.298 60.8238 499.319C61.1883 499.334 61.5284 499.351 61.8934 499.39C64.4715 499.617 67.0279 499.961 69.6067 500.212Z" fill="#03326C"/>
<path opacity="0.1" d="M25.9288 533.911C57.2922 533.723 124.451 531.853 127.605 529.811C129.147 528.817 128.611 512.894 126.592 495.108H126.579L125.64 481.245L125.586 480.447L122.865 440.08L122.12 427.247L79.3505 474.271L73.727 480.549L72.1698 482.287L68.9584 485.87L67.401 487.609L60.1511 495.704L59.7653 496.142L59.1588 496.819L58.1528 497.947L57.6978 498.451L56.9125 499.327L56.1268 500.19L55.1205 501.318L53.3564 503.295L52.3227 504.436L50.5172 506.454L49.3042 507.807L47.6228 509.692L34.8875 523.919L34.3639 524.489L30.6426 528.643L29.8709 529.505L25.9704 533.858L25.9703 533.872L25.9288 533.911Z" fill="#251212"/>
<path d="M183.039 256.705L182.958 257.034L182.622 257.08L182.554 256.584C182.622 257.08 182.622 257.08 182.621 257.08L182.619 257.08L182.609 257.082L182.569 257.087L182.409 257.109C182.268 257.129 182.058 257.16 181.782 257.2C181.231 257.281 180.42 257.403 179.379 257.568C177.298 257.897 174.299 258.397 170.634 259.078C163.303 260.441 153.307 262.528 142.646 265.43C131.983 268.331 120.666 272.043 110.689 276.651C100.701 281.264 92.1043 286.753 86.8326 293.186C84.3242 296.247 82.3721 301.221 80.9022 307.652C79.4355 314.07 78.4613 321.881 77.8715 330.565C76.692 347.932 77.0532 368.74 78.0608 388.774C79.0683 408.806 80.7214 428.051 82.1228 442.29C82.8235 449.409 83.4611 455.275 83.9236 459.362C84.1548 461.405 84.3422 463.004 84.4718 464.091C84.5355 464.625 84.5853 465.036 84.6194 465.316L152.095 465.426C152.079 465.204 152.058 464.916 152.032 464.564C151.965 463.65 151.869 462.31 151.749 460.603C151.509 457.188 151.175 452.306 150.798 446.436C150.046 434.694 149.124 418.996 148.449 403.172C147.773 387.349 147.344 371.391 147.576 359.133C147.692 353.006 147.973 347.789 148.475 343.97C148.726 342.063 149.034 340.484 149.412 339.309C149.601 338.722 149.812 338.218 150.052 337.82C150.29 337.426 150.579 337.095 150.942 336.91C152.762 335.98 155.333 335.304 158.461 334.778C161.599 334.25 165.337 333.866 169.514 333.537C173.09 333.256 176.971 333.015 181.079 332.761C186.615 332.418 192.564 332.05 198.734 331.521C220.188 329.681 243.809 325.925 259.869 314.753C266.287 310.289 269.668 302.974 271.096 294.42C272.523 285.867 271.986 276.138 270.625 266.947C269.263 257.76 267.083 249.139 265.242 242.812C264.321 239.649 263.486 237.061 262.881 235.265C262.579 234.367 262.334 233.667 262.165 233.192C262.109 233.034 262.061 232.901 262.022 232.794L193.345 232.682C193.282 232.809 193.199 232.978 193.098 233.185C192.853 233.688 192.5 234.414 192.072 235.305C191.216 237.087 190.058 239.53 188.85 242.174C186.425 247.481 183.827 253.537 183.039 256.705Z" fill="#03326C" stroke="white"/>
<path d="M38.6661 533.731C42.5002 534.86 151.199 531.767 155.257 529.107C155.906 528.697 155.434 513.511 154.66 495.916L150.891 440.12L81.8056 439.641L86.0589 496.588C86.0589 496.588 46.1226 515.227 41.9765 518.606C37.8648 521.971 34.8304 532.619 38.6661 533.731Z" fill="#D3766A"/>
<path d="M86.0532 496.591C86.0532 496.591 46.1165 515.225 41.9763 518.604C37.8705 521.975 34.8351 532.621 38.6662 533.724C42.5047 534.859 151.195 531.768 155.267 529.108C155.905 528.611 155.432 513.465 154.655 495.918L153.206 474.373L84.42 474.294L86.0532 496.591Z" fill="#EBEBEB"/>
<path d="M38.1974 533.684C42.0149 534.801 151.586 532.487 155.638 529.851C157.18 528.86 156.645 512.944 154.626 495.158L85.182 496.221C85.182 496.221 45.6319 515.266 41.5094 518.618C37.4099 521.969 34.3806 532.568 38.1974 533.684Z" fill="#FF781C"/>
<path d="M39.6236 529.458C57.7519 528.519 130.961 526.381 148.955 526.784C149.101 526.787 149.104 526.883 148.958 526.894C131.011 528.204 57.7859 529.768 39.6312 529.745C39.2484 529.745 39.2402 529.478 39.6236 529.458Z" fill="#03326C"/>
<path d="M48.3565 514.661C52.6539 514.37 56.918 516.226 59.3381 518.636C61.6633 520.951 63.6921 524.242 63.6737 527.881C63.6734 527.985 63.4739 527.994 63.4544 527.886C62.2121 521.056 55.5737 515.213 48.3623 514.88C48.2174 514.874 48.2093 514.67 48.3565 514.661Z" fill="#03326C"/>
<path d="M79.5445 498.137C86.8025 497.836 95.2952 500.076 99.9797 505.687C100.162 505.904 99.839 506.151 99.6201 506.049C92.9576 502.964 86.6449 500.703 79.4452 499.004C78.9373 498.885 79.0242 498.159 79.5445 498.137Z" fill="#03326C"/>
<path d="M74.0009 500.406C81.2594 500.105 89.7521 502.345 94.4371 507.956C94.6183 508.173 94.2957 508.419 94.0771 508.318C87.4147 505.233 81.1017 502.972 73.902 501.273C73.3943 501.154 73.4815 500.428 74.0009 500.406Z" fill="#03326C"/>
<path d="M68.4599 502.674C75.7178 502.373 84.2112 504.613 88.8959 510.224C89.0775 510.441 88.7546 510.687 88.5355 510.586C81.8735 507.501 75.5606 505.24 68.3603 503.541C67.8536 503.422 67.9396 502.696 68.4599 502.674Z" fill="#03326C"/>
<path d="M62.9171 504.944C70.1754 504.642 78.6679 506.882 83.3529 512.494C83.5345 512.71 83.2121 512.957 82.9931 512.856C76.3309 509.77 70.0178 507.509 62.8182 505.811C62.3107 505.69 62.3972 504.965 62.9171 504.944Z" fill="#03326C"/>
<path d="M143.834 510.265C151.98 510.06 152.326 522.292 144.165 522.499C136.018 522.704 135.672 510.472 143.834 510.265Z" fill="#03326C"/>
<path d="M71.1219 479.64C74.7181 476.586 79.4411 479.347 81.7905 482.322C84.7901 486.152 87.1381 491.215 88.2694 496.139C88.4552 496.839 88.5923 497.54 88.7047 498.217C88.7362 498.522 88.7914 498.825 88.8462 499.106C88.8225 499.129 88.8469 499.129 88.8469 499.129L88.8522 499.364C88.8824 499.621 88.912 499.855 88.9413 500.089C88.9447 500.229 88.8251 500.302 88.7031 500.281C88.638 500.611 88.3536 500.922 87.9909 500.976C87.822 501.027 87.6272 501.007 87.4306 500.895C85.9779 499.987 84.4523 499.081 82.9265 498.176C82.6568 498.041 82.4104 497.882 82.1397 497.724C78.4242 495.504 74.7539 493.142 72.0103 489.894C69.6409 487.106 67.7407 482.526 71.1219 479.64ZM80.4841 494.287C81.7164 495.106 82.9723 495.9 84.204 496.694C85.2634 497.376 86.2982 498.057 87.3334 498.762C87.4813 498.853 87.6297 498.967 87.7531 499.058C87.8763 499.149 88.0242 499.24 88.1476 499.331C88.096 499.192 88.0441 499.052 87.9925 498.913C87.9759 498.897 87.9675 498.882 87.9672 498.866C87.6068 497.959 87.2469 497.075 86.9108 496.168C85.9576 493.749 84.9807 491.354 83.7389 489.036C82.9021 487.459 82.0158 485.836 80.9632 484.38C79.3099 482.117 71.9964 476.456 71.5147 484.111C71.2463 488.315 77.4531 492.288 80.4841 494.287Z" fill="#03326C"/>
<path d="M87.3562 499.724C87.2576 499.655 87.2309 499.539 87.3251 499.419C87.4675 499.276 87.6105 499.155 87.754 499.058C87.8004 498.964 87.8721 498.915 87.9199 498.891C87.9436 498.867 87.9435 498.843 87.968 498.866C88.2048 498.603 88.4429 498.411 88.7056 498.217C89.61 497.424 90.5886 496.7 91.5935 496.045C95.5375 493.359 100.223 491.266 104.644 490.305C108.436 489.474 113.868 490.32 114.578 494.879C114.606 495.042 114.61 495.206 114.614 495.37C114.899 499.375 110.579 501.553 107.049 502.191C103.35 502.832 99.5331 502.561 95.7598 502.078C93.1549 501.735 90.5476 501.298 87.9917 500.977L87.9431 500.978C87.2858 500.898 87.1243 500.197 87.3562 499.724ZM97.636 500.256C101.309 500.624 108.707 501.453 111.325 498.067C112.126 497.018 112.52 496.165 112.6 495.436C113.077 491.862 106.231 491.819 103.915 492.407C102.128 492.844 100.372 493.538 98.6637 494.207C97.3648 494.727 96.116 495.316 94.8681 495.953C92.8278 496.958 90.8624 498.055 88.847 499.106L88.8234 499.13C88.7039 499.203 88.5593 499.253 88.4394 499.325C88.5851 499.322 88.707 499.343 88.8531 499.364C89.2177 499.379 89.5577 499.396 89.9229 499.435C92.5008 499.662 95.0573 500.006 97.636 500.256Z" fill="#03326C"/>
<path d="M182.555 256.584C154.281 261.055 111.73 269.468 90.1163 288.083C82.2456 294.769 80.4355 305.09 78.8843 314.573C76.3351 332.231 76.3467 350.119 76.6296 367.899C77.3458 403.47 80.6591 438.925 84.419 474.294C80.5345 427.123 76.0638 379.717 78.3866 332.384C79.217 320.714 80.0172 308.634 84.4009 297.657C95.3044 273.583 157.115 260.916 182.555 256.584Z" fill="#D1D3D2"/>
<path d="M186.123 219.701L183.984 238.321L269.492 245.239C269.492 245.239 259.895 192.546 227.927 160.497C214.941 147.478 204.417 153.443 197.383 163.868C195.603 166.506 181.418 191.979 180.368 205.546C179.905 211.544 186.123 219.701 186.123 219.701Z" fill="#D1D3D2"/>
<path d="M208.903 212.648C205.25 213.169 201.587 213.837 198.037 214.99C196.271 215.563 194.54 216.229 192.811 216.941C191.95 217.296 191.084 217.615 190.211 217.93C189.316 218.254 188.354 218.558 187.414 218.613C187.329 218.618 187.334 218.767 187.419 218.768C188.335 218.779 189.212 218.786 190.123 218.652C190.99 218.526 191.849 218.289 192.692 218.025C194.488 217.464 196.261 216.805 198.052 216.222C201.665 215.045 205.277 213.87 208.956 213.004C209.125 212.964 209.076 212.624 208.903 212.648Z" fill="#03326C"/>
<path d="M218.054 216.29C215.037 215.992 211.961 215.859 208.934 215.966C207.411 216.019 205.904 216.176 204.391 216.38C203.669 216.478 202.948 216.592 202.229 216.715C201.438 216.85 200.662 217.111 199.87 217.233C199.787 217.246 199.79 217.398 199.875 217.388C200.625 217.3 201.392 217.357 202.145 217.32C202.903 217.283 203.66 217.239 204.418 217.201C205.935 217.126 207.451 217.07 208.967 216.978C212.002 216.793 215.025 216.645 218.064 216.584C218.229 216.581 218.21 216.305 218.054 216.29Z" fill="#03326C"/>
<path d="M18.3408 532.577L157.674 532.805L157.649 547.045L18.3159 546.817L18.3408 532.577Z" fill="#03326C"/>
<path d="M300.485 358.428L170.012 358.215L170.097 309.616L300.57 309.829L300.485 358.428Z" fill="#A6A6A6"/>
<path d="M279.021 446.939L169.856 446.761L169.867 440.672L279.032 440.85C288.905 440.866 296.95 433.118 296.967 423.578L297.355 201.832C297.378 188.934 308.257 178.459 321.605 178.481L336.316 178.505L336.306 184.594L321.595 184.57C311.721 184.554 303.674 192.302 303.658 201.842L303.27 423.588C303.247 436.486 292.369 446.961 279.021 446.939Z" fill="#D1D3D2"/>
<path d="M172.848 538.099L166.545 538.088L166.997 280.021C167.017 268.409 176.812 258.978 188.83 258.997L300.406 259.18L300.395 265.269L188.82 265.087C180.276 265.073 173.314 271.776 173.3 280.031L172.848 538.099Z" fill="#D1D3D2"/>
<path d="M355.824 187.417L316.779 187.353L316.801 175.245L355.845 175.309L355.824 187.417Z" fill="#D1D3D2"/>
<path d="M295.297 433.326C295.28 443.211 288.689 451.214 280.577 451.201C272.464 451.188 265.901 443.163 265.918 433.278C265.936 423.393 272.527 415.39 280.639 415.403C288.752 415.416 295.314 423.441 295.297 433.326Z" fill="#A6A6A6"/>
<path d="M300.004 433.334C299.987 443.219 293.396 451.222 285.283 451.209C277.171 451.196 270.609 443.171 270.626 433.286C270.643 423.4 277.234 415.397 285.346 415.411C293.459 415.424 300.021 423.448 300.004 433.334Z" fill="#D1D3D2"/>
<path d="M378.406 435.056C378.527 366.077 332.089 309.881 274.887 309.788C217.686 309.694 171.052 365.737 170.931 434.717C170.81 503.697 217.248 559.891 274.45 559.984C331.651 560.077 378.285 504.036 378.406 435.056ZM368.024 435.039C367.913 498.487 325.943 550.037 274.467 549.953C222.991 549.869 181.202 498.182 181.313 434.734C181.424 371.285 223.394 319.735 274.87 319.819C326.346 319.903 368.135 371.59 368.024 435.039Z" fill="#03326C"/>
<path d="M374.633 435.049C374.74 373.901 333.656 324.086 283.05 324.003C232.444 323.92 191.187 373.601 191.08 434.749C190.973 495.897 232.056 545.712 282.662 545.794C333.268 545.877 374.525 496.197 374.633 435.049ZM367.217 435.037C367.117 492.234 329.191 538.706 282.674 538.63C236.159 538.554 198.396 491.958 198.496 434.761C198.596 377.563 236.522 331.092 283.037 331.168C329.554 331.244 367.317 377.839 367.217 435.037Z" fill="#D1D3D2"/>
<path d="M184.769 539.968C184.75 551.039 177.37 560.001 168.284 559.986C159.199 559.972 151.85 550.985 151.869 539.915C151.888 528.844 159.269 519.882 168.354 519.897C177.44 519.911 184.789 528.898 184.769 539.968Z" fill="#A6A6A6"/>
<path d="M190.041 539.977C190.022 551.047 182.641 560.009 173.555 559.995C164.47 559.98 157.121 550.993 157.14 539.923C157.16 528.852 164.541 519.89 173.626 519.905C182.711 519.919 190.06 528.906 190.041 539.977Z" fill="#D1D3D2"/>
<path d="M230.896 126.781C230.896 126.781 239.26 124.959 244.44 129.921C249.621 134.882 247.824 140.383 243.238 145.363C238.651 150.343 230.656 154.417 224.968 151.202C215.888 146.068 218.829 132.971 223.172 129.869C227.515 126.767 230.896 126.781 230.896 126.781Z" fill="#03326C"/>
<path d="M230.898 126.78C237.176 126.44 246.571 127.227 247.835 134.572C248.37 139.654 243.926 144.548 240.432 147.951C244.693 144.948 249.537 139.924 248.986 134.433C247.822 126.409 237.575 125.303 230.898 126.78Z" fill="#03326C"/>
<path d="M244.38 143.164C244.38 143.164 248.378 139.254 254.748 140.789C261.117 142.324 262.347 147.378 261.17 153.269C259.994 159.159 255.108 167.257 247.23 164.899C238.187 162.19 237.024 152.427 238.906 148.097C240.788 143.767 244.38 143.164 244.38 143.164Z" fill="#03326C"/>
<path d="M242.776 144.38C247.48 141.383 255.078 137.825 259.54 142.913C262.369 146.621 261.27 152.311 260.231 156.519C262.144 152.275 263.514 146.275 260.457 142.224C255.721 136.505 247.22 140.209 242.776 144.38Z" fill="#03326C"/>
<path d="M278.029 155.047C278.029 155.047 276.92 159.55 271.638 161.134C266.357 162.719 263.186 159.599 261.368 154.86C259.55 150.122 260.44 141.593 267.273 140.383C273.851 139.218 279.136 145.27 279.739 149.182C280.343 153.095 278.029 155.047 278.029 155.047Z" fill="#03326C"/>
<path d="M278.633 153.494C276.54 157.568 272.728 163.294 267.257 161.547C263.541 160.051 261.801 155.586 260.572 152.124C261.064 156.044 262.762 160.933 266.844 162.595C272.886 164.743 277.395 158.443 278.633 153.494Z" fill="#03326C"/>
<path d="M295.788 152.511C295.788 152.511 295.962 151.933 296.114 150.997C291.805 152.081 289.199 151.095 289.199 151.095C292.216 150.797 294.748 149.555 296.323 148.581C296.341 147.058 296.14 145.271 295.415 143.549C293.612 139.282 290.041 136.326 290.041 136.326C282.133 138.696 279.155 142.725 278.127 144.723C277.745 145.462 277.63 145.926 277.63 145.926L278.477 152.264C285.643 156.792 295.788 152.511 295.788 152.511Z" fill="#03326C"/>
<path d="M277.809 146.279C278.911 141.626 282.619 138.22 286.971 136.271C287.598 135.991 288.243 135.745 288.877 135.445C288.194 135.582 287.507 135.735 286.828 135.92C282.146 137.302 277.863 141.336 277.809 146.279Z" fill="#03326C"/>
<path d="M218.092 159.757C217.444 161.341 207.711 170.836 200.002 169.378C197.493 168.898 199.589 155.546 199.589 155.546L198.423 140.25L219.455 131.197C219.455 131.197 218.356 159.083 218.092 159.757Z" fill="#D3766A"/>
<path d="M198.422 140.251L199.594 155.545C199.594 155.545 199.501 156.096 199.384 156.981C209.972 156.597 216.625 149.978 218.779 147.476C219.114 139.734 219.451 131.193 219.451 131.193L198.422 140.251Z" fill="#03326C"/>
<path d="M185.213 117.424C177.023 141.268 190.879 148.701 196.203 150.401C201.036 151.945 217.694 156.608 228.391 133.71C239.087 110.811 230.202 99.5935 219.342 95.4976C208.482 91.4014 193.403 93.579 185.213 117.424Z" fill="#D3766A"/>
<path d="M189.864 116.684C190.489 116.696 191.068 116.607 191.688 116.559C192.387 116.503 192.95 116.528 193.523 116.088C193.83 115.852 193.888 115.297 193.678 114.987C193.191 114.266 192.317 114.128 191.473 114.161C190.556 114.198 189.859 114.452 189.173 115.038C188.509 115.607 189.039 116.666 189.864 116.684Z" fill="#03326C"/>
<path d="M206.795 119.485C206.22 119.247 205.73 118.936 205.187 118.644C204.573 118.314 204.05 118.113 203.716 117.483C203.537 117.146 203.722 116.618 204.045 116.419C204.797 115.956 205.652 116.179 206.407 116.546C207.226 116.945 207.752 117.455 208.126 118.262C208.489 119.044 207.553 119.798 206.795 119.485Z" fill="#03326C"/>
<path d="M199.841 137.491C199.357 137.839 198.852 138.34 198.196 138.308C197.568 138.277 196.877 137.91 196.337 137.623C196.284 137.594 196.218 137.644 196.247 137.701C196.618 138.424 197.536 138.966 198.384 138.935C199.211 138.904 199.706 138.281 200.002 137.592C200.043 137.495 199.911 137.44 199.841 137.491Z" fill="#03326C"/>
<path d="M199.46 132.735C198.105 133.91 196.485 134.321 194.891 134.206C194.178 134.159 193.461 133.993 192.781 133.749C192.645 133.709 192.512 133.658 192.396 133.6C192.276 133.552 192.168 133.509 192.039 133.446C191.848 133.365 191.784 133.178 191.801 132.988L191.805 132.976C191.823 132.916 191.838 132.868 191.868 132.812L191.872 132.8L191.916 132.657C192.237 131.382 192.908 129.49 192.908 129.49C192.364 129.596 189.625 130.013 189.85 129.362C191.733 123.978 193.829 117.991 196.88 113.018C196.972 112.849 197.246 112.966 197.179 113.142C195.58 118.386 193.038 123.322 191.346 128.564C192.205 128.484 193.624 128.29 194.306 128.483C194.477 128.584 192.942 132.116 192.845 132.7C192.845 132.7 192.838 132.723 192.839 132.763C194.963 133.614 196.803 133.409 199.343 132.545C199.496 132.485 199.599 132.631 199.46 132.735Z" fill="#03326C"/>
<path d="M194.243 133.607C194.243 133.607 195.004 135.072 196.283 135.771C196.754 136.03 197.282 136.19 197.875 136.139C199.093 136.04 199.308 135.012 199.254 134.093C199.212 133.337 198.977 132.652 198.977 132.652C198.977 132.652 196.999 133.903 194.243 133.607Z" fill="#03326C"/>
<path d="M196.283 135.771C196.754 136.03 197.282 136.19 197.875 136.139C199.093 136.04 199.308 135.012 199.254 134.093C197.984 134.006 196.601 134.616 196.283 135.771Z" fill="#FF9CBD"/>
<path d="M205.96 124.531C205.979 124.088 205.889 123.609 205.635 123.153C205.381 122.698 204.863 122.377 204.342 122.263C203.804 122.145 203.172 122.346 202.797 122.694C202.423 123.042 202.171 123.445 202.014 123.864C201.913 124.13 201.845 124.402 201.786 124.675C201.671 125.256 201.66 125.846 201.824 126.406C201.885 125.979 201.995 125.569 202.146 125.183C202.285 124.812 202.445 124.47 202.63 124.141C203.021 123.461 203.587 122.94 204.181 123.094C204.818 123.202 205.182 123.788 205.278 124.568C205.378 125.332 205.334 126.157 205.269 126.996C205.681 126.251 205.94 125.419 205.96 124.531Z" fill="#03326C"/>
<path d="M205.334 122.761C205.775 123.161 206.161 123.8 206.753 123.963C207.438 124.153 208.074 123.666 208.634 123.189C208.692 123.14 208.733 123.196 208.72 123.27C208.537 124.333 207.911 125.346 206.705 125.297C205.605 125.253 205.011 124.179 204.938 123.065C204.924 122.859 205.157 122.599 205.334 122.761Z" fill="#03326C"/>
<path d="M188.689 120.573C188.882 120.17 189.188 119.784 189.63 119.491C190.071 119.198 190.684 119.142 191.201 119.27C191.736 119.403 192.203 119.861 192.371 120.336C192.54 120.811 192.573 121.281 192.514 121.723C192.479 122.004 192.41 122.276 192.334 122.545C192.161 123.112 191.891 123.642 191.481 124.068C191.629 123.661 191.724 123.247 191.773 122.837C191.825 122.446 191.844 122.071 191.836 121.697C191.809 120.92 191.552 120.207 190.951 120.08C190.333 119.896 189.733 120.256 189.278 120.907C188.828 121.542 188.477 122.296 188.138 123.07C188.124 122.226 188.287 121.372 188.689 120.573Z" fill="#03326C"/>
<path d="M189.862 119.387C189.343 119.575 188.772 120.001 188.229 119.914C187.6 119.813 187.286 119.117 187.028 118.459C187.001 118.391 186.945 118.427 186.926 118.499C186.641 119.538 186.734 120.709 187.725 121.146C188.629 121.545 189.545 120.805 190.056 119.822C190.151 119.64 190.07 119.311 189.862 119.387Z" fill="#03326C"/>
<path d="M228.566 132.431C225.774 131.716 219.987 122.762 222.525 109.527C222.525 109.527 221.097 121.564 221.654 123.479C222.212 125.394 218.425 118.446 220.318 107.744C220.318 107.744 213.329 110.804 207.836 111.195C202.341 111.587 199.17 110.917 198.875 110.481C198.58 110.045 206.718 109.212 209.27 107.312C209.27 107.312 194.138 110.819 187.665 110.043C186.916 109.953 190.395 98.7411 201.552 94.45C212.71 90.1595 225.626 96.3155 229.003 101.054C229.003 101.054 232.263 103.126 234.529 109.777C237.416 118.248 231.575 133.201 228.566 132.431Z" fill="#03326C"/>
<path d="M220.318 106.32C220.434 106.038 220.899 106.141 220.804 106.447C219.277 111.37 219.277 115.912 219.851 120.996C219.859 121.067 219.738 121.083 219.723 121.014C218.644 115.958 218.319 111.201 220.318 106.32Z" fill="#03326C"/>
<path d="M200.686 111.666C208.27 112.268 215.118 111.257 221.244 106.643C221.373 106.546 221.552 106.702 221.43 106.822C216.073 112.129 207.916 113.134 200.649 111.935C200.493 111.909 200.526 111.653 200.686 111.666Z" fill="#03326C"/>
<path d="M223.097 133.766C223.097 133.766 230.174 127.073 233.419 129.652C236.665 132.231 230.297 142.641 225.751 143.397C221.204 144.154 220.397 140.101 220.397 140.101L223.097 133.766Z" fill="#D3766A"/>
<path d="M231.518 132.593C231.588 132.599 231.582 132.695 231.519 132.707C228.312 133.332 226.225 135.716 224.587 138.284C225.681 137.38 227.001 137.015 228.28 138.303C228.347 138.37 228.249 138.474 228.169 138.442C226.998 137.967 226.077 138.012 225.069 138.807C224.356 139.369 223.792 140.142 223.224 140.839C223.034 141.071 222.58 140.846 222.739 140.567C222.75 140.547 222.764 140.526 222.776 140.505C223.415 136.821 227.367 132.222 231.518 132.593Z" fill="#03326C"/>
<path d="M184.112 241.204C200.784 238.469 246.919 236.208 277.607 237.412C305.09 238.491 329.143 254.407 352.402 269.801C367.097 279.527 380.978 288.714 395.472 294.119C452.339 315.327 483.198 280.471 485 279.119L473.461 278.764L474.975 266.608C473.458 267.732 449.357 297.26 401.37 279.358C388.657 274.617 375.541 265.938 361.656 256.747C337.659 240.866 310.462 222.866 278.272 221.603C246.44 220.354 196.677 221.566 183.993 225.391L184.112 241.204Z" fill="#FF781C"/>
<path d="M219.903 152.454C234.491 130.603 246.31 114.904 267.034 89.4799C277.824 76.2414 291.362 60.4299 296.139 54.7917C302.435 47.3616 333.436 84.1373 328.573 88.7602C325.403 91.7739 314.98 101.498 296.819 116.895C276.131 134.433 258.649 148.994 234.735 165.706C216.684 178.32 210.254 166.909 219.903 152.454Z" fill="#D3766A"/>
<path d="M318.453 95.3563C327.993 93.2893 358.204 78.6669 363.487 74.5051C368.771 70.3434 383.077 57.3033 380.189 53.0702C377.301 48.8366 372.797 52.331 372.797 52.331C372.797 52.331 378.526 45.3697 374.628 41.8954C371.517 39.1229 364.908 43.717 364.908 43.717C364.908 43.717 370.771 35.7695 366.448 32.8013C362.508 30.0969 356.678 36.7881 356.678 36.7881C356.678 36.7881 360.887 29.6577 356.572 27.7591C351.383 25.4746 344.093 37.8116 337.904 41.9835C336.498 42.9309 298.793 58.0843 298.793 58.0843L318.453 95.3563Z" fill="#D3766A"/>
<path d="M356.54 36.3727C350.104 45.0786 347.18 48.4969 337.771 53.3061C337.587 53.3997 337.69 53.6852 337.892 53.6041C347.548 49.7047 351.321 45.8872 357.008 36.6012C357.282 36.1535 356.839 35.9679 356.54 36.3727Z" fill="#03326C"/>
<path d="M364.804 43.6966C358.362 52.6351 354.01 55.7409 344.539 61.4786C344.405 61.56 344.533 61.7873 344.676 61.7168C354.454 56.839 359.929 53.575 365.151 43.8272C365.388 43.3864 365.098 43.2879 364.804 43.6966Z" fill="#03326C"/>
<path d="M372.327 52.6177C365.444 60.8367 360.912 64.7166 350.977 69.1464C350.743 69.2504 350.879 69.5909 351.124 69.5079C361.709 65.9433 367.402 61.1423 372.564 52.8469C372.916 52.2808 372.76 52.1007 372.327 52.6177Z" fill="#03326C"/>
<path d="M291.655 60.5124C291.655 60.5124 297.579 46.8822 312.296 43.6839C318.242 42.3917 328.599 27.4243 333.716 28.4982C339.462 29.7043 333.038 43.674 324.774 50.498C324.774 50.498 331.937 66.2982 324.318 73.2187C322.67 74.7161 311.737 78.6302 309.297 77.7762L291.655 60.5124Z" fill="#D3766A"/>
<path d="M324.189 51.4818C327.202 57.5372 328.604 66.2911 324.909 71.9603C324.802 72.1261 325.03 72.2975 325.162 72.145C329.979 66.5843 328.458 56.4405 325.424 51.1875C324.841 50.1776 323.409 49.9148 324.189 51.4818Z" fill="#03326C"/>
<path d="M281.875 133.642L239.747 121.138C239.747 121.138 229.396 136.697 217.516 155.798C206.239 173.928 216.087 179.232 239.619 165.43C259.281 153.896 281.875 133.642 281.875 133.642Z" fill="#D1D3D2"/>
<path d="M269.366 138.786C255.439 135.502 241.569 130.018 239.059 129.231C238.941 129.194 239.04 129.012 239.157 129.056C241.561 129.953 258.333 134.536 269.474 138.593C269.603 138.64 269.501 138.818 269.366 138.786Z" fill="#03326C"/>
<path d="M230.703 171.872C231.04 171.524 231.387 171.184 231.731 170.843C229.739 172.104 227.703 173.28 225.609 174.386C225.564 174.41 225.519 174.342 225.56 174.313C227.721 172.744 236.259 167.311 237.434 166.506C237.57 166.413 237.739 166.607 237.601 166.699C236.471 167.456 233.941 169.437 232.949 170.079C232.72 170.352 232.489 170.625 232.233 170.877C231.814 171.289 231.393 171.694 230.944 172.076C230.049 172.839 229.126 173.572 228.209 174.31C228.196 174.32 228.18 174.302 228.192 174.291C229.067 173.521 229.894 172.706 230.703 171.872Z" fill="#03326C"/>
<path d="M414.73 334.323L407.646 333.057L406.063 325.842L404.48 333.057L397.395 334.327L404.449 335.992L406.063 342.807L407.676 335.992L414.73 334.323Z" fill="#FF781C"/>
<path d="M318.486 111.032L311.402 109.767L309.819 102.551L308.236 109.767L301.151 111.036L308.205 112.701L309.819 119.516L311.432 112.701L318.486 111.032Z" fill="#FF781C"/>
<path d="M249.336 301.101L242.252 299.836L240.668 292.62L239.085 299.836L232.001 301.105L239.055 302.77L240.668 309.586L242.282 302.77L249.336 301.101Z" fill="#FF781C"/>
<path d="M442.959 381.776L438.999 381.069L438.114 377.036L437.23 381.069L433.27 381.778L437.213 382.709L438.114 386.519L439.016 382.709L442.959 381.776Z" fill="#FF781C"/>
<path d="M274.043 312.442L270.083 311.735L269.199 307.702L268.314 311.735L264.354 312.445L268.297 313.375L269.199 317.184L270.101 313.375L274.043 312.442Z" fill="#FF781C"/>
<path d="M391.828 232.294L387.868 231.586L386.984 227.553L386.099 231.586L382.139 232.296L386.082 233.226L386.984 237.036L387.885 233.226L391.828 232.294Z" fill="#FF781C"/>
<path d="M282.27 64.0383L278.31 63.3311L277.425 59.2982L276.54 63.3311L272.58 64.0403L276.523 64.9712L277.425 68.7804L278.327 64.9712L282.27 64.0383Z" fill="#FF781C"/>
<path d="M88.9961 391.258L85.0363 390.551L84.1515 386.518L83.2665 390.551L79.3068 391.26L83.2497 392.191L84.1515 396L85.0534 392.191L88.9961 391.258Z" fill="#FF781C"/>
<path d="M115.184 213.02L111.224 212.312L110.339 208.28L109.454 212.312L105.495 213.022L109.437 213.953L110.339 217.762L111.241 213.953L115.184 213.02Z" fill="#FF781C"/>
<path d="M298.957 409.317L294.997 408.609L294.112 404.576L293.228 408.609L289.268 409.319L293.211 410.249L294.112 414.059L295.014 410.249L298.957 409.317Z" fill="#FF781C"/>
<path d="M282.805 81.0815C281.328 81.0815 281.326 78.8638 282.805 78.8638C284.283 78.8638 284.285 81.0815 282.805 81.0815Z" fill="#FF781C"/>
<path d="M102.637 414.511C101.16 414.511 101.158 412.293 102.637 412.293C104.114 412.293 104.117 414.511 102.637 414.511Z" fill="#FF781C"/>
<path d="M437.008 192.623C435.532 192.623 435.529 190.405 437.008 190.405C438.486 190.405 438.488 192.623 437.008 192.623Z" fill="#FF781C"/>
<path d="M47.5397 197.24C46.0627 197.24 46.0602 195.022 47.5397 195.022C49.0167 195.022 49.0193 197.24 47.5397 197.24Z" fill="#FF781C"/>
<path d="M329.712 238.145C328.235 238.145 328.232 235.927 329.712 235.927C331.189 235.927 331.191 238.145 329.712 238.145Z" fill="#FF781C"/>
<path d="M95.6902 259.168C94.6453 259.168 94.6436 257.599 95.6902 257.599C96.7352 257.599 96.7369 259.168 95.6902 259.168Z" fill="#FF781C"/>
<path d="M115.184 131.761C114.139 131.761 114.138 130.192 115.184 130.192C116.229 130.192 116.231 131.761 115.184 131.761Z" fill="#FF781C"/>
<path d="M353.057 139.516C352.012 139.516 352.011 137.947 353.057 137.947C354.102 137.947 354.104 139.516 353.057 139.516Z" fill="#FF781C"/>
<path d="M352.274 204.783C351.229 204.783 351.227 203.214 352.274 203.214C353.319 203.214 353.321 204.783 352.274 204.783Z" fill="#FF781C"/>
<path d="M129.335 284.71C126.503 284.71 126.498 280.458 129.335 280.458C132.167 280.458 132.172 284.71 129.335 284.71Z" fill="#FF781C"/>
<path d="M146.138 54.4379C143.306 54.4379 143.301 50.1853 146.138 50.1853C148.97 50.1853 148.975 54.4379 146.138 54.4379Z" fill="#FF781C"/>
</svg>
