<svg width="486" height="527" viewBox="0 0 486 527" fill="none" xmlns="http://www.w3.org/2000/svg">
<path d="M485.989 477.355L425.361 476.878L364.734 476.725L243.489 476.4L122.234 476.725L61.617 476.878L0.989258 477.355L61.617 477.813L122.234 477.985L243.489 478.31L364.734 477.985L425.361 477.813L485.989 477.355Z" fill="#263238"/>
<path d="M228.488 527C107.262 527 8.98825 519.092 8.98825 509.338C8.98825 499.583 107.262 491.676 228.488 491.676C349.715 491.676 447.988 499.583 447.988 509.338C447.988 519.092 349.715 527 228.488 527Z" fill="#EBEBEB"/>
<path d="M426.838 393.736C426.838 393.736 450.595 388.6 463.62 377.135C476.644 365.67 483.932 345.164 483.932 345.164C474.899 346.811 465.994 349.043 457.279 351.846C454.012 355.048 451.289 358.717 449.209 362.722C449.005 360.131 449.005 357.529 449.209 354.939C446.164 356.199 443.315 357.852 440.741 359.852C429.885 368.867 426.838 393.736 426.838 393.736Z" fill="#FF781C"/>
<path d="M469.083 355.136C472.322 353 475.629 350.93 478.854 348.768C478.886 348.738 478.906 348.699 478.911 348.657C478.916 348.614 478.905 348.572 478.881 348.536C478.857 348.501 478.82 348.474 478.778 348.462C478.735 348.449 478.69 348.451 478.649 348.466C472.527 351.965 466.489 355.699 460.656 359.604C458.625 360.914 456.621 362.381 454.645 363.823L455.056 363.154C455.77 362.015 456.525 360.901 457.28 359.787C458.768 357.512 460.453 355.36 462.317 353.354C462.317 353.275 462.317 353.17 462.207 353.249C460.354 355.28 458.501 357.298 456.813 359.459C456.017 360.481 455.262 361.556 454.562 362.643C454.192 363.207 453.835 363.77 453.492 364.347C453.368 364.543 453.245 364.74 453.135 364.936C450.061 367.243 447.069 369.64 444.214 372.182C442.457 373.755 440.756 375.379 439.109 377.057C440.028 374.305 440.824 371.527 441.854 368.828C441.854 368.736 441.73 368.697 441.703 368.828C440.66 371.658 439.534 374.515 438.724 377.423C436.913 379.31 435.17 381.249 433.537 383.28L433.619 382.9C433.88 381.839 434.168 380.765 434.47 379.703C435.046 377.659 435.678 375.615 436.405 373.61C437.77 369.397 439.949 365.464 442.828 362.015C442.828 361.936 442.828 361.831 442.705 361.91C438.253 367.212 435.139 373.421 433.605 380.057C433.358 381.014 433.111 381.983 432.878 382.966C432.754 383.477 432.617 384.001 432.521 384.525C431.807 385.455 431.149 386.386 430.435 387.355C426.383 393.264 423.01 399.572 420.375 406.171C417.4 413.587 414.857 421.154 412.758 428.839C412.758 428.996 412.95 429.035 413.005 428.839C417.644 415.565 422.393 402.109 430.353 390.238C432.027 387.735 433.852 385.324 435.842 382.992C439.779 382.747 443.664 382.006 447.398 380.791C451.479 379.485 455.37 377.693 458.982 375.458C461.034 374.128 463.012 372.698 464.91 371.173C464.923 371.169 464.934 371.162 464.943 371.153C464.952 371.144 464.958 371.133 464.962 371.121C464.965 371.109 464.966 371.097 464.964 371.085C464.961 371.072 464.956 371.061 464.948 371.051C464.94 371.041 464.929 371.033 464.918 371.028C464.906 371.023 464.893 371.02 464.88 371.021C464.867 371.021 464.854 371.025 464.843 371.031C464.831 371.037 464.822 371.045 464.814 371.055C461.5 373.61 457.839 375.726 453.931 377.345C450.088 379.031 446.067 380.318 441.936 381.184C440.179 381.551 438.409 381.826 436.625 382.049C438.824 379.465 441.165 376.993 443.638 374.646C444.434 373.873 445.257 373.139 446.081 372.405C448.858 370.556 451.802 368.946 454.878 367.596C458.762 365.801 462.591 363.901 466.448 362.028C468.63 360.979 470.784 359.892 472.98 358.87C473.076 358.87 472.98 358.7 472.898 358.739C468.987 360.547 465.02 362.224 461.081 363.98C457.362 365.605 453.615 367.229 450.102 369.142L449.663 369.391C452.874 366.771 456.209 364.15 459.613 361.713C462.687 359.477 465.844 357.284 469.083 355.136Z" fill="#263238"/>
<path d="M467.736 366.837C465.801 367.636 463.838 368.357 461.917 369.208C459.996 370.06 458.088 371.122 456.221 372.17C456.139 372.17 456.221 372.327 456.304 372.288C458.198 371.423 460.119 370.61 461.986 369.667C463.852 368.724 465.815 367.754 467.777 366.929C467.873 366.942 467.832 366.798 467.736 366.837Z" fill="#263238"/>
<path d="M349.653 279.467C354.041 284.875 356.525 291.471 356.748 298.309C356.83 300.339 356.487 303.183 356.24 306.511C362.173 309.794 367.429 314.083 371.749 319.168C367.005 316.533 361.555 315.284 356.076 315.578C356.202 317.859 356.504 320.127 356.981 322.365C360.441 322.367 363.868 323.012 367.069 324.265C363.947 324.23 360.852 324.819 357.983 325.995C362.21 338.849 374.809 352.069 409.573 357.69C413.28 341.888 411.101 325.347 403.411 310.913C392.994 291.364 349.653 279.467 349.653 279.467Z" fill="#FF781C"/>
<path d="M421.61 412.684C420.988 407.198 420.22 401.716 419.305 396.24C417.538 385.307 415.197 374.466 412.292 363.758C410.95 358.718 409.291 353.761 407.323 348.912C407.424 348.042 407.466 347.167 407.447 346.292C407.447 345.23 407.447 344.169 407.447 343.108C407.447 340.976 407.337 338.854 407.118 336.74C406.775 332.541 406.063 328.377 404.99 324.292C404.359 321.921 403.618 319.601 402.89 317.256C402.89 317.164 402.698 317.256 402.726 317.256C403.888 321.333 404.745 325.484 405.292 329.678C405.919 333.808 406.313 337.967 406.472 342.138C406.472 343.278 406.472 344.418 406.472 345.558C406.472 346.043 406.472 346.541 406.472 347.026C404.759 343.062 402.802 339.199 400.612 335.456C397.08 329.512 393.103 323.82 388.713 318.422C388.693 317.793 388.597 317.169 388.425 316.562C388.26 315.815 388.096 315.081 387.917 314.334C387.56 312.827 387.162 311.321 386.737 309.814C385.872 306.813 384.719 303.904 383.745 300.93C383.745 300.909 383.736 300.889 383.721 300.874C383.705 300.86 383.684 300.851 383.663 300.851C383.641 300.851 383.62 300.86 383.604 300.874C383.589 300.889 383.58 300.909 383.58 300.93C384.5 303.865 385.117 306.905 385.817 309.905L386.847 314.347C387.025 315.081 387.19 315.828 387.341 316.575V316.732C385.968 315.042 384.5 313.378 383.031 311.727C376.389 304.297 369.115 297.445 361.786 290.631C360.88 289.793 359.961 288.98 359.041 288.155C359.041 288.089 358.863 288.155 358.931 288.273C365.931 295.243 372.834 302.293 379.367 309.683C380.913 311.43 382.437 313.203 383.937 315.002C383.155 314.491 382.359 313.994 381.563 313.509C379.545 312.198 377.446 311.019 375.387 309.879C373.328 308.739 371.146 307.652 368.978 306.63C366.809 305.608 364.366 304.717 362.225 303.524C362.129 303.524 362.047 303.616 362.143 303.655C364.34 304.623 366.459 305.745 368.484 307.01C370.597 308.202 372.711 309.421 374.797 310.679C376.883 311.936 378.914 313.129 380.918 314.387C382.606 315.435 384.28 316.588 386.023 317.557C390.102 322.543 393.856 327.763 397.263 333.189C399.372 336.586 401.296 340.085 403.028 343.671L401.779 343.147L398.595 341.837L392.446 339.216C388.549 337.605 384.582 336.111 380.753 334.342C378.598 333.377 376.516 332.269 374.522 331.027C374.426 331.027 374.358 331.106 374.44 331.171C381.563 335.862 389.537 339.164 397.442 342.492L400.873 343.946C401.806 344.339 402.753 344.785 403.714 345.126C406.052 350.115 408.019 355.255 409.602 360.508C412.704 371.081 415.228 381.8 417.164 392.623C419.154 403.459 420.499 414.374 421.542 425.38C421.679 426.69 421.803 428.105 421.967 429.481C421.967 429.596 422.015 429.706 422.1 429.787C422.185 429.868 422.3 429.914 422.42 429.914C422.54 429.914 422.655 429.868 422.74 429.787C422.825 429.706 422.873 429.596 422.873 429.481C422.818 423.782 422.214 418.213 421.61 412.684Z" fill="#263238"/>
<path d="M400.46 321.017C399.815 317.636 398.868 314.347 397.921 311.046C397.926 311.034 397.929 311.021 397.928 311.008C397.926 310.995 397.922 310.982 397.914 310.971C397.907 310.96 397.897 310.951 397.885 310.945C397.873 310.939 397.859 310.936 397.845 310.936C397.832 310.936 397.818 310.939 397.806 310.945C397.794 310.951 397.784 310.96 397.777 310.971C397.769 310.982 397.765 310.995 397.763 311.008C397.762 311.021 397.765 311.034 397.77 311.046C398.648 314.282 399.28 317.597 399.911 320.886C400.542 324.175 401.146 327.607 401.64 330.988H401.736C401.502 327.644 401.076 324.316 400.46 321.017Z" fill="#263238"/>
<path d="M385.473 330.175C383.052 328.655 380.526 327.294 377.911 326.1C376.648 325.485 375.358 324.882 374.068 324.292C372.778 323.703 371.323 323.165 370.061 322.536C370.041 322.528 370.018 322.527 369.997 322.534C369.977 322.542 369.96 322.557 369.951 322.576C369.942 322.595 369.941 322.617 369.949 322.636C369.957 322.656 369.972 322.672 369.992 322.681C371.255 323.283 372.463 323.991 373.711 324.672L377.568 326.638C380.121 327.948 382.619 329.389 385.281 330.437C385.315 330.441 385.349 330.435 385.38 330.422C385.411 330.408 385.438 330.387 385.457 330.36C385.477 330.333 385.489 330.302 385.492 330.27C385.494 330.237 385.488 330.205 385.473 330.175Z" fill="#263238"/>
<path opacity="0.1" d="M427.277 354.441C427.277 354.441 449.236 349.436 459.351 335.35C468.958 321.894 472.114 298.977 472.361 296.959C471.963 298.806 467.421 318.841 452.461 328.17C441.001 335.324 429.926 341.207 427.277 354.441Z" fill="#263238"/>
<path d="M447.561 318.172C443.654 321.605 440.846 326.026 439.464 330.921C441.073 326.139 443.865 321.797 447.603 318.263C447.754 318.224 447.644 318.106 447.561 318.172Z" fill="#263238"/>
<path d="M427.277 354.44C427.277 354.44 449.236 349.435 459.351 335.35C468.958 321.893 472.114 298.976 472.361 296.959C472.361 296.867 472.361 296.814 472.361 296.814C472.361 296.814 461.848 311.123 450.759 314.844C439.67 318.565 424.093 331.052 427.277 354.44Z" fill="#FF781C"/>
<path d="M468.491 304.703C466.495 308.559 464.201 312.269 461.629 315.801C459.063 319.154 456.013 322.145 452.571 324.685C449.593 326.951 446.436 329.008 443.403 331.236C443.41 331.201 443.41 331.166 443.403 331.131C443.979 330.332 444.583 329.546 445.214 328.786C446.463 327.253 447.85 325.798 449.222 324.37C451.967 321.54 454.712 318.762 457.196 315.696C458.563 314.008 459.744 312.19 460.723 310.271C460.723 310.193 460.613 310.14 460.572 310.271C457.004 317.36 449.881 321.894 444.803 327.895C444.075 328.731 443.397 329.606 442.772 330.515C442.266 331.178 441.842 331.895 441.509 332.651C438.718 334.778 436.199 337.21 434.002 339.897C434.189 338.52 434.482 337.158 434.88 335.822C435.391 333.952 436.176 332.161 437.213 330.502C437.213 330.41 437.131 330.332 437.076 330.41C436.017 332.06 435.156 333.818 434.51 335.652C434.049 337.126 433.782 338.648 433.713 340.185C432.625 341.589 431.635 343.06 430.749 344.588C430.831 344.142 430.927 343.697 431.024 343.277C431.449 341.194 431.943 339.111 432.506 337.04C433.545 332.849 435.333 328.86 437.79 325.248C437.8 325.241 437.809 325.232 437.816 325.221C437.822 325.21 437.825 325.198 437.826 325.185C437.826 325.173 437.824 325.161 437.818 325.149C437.813 325.138 437.804 325.128 437.794 325.121C437.784 325.113 437.772 325.108 437.759 325.106C437.746 325.103 437.733 325.104 437.721 325.107C437.708 325.111 437.697 325.117 437.687 325.125C437.678 325.134 437.67 325.145 437.666 325.156C435.14 328.724 433.166 332.62 431.806 336.726C431.106 338.783 430.543 340.88 430.049 342.989C429.802 344.024 429.582 345.059 429.377 346.108C429.267 346.645 429.143 347.195 429.061 347.745C426.915 352.332 425.255 357.112 424.106 362.014C421.951 370.758 420.387 379.625 419.426 388.56C418.307 397.894 417.807 407.285 417.931 416.679C417.931 417.858 418.027 419.037 418.095 420.217C418.095 420.518 418.589 420.557 418.603 420.217C418.823 415.552 418.946 410.901 419.234 406.236C419.523 401.571 419.948 396.933 420.47 392.295C421.474 383.176 423.004 374.117 425.053 365.159C426.838 357.481 429.171 349.75 433.535 343.028C435.723 339.687 438.394 336.657 441.468 334.027C444.556 331.406 447.932 329.061 451.171 326.624C454.466 324.242 457.455 321.497 460.078 318.448C462.77 315.059 465.114 311.43 467.077 307.612C467.599 306.655 468.12 305.712 468.656 304.768C468.711 304.703 468.532 304.624 468.491 304.703Z" fill="#263238"/>
<path d="M346.565 345.164C346.565 345.164 346.222 374.986 364.9 383.608C383.579 392.229 393.598 385.036 406.293 387.931C405.799 387.224 396.686 374.829 382.33 371.37C367.508 367.819 351.08 357.585 346.565 345.164Z" fill="#FF781C"/>
<path opacity="0.1" d="M346.565 345.164C346.565 345.164 346.222 374.986 364.9 383.608C383.579 392.229 393.598 385.036 406.293 387.931C399.565 384.88 392.378 382.855 384.993 381.93C373.272 380.581 350.764 373.243 346.565 345.164Z" fill="#251212"/>
<path d="M407.542 388.455C405.309 386.523 402.8 384.904 400.09 383.646L398.868 383.161C398.662 382.912 398.457 382.69 398.237 382.467C397.674 381.917 397.098 381.379 396.48 380.882C395.312 379.902 394.053 379.025 392.72 378.261C389.618 376.518 386.228 375.313 383.113 373.688C383.017 373.688 382.934 373.78 383.03 373.832C384.595 374.605 386.105 375.457 387.628 376.309C389.152 377.16 390.62 377.92 392.061 378.811C393.361 379.598 394.6 380.474 395.767 381.432C396.096 381.707 396.412 381.995 396.727 382.31C394.662 381.643 392.553 381.104 390.414 380.698C386.983 380.043 383.552 379.571 380.121 378.877C378.445 378.528 376.791 378.091 375.166 377.567C373.616 376.374 372.065 375.182 370.596 373.898C368.82 372.344 367.202 370.633 365.765 368.788C365.765 368.709 365.559 368.788 365.628 368.866C367.893 371.793 370.459 374.497 373.286 376.938C372.476 376.636 371.68 376.335 370.898 375.994C364.482 373.24 358.976 368.863 354.978 363.337C354.978 363.258 354.786 363.337 354.841 363.429C358.242 368.159 362.623 372.173 367.714 375.221C370.273 376.734 373.003 377.965 375.853 378.89C379.165 379.872 382.545 380.633 385.967 381.17C389.322 381.697 392.633 382.451 395.876 383.423C398.831 384.397 401.609 385.803 404.111 387.59C408.864 391.124 412.693 395.663 415.296 400.85C418.64 407.734 420.729 415.112 421.472 422.666C421.472 422.981 422.021 422.981 422.008 422.666C421.184 410.219 417.671 397.168 407.542 388.455Z" fill="#263238"/>
<path d="M385.857 378.733C384.879 377.342 383.56 376.2 382.014 375.405C380.243 374.53 378.689 373.301 377.458 371.802C377.389 371.723 377.252 371.802 377.307 371.881C378.434 373.242 379.799 374.408 381.342 375.327C383.04 376.19 384.538 377.371 385.747 378.799C385.789 378.864 385.912 378.799 385.857 378.733Z" fill="#263238"/>
<path d="M395.779 410.482L396.616 426.887L399.224 477.005H438.42L441.028 426.887L441.879 410.482H395.779Z" fill="#37474F"/>
<path d="M395.779 410.482L396.616 426.887H441.028L441.879 410.482H395.779Z" fill="#263238"/>
<path d="M393.022 403.629H444.625V419.274H393.022V403.629Z" fill="#37474F"/>
<path d="M277.225 389.656C277.225 331.841 238.334 284.795 190.545 284.795C142.756 284.795 103.878 331.89 103.878 389.656C103.878 447.422 142.756 494.518 190.545 494.518C238.334 494.518 277.225 447.484 277.225 389.656ZM268.544 389.656C268.544 442.849 233.552 486.115 190.558 486.115C147.563 486.115 112.572 442.849 112.572 389.656C112.572 336.463 147.563 293.21 190.558 293.21C233.552 293.21 268.544 336.476 268.544 389.656Z" fill="#03326C"/>
<path d="M274.067 389.656C274.067 338.409 239.664 296.705 197.36 296.705C155.056 296.705 120.652 338.409 120.652 389.656C120.652 440.903 155.043 482.608 197.36 482.608C239.677 482.608 274.067 440.916 274.067 389.656ZM267.867 389.656C267.867 437.607 236.251 476.609 197.385 476.609C158.52 476.609 126.917 437.607 126.917 389.656C126.917 341.706 158.533 302.704 197.385 302.704C236.238 302.704 267.867 341.718 267.867 389.656Z" fill="#D1D3D2"/>
<path d="M206.871 389.655C206.871 398.058 201.297 404.862 194.432 404.862C187.566 404.862 182.005 398.058 182.005 389.655C182.005 381.253 187.566 374.461 194.432 374.461C201.297 374.461 206.871 381.265 206.871 389.655Z" fill="#D1D3D2"/>
<path d="M210.847 389.655C210.847 398.058 205.285 404.862 198.42 404.862C191.555 404.862 185.968 398.009 185.968 389.655C185.968 381.302 191.555 374.461 198.42 374.461C205.285 374.461 210.847 381.265 210.847 389.655Z" fill="#DBDBDB"/>
<path d="M198.42 386.656H310.988V392.667H198.42V386.656Z" fill="#D1D3D2"/>
<path d="M84.2163 477.638C84.2163 488.557 76.9675 497.406 68.0438 497.406C59.1202 497.406 51.8713 488.557 51.8713 477.638C51.8713 466.72 59.1074 457.809 68.0438 457.809C76.9802 457.809 84.2163 466.72 84.2163 477.638Z" fill="#D1D3D2"/>
<path d="M73.2211 497.404C64.2892 497.404 57.0486 488.554 57.0486 477.637C57.0486 466.719 64.2892 457.869 73.2211 457.869C82.1529 457.869 89.3936 466.719 89.3936 477.637C89.3936 488.554 82.1529 497.404 73.2211 497.404Z" fill="#DBDBDB"/>
<path d="M198.842 298.316H70.7788V250.378H198.842V298.316Z" fill="#A6A6A6"/>
<path d="M178.093 413.626H70.7796V407.615H178.093C182.756 407.611 187.226 405.815 190.524 402.621C193.822 399.426 195.678 395.093 195.685 390.574V130.112C195.692 123.994 198.202 118.128 202.665 113.801C207.128 109.475 213.178 107.042 219.49 107.035H233.949V113.046H219.49C214.823 113.053 210.349 114.853 207.049 118.052C203.749 121.251 201.892 125.588 201.885 130.112V390.574C201.872 396.686 199.361 402.543 194.901 406.864C190.442 411.184 184.398 413.616 178.093 413.626Z" fill="#D1D3D2"/>
<path d="M73.8717 457.857H67.6839V247.911C67.6907 242.406 69.9508 237.127 73.968 233.235C77.9852 229.343 83.4313 227.156 89.1109 227.152H198.751V233.176H89.0725C85.0341 233.179 81.1618 234.735 78.305 237.502C75.4482 240.269 73.8401 244.021 73.8333 247.936L73.8717 457.857Z" fill="#D1D3D2"/>
<path d="M253.138 115.809H214.759V103.861H253.138V115.809Z" fill="#263238"/>
<path d="M310.988 289.008H201.564L201.564 143.706H310.988V289.008Z" fill="#03326C"/>
<path d="M272.405 158.603C262.803 170.625 245.762 175.508 230.778 176.735C215.437 177.974 198.28 176.921 184.306 170.29C178.033 167.487 172.69 163.045 168.875 157.463C164.95 151.403 164.375 144.971 168.351 139.146C171.547 134.461 178.668 131.015 178.579 126.752C178.489 122.489 174.884 119.229 173.823 115.164C172.02 108.224 175.779 102.932 180.675 98.3214C192.271 87.3532 188.793 73.2494 195.799 59.7652C199.775 52.0937 211.141 37.8783 232.184 43.8892C240.175 46.1696 245.749 53.1347 249.124 60.3849C253.087 68.924 250.607 80.2889 255.414 88.481C259.518 95.4585 265.373 96.4748 269.311 103.812C271.011 106.984 271.868 110.715 268.531 118.362C267.316 121.125 266.051 125.314 267.252 128.562C268.953 133.048 274.463 135.019 276.355 139.716C279.001 146.136 276.636 153.287 272.405 158.603Z" fill="#03326C"/>
<path d="M173.566 159.162C166.381 158.146 163.121 148.529 167.57 143.509C170.396 140.324 174.691 138.8 177.517 135.627C182.17 130.422 177.849 125.861 175.19 120.866C169.437 110.047 176.89 102.536 184.791 95.6579C190.774 90.4279 191.899 84.5038 192.168 76.9809C192.168 76.8694 191.976 76.857 191.963 76.9809C191.49 82.5456 190.8 88.0236 186.913 92.4356C183.756 96.0174 179.498 98.5084 176.443 102.226C171.329 108.423 170.792 115.141 174.615 122.056C175.701 124.051 177.76 126.307 178.233 128.501C179.332 133.681 175.382 136.42 171.636 139.048C168.759 141.055 165.576 143.286 164.54 146.769C162.981 152.036 167.903 159.075 173.49 159.559C173.758 159.608 173.86 159.199 173.566 159.162Z" fill="#263238"/>
<path d="M177.555 164.392C173.119 161.913 168.312 159.57 165.64 155.059C161.703 148.379 166.395 143.236 170.754 138.39C172.646 136.308 174.206 134.238 174.065 131.35C173.848 127.025 170.562 123.443 169.961 119.168C168.53 108.943 178.757 102.598 183.845 95.0127C188.934 87.4279 190.621 78.2567 192.411 69.3582C192.402 69.3275 192.382 69.3006 192.356 69.2814C192.329 69.2623 192.297 69.252 192.264 69.252C192.231 69.252 192.199 69.2623 192.172 69.2814C192.146 69.3006 192.127 69.3275 192.117 69.3582C189.752 80.7354 186.492 91.4186 178.438 100.268C172.825 106.464 166.842 113.132 169.629 121.907C170.319 124.063 171.649 126.021 172.288 128.165C173.567 132.454 172.403 135.254 169.552 138.365C166.701 141.476 163.62 144.426 163.16 148.639C162.265 156.794 170.639 162.074 177.223 165.098C177.271 165.119 177.323 165.131 177.375 165.133C177.428 165.135 177.48 165.126 177.529 165.108C177.579 165.091 177.624 165.064 177.662 165.029C177.701 164.994 177.732 164.952 177.754 164.906C177.798 164.812 177.802 164.705 177.764 164.609C177.727 164.512 177.652 164.434 177.555 164.392Z" fill="#263238"/>
<path d="M278.286 137.127C274.693 132.169 269.017 129.79 270.449 122.725C271.446 117.842 274.118 113.938 273.083 108.783C272.239 104.519 269.413 101.235 266.102 98.4464C261.883 94.9018 257.23 92.0514 254.161 87.4162C250.799 82.3596 249.265 76.4231 247.68 70.6974C247.68 70.5858 247.449 70.623 247.475 70.6974C249.15 78.4929 251.17 86.4867 257.242 92.2868C260.413 95.3232 264.261 97.6036 267.393 100.665C273.031 106.18 273.006 112.24 270.615 119.168C269.516 122.353 268.531 125.551 270.027 128.773C271.523 131.996 274.681 133.991 276.892 136.693C286.289 148.157 271.97 162.793 260.106 164.938C259.582 165.037 259.646 165.842 260.196 165.756C269.068 164.417 278.439 156.51 280.383 147.958C280.83 146.111 280.875 144.193 280.514 142.328C280.153 140.463 279.394 138.691 278.286 137.127Z" fill="#263238"/>
<path d="M277.902 143.285C277.812 138.129 274.514 135.279 271.97 131.251C267.968 124.905 272.098 118.634 272.596 111.929C272.695 109.731 272.342 107.535 271.558 105.469C270.775 103.403 269.576 101.509 268.032 99.8954C264.056 95.3098 258.968 92.0379 255.695 86.7707C252.269 81.1264 250.621 74.6345 250.952 68.0937C250.952 67.9697 250.773 67.9945 250.76 68.0937C250.35 72.5049 250.895 76.9506 252.359 81.1462C253.823 85.3418 256.174 89.195 259.262 92.4593C263.251 96.6111 268.633 100.007 270.87 105.609C273.223 111.545 270.154 116.961 269.336 122.861C269.058 124.595 269.141 126.366 269.58 128.069C270.019 129.771 270.806 131.372 271.893 132.775C273.491 134.981 275.46 137.002 276.355 139.654C277.569 143.26 276.764 147.276 275.255 150.696C270.487 161.528 258.827 168.32 247.717 170.08C247.321 170.142 247.359 170.761 247.717 170.699C252.759 169.971 257.602 168.282 261.966 165.729C266.331 163.177 270.13 159.811 273.146 155.827C275.882 152.295 278.017 147.833 277.902 143.285Z" fill="#263238"/>
<path d="M10.5511 469.729C14.1053 470.882 118.223 470.225 122.071 467.82C122.531 467.56 122.672 458.439 122.646 445.934V445.698C122.646 437.779 124.973 370.098 124.973 370.098L59.7718 369.738L55.9364 436.366C55.9364 436.366 41.8733 442.092 29.6641 447.768C22.1212 451.25 15.6011 454.423 14.0669 455.588C10.1165 458.736 6.98425 468.651 10.5511 469.729Z" fill="#C95F50"/>
<path d="M10.5637 469.729C14.105 470.882 118.223 470.225 122.071 467.821C122.518 467.573 122.659 459.145 122.646 447.409C114.681 448.561 42.5635 458.873 28.8713 457.856C14.3607 456.791 37.552 444.422 37.552 444.422H37.1557C34.6755 445.525 32.1313 446.677 29.6639 447.818C22.1082 451.3 15.6009 454.473 14.0539 455.638C10.1163 458.736 6.98404 468.651 10.5637 469.729Z" fill="#FF781C"/>
<path d="M56.2687 470.212C86.1079 469.977 119.91 469.171 122.071 467.82C122.531 467.56 122.672 458.439 122.646 445.933V445.698C122.646 437.779 124.986 370.098 124.986 370.098H119.872L56.2687 470.212Z" fill="#263238"/>
<path d="M221.201 175.979L210.974 203.307C210.974 203.307 105.667 216.345 82.4119 246.622C55.7049 281.324 48.8141 433.095 48.8141 433.095L125.79 431.67C125.79 431.67 135.302 297.398 143.126 287.062C150.95 276.726 260.744 266.563 281.877 250.65C303.01 234.737 287.285 175.248 287.285 175.248L221.201 175.979Z" fill="#03326C"/>
<path d="M124.896 417.824C122.582 417.539 120.243 417.539 117.916 417.477C115.589 417.415 113.314 417.415 111 417.365C106.282 417.291 101.552 417.365 96.8215 417.365C87.3737 417.365 77.9258 417.477 68.478 417.7C65.8316 417.7 63.1724 417.774 60.526 417.886C57.8796 417.997 55.2076 418.034 52.574 418.381C52.4717 418.381 52.4206 418.567 52.574 418.58C57.1853 418.985 61.8161 419.142 66.4453 419.051C71.1756 419.051 75.8931 419.137 80.6234 419.137C90.0755 419.137 99.5276 419.067 108.98 418.927C111.626 418.927 114.272 418.79 116.932 418.716C119.585 418.71 122.235 418.561 124.871 418.27C125.075 418.233 125.19 417.861 124.896 417.824Z" fill="white"/>
<path d="M277.404 240.848C261.244 247.639 244.023 251.754 226.764 254.902C209.505 258.05 191.849 260.219 174.347 262.772C165.577 264.011 156.64 265.176 148.151 267.729C144.457 268.832 140.583 270.134 137.604 272.587C134.625 275.041 133.219 278.722 132.49 282.44C130.649 291.24 129.345 300.188 127.952 309.062C126.558 317.935 125.254 327.168 124.04 336.228C121.598 354.496 119.552 372.789 117.494 391.094C117.238 393.3 117.021 395.519 116.804 397.725C116.804 397.96 117.136 398.047 117.174 397.811C119.591 379.791 121.726 361.746 124.168 343.726C126.609 325.706 129.281 307.723 132.375 289.802C133.066 285.824 133.449 281.511 135.124 277.78C136.799 274.05 140.072 271.869 143.83 270.344C152.038 267.048 161 265.796 169.706 264.457C186.914 261.793 204.225 259.698 221.382 256.637C238.521 253.758 255.343 249.323 271.625 243.388C273.602 242.645 275.567 241.868 277.519 241.058C277.595 240.996 277.531 240.798 277.404 240.848Z" fill="#263238"/>
<path d="M64.2845 470.635C67.8259 471.787 171.944 471.13 175.792 468.726C176.252 468.466 176.393 459.344 176.38 446.852V446.604C176.38 438.684 178.707 371.003 178.707 371.003L113.505 370.656L109.67 437.271C109.67 437.271 95.6067 442.997 83.3974 448.673C75.8418 452.156 69.3344 455.329 67.7875 456.494C63.837 459.629 60.6793 469.519 64.2845 470.635Z" fill="#C95F50"/>
<path d="M64.2829 470.636C67.8243 471.789 171.955 471.132 175.803 468.727C176.25 468.467 176.404 459.73 176.378 447.658C163.121 449.555 97.2416 458.813 84.2141 457.871C70.0616 456.83 91.8082 445.019 92.8565 444.461C89.7626 445.824 86.4642 447.274 83.3831 448.724C75.8402 452.207 69.3201 455.38 67.7859 456.545C63.8483 459.631 60.6777 469.521 64.2829 470.636Z" fill="#FF781C"/>
<path d="M107.508 433.95L182.669 433.714C182.669 433.714 174.052 290.681 188.115 280.729C200.337 272.053 262.573 269.922 293.473 248.27C318.569 230.696 296.35 175.074 296.35 175.074L228.86 176.314C228.86 176.314 219.757 196.75 218.236 202.935C218.236 202.935 144.98 222.343 124.589 247.39C101.73 275.486 107.508 433.95 107.508 433.95Z" fill="#03326C"/>
<path d="M221.2 175.979L210.973 203.307C210.973 203.307 105.666 216.345 82.411 246.622C55.704 281.324 48.8131 433.095 48.8131 433.095L125.789 431.67C125.789 431.67 135.301 297.398 143.125 287.062C150.949 276.726 260.743 266.563 281.876 250.65C303.009 234.737 287.284 175.248 287.284 175.248L221.2 175.979Z" fill="#03326C"/>
<path d="M107.508 433.95L182.669 433.714C182.669 433.714 174.052 290.681 188.115 280.729C200.337 272.053 262.573 269.922 293.473 248.27C318.569 230.696 296.35 175.074 296.35 175.074L228.86 176.314C228.86 176.314 219.757 196.75 218.236 202.935C218.236 202.935 144.98 222.343 124.589 247.39C101.73 275.486 107.508 433.95 107.508 433.95Z" fill="#03326C"/>
<path d="M180.854 421.26C178.573 421.026 176.282 420.91 173.988 420.913C171.726 420.851 169.45 420.838 167.187 420.789C162.546 420.702 157.893 420.789 153.252 420.789C143.97 420.789 134.676 420.875 125.394 421.086C122.837 421.148 120.178 421.16 117.57 421.272C114.962 421.383 112.341 421.408 109.759 421.755C109.656 421.755 109.605 421.941 109.759 421.954C114.289 422.362 118.838 422.524 123.387 422.437C128.041 422.495 132.686 422.532 137.322 422.548C146.612 422.548 155.903 422.486 165.193 422.363C167.75 422.363 170.409 422.226 173.017 422.152C175.627 422.15 178.235 422.005 180.828 421.718C181.084 421.668 181.199 421.297 180.854 421.26Z" fill="white"/>
<path d="M218.237 202.949C199.06 208.873 180.279 215.058 161.985 223.027C153.739 226.621 145.365 230.165 137.783 235.048C130.776 239.482 125.009 245.528 120.997 252.647C117.219 259.899 114.66 267.689 113.416 275.724C111.843 284.474 111.051 293.36 110.207 302.196C108.277 322.1 106.973 342.054 106.5 362.032C106.027 382.01 106.346 402.113 107.343 422.141C107.471 424.619 107.663 427.185 107.791 429.713C107.791 429.887 108.085 429.874 108.072 429.713C107.305 409.983 107.446 390.165 107.97 370.435C108.494 350.704 109.53 330.937 111.23 311.256C112.048 301.824 112.905 292.381 114.183 282.999C115.074 274.954 116.981 267.046 119.859 259.451C122.821 251.863 127.769 245.153 134.217 239.981C140.967 234.689 148.855 230.958 156.705 227.476C174.705 219.482 216.409 204.35 218.723 203.556C219.886 203.16 219.439 202.577 218.237 202.949Z" fill="white"/>
<path d="M292.502 186.861C291.838 184.307 291.071 181.779 290.201 179.276C290.178 179.226 290.136 179.187 290.085 179.165C290.033 179.143 289.975 179.141 289.922 179.157C289.868 179.174 289.823 179.209 289.794 179.256C289.766 179.303 289.756 179.359 289.766 179.412C292.883 189.655 294.792 200.207 295.456 210.867C295.893 216.002 295.696 221.17 294.868 226.259C293.912 231.139 291.6 235.673 288.181 239.372C281.533 246.101 272.252 250.526 263.264 253.24C253.036 256.376 242.4 258.334 231.942 260.676C221.075 263.155 186.467 271.917 184.166 272.871C182.307 273.544 180.777 274.872 179.883 276.589C178.971 278.727 178.285 280.948 177.837 283.22C172.724 303.62 172.238 322.991 172.136 343.874C172.033 365.947 172.43 387.982 173.414 410.03C173.542 412.691 173.653 415.359 173.746 418.036C173.746 418.21 174.04 418.198 174.028 418.036C173.695 406.969 173.708 395.889 173.682 384.809C173.657 373.73 173.567 362.675 173.567 351.595C173.567 330.439 173.491 310.696 177.671 289.888C178.208 287.248 180.458 277.172 182.133 275.486C183.808 273.801 218.85 265.063 229.807 262.61C240.252 260.267 250.837 258.334 261.129 255.421C270.18 252.868 280.037 248.593 287.312 242.606C290.572 239.646 293.079 235.994 294.637 231.936C296.347 227.394 297.074 222.559 296.772 217.733C296.566 207.318 295.133 196.96 292.502 186.861Z" fill="white"/>
<path d="M287.86 201.088C282.823 199.477 276.763 198.808 272.71 195.176C270.904 193.443 269.626 191.26 269.016 188.868C268.637 187.484 268.359 186.076 268.185 184.654C267.919 183.149 267.735 181.63 267.635 180.106C267.635 179.932 267.354 179.945 267.354 180.106C267.354 181.779 267.008 183.427 267.021 185.063C267.04 186.542 267.207 188.016 267.52 189.463C268.043 192.087 269.319 194.514 271.202 196.465C273.254 198.269 275.78 199.487 278.502 199.985C281.546 200.791 284.662 201.309 287.809 201.534C288.116 201.596 288.116 201.163 287.86 201.088Z" fill="#263238"/>
<path d="M236.8 113.107C232.236 130.123 208.01 186.451 193.077 190.343C181.967 193.243 173.645 183.675 173.414 172.273C173.223 162.359 209.339 122.774 219.554 111.793C229.283 101.333 241.262 96.3879 236.8 113.107Z" fill="#C95F50"/>
<path d="M179.14 186.464C187.501 196.838 199.941 186.898 201.743 177.876C206.001 156.695 207.215 118.759 201.258 100.131C199.34 94.1327 163.569 87.1552 162.635 93.8105C160.999 105.621 162.175 165.42 179.14 186.464Z" fill="#C95F50"/>
<path d="M162.279 98.0874C162.215 90.7753 165.436 77.0185 170.563 65.4677C173.056 59.8411 182.772 45.0804 187.375 46.5924C191.977 48.1044 189.804 52.9007 189.804 52.9007C189.804 52.9007 194.573 46.9271 199.06 48.8728C203.547 50.8186 199.891 58.0564 199.891 58.0564C199.891 58.0564 205.248 52.2811 209.582 54.5243C213.916 56.7675 208.968 63.46 208.968 63.46C208.968 63.46 213.609 57.9573 216.383 61.2663C219.707 65.2323 209.991 74.453 207.523 80.7985C206.974 82.2485 198.485 110.816 198.485 110.816L162.279 98.0874Z" fill="#C95F50"/>
<path d="M208.98 63.5944C201.834 70.386 199.916 74.5626 197.64 83.8577C197.64 83.8972 197.624 83.935 197.595 83.9629C197.567 83.9908 197.528 84.0065 197.487 84.0065C197.446 84.0065 197.407 83.9908 197.378 83.9629C197.35 83.935 197.333 83.8972 197.333 83.8577C198.701 74.5626 200.338 68.9855 208.661 63.2845C208.98 62.9623 209.287 63.2721 208.98 63.5944Z" fill="#263238"/>
<path d="M200.03 57.6961C193.229 65.3801 191.081 69.8913 187.987 79.4591C187.987 79.5955 187.706 79.5335 187.744 79.4591C189.995 69.817 191.746 64.3019 199.57 57.4854C199.954 57.1136 200.363 57.3491 200.03 57.6961Z" fill="#263238"/>
<path d="M189.253 53.5561C183.232 61.4507 180.688 66.2966 178.885 75.9635C178.874 76.0032 178.85 76.0382 178.817 76.0632C178.783 76.0883 178.742 76.1018 178.7 76.1018C178.657 76.1018 178.616 76.0883 178.583 76.0632C178.549 76.0382 178.525 76.0032 178.514 75.9635C179.358 65.9248 182.49 59.852 188.985 53.4445C189.432 52.9612 189.637 53.0603 189.253 53.5561Z" fill="#263238"/>
<path d="M198.945 117.717C198.945 117.717 207.255 108.596 209.991 103.812C212.727 99.0279 216.153 77.55 211.41 76.5461C205.286 75.3068 200.786 87.3037 199.38 93.4633C199.38 93.4633 185.214 90.526 180.062 98.4207C174.91 106.315 198.945 117.717 198.945 117.717Z" fill="#C95F50"/>
<path d="M209.607 76.7573C203.214 79.5086 201.847 87.7255 200.018 93.6001C199.998 93.6887 199.956 93.771 199.894 93.8396C199.833 93.9082 199.755 93.9609 199.667 93.9929C199.58 94.0249 199.485 94.0352 199.393 94.0229C199.3 94.0106 199.212 93.976 199.136 93.9223C193.115 93.0795 184.37 93.5877 179.959 98.1237C179.936 98.1533 179.901 98.1725 179.862 98.1771C179.824 98.1818 179.785 98.1715 179.755 98.1485C179.724 98.1255 179.704 98.0916 179.7 98.0544C179.695 98.0173 179.705 97.9797 179.729 97.9502C183.756 92.4598 192.309 91.2825 198.906 92.621C200.683 86.5605 202.371 78.3808 209.632 76.6953C209.62 76.6953 209.645 76.7449 209.607 76.7573Z" fill="#263238"/>
<path d="M205.145 127.693C205.004 130.755 204.927 133.89 204.838 136.889C204.748 139.889 204.71 143.024 204.582 146.085C204.454 149.147 204.416 152.208 204.288 155.269C204.16 158.33 204.007 161.391 203.764 164.452C204.369 161.434 204.796 158.384 205.042 155.318C205.324 152.257 205.439 149.122 205.554 146.11C205.669 143.098 205.656 139.913 205.554 136.889C205.451 133.865 205.426 130.755 205.145 127.693Z" fill="#263238"/>
<path d="M205.785 160.574C206.226 158.819 206.378 157.008 206.232 155.207C206.127 153.401 205.694 151.626 204.954 149.965C204.954 151.774 205.133 153.509 205.248 155.282C205.363 157.054 205.516 158.814 205.785 160.574Z" fill="#263238"/>
<path d="M212.624 199.54L215.181 165.16C215.181 165.16 205.4 154.192 207.842 144.525C209.121 139.63 222.404 109.997 229.18 102.945C235.572 96.3392 247.577 99.6482 252.192 103.205C277.902 122.936 287.695 147.71 301.898 191.955L212.624 199.54Z" fill="#FF781C"/>
<path d="M242.297 104.692C242.315 104.866 242.387 105.03 242.502 105.163C242.616 105.297 242.77 105.395 242.942 105.444C243.114 105.494 243.298 105.493 243.469 105.441C243.641 105.389 243.793 105.289 243.905 105.154C244.018 105.018 244.087 104.853 244.103 104.68C244.119 104.506 244.082 104.332 243.996 104.179C243.91 104.026 243.779 103.902 243.62 103.821C243.461 103.74 243.281 103.707 243.102 103.726C242.863 103.751 242.644 103.867 242.493 104.048C242.342 104.229 242.271 104.461 242.297 104.692ZM230.599 105.002C230.777 104.984 230.958 105.017 231.117 105.097C231.276 105.178 231.407 105.303 231.493 105.456C231.579 105.609 231.616 105.783 231.6 105.956C231.584 106.13 231.515 106.295 231.402 106.43C231.289 106.566 231.137 106.665 230.966 106.717C230.794 106.769 230.611 106.77 230.439 106.721C230.266 106.672 230.113 106.574 229.998 106.44C229.883 106.306 229.812 106.142 229.793 105.969C229.768 105.737 229.839 105.505 229.99 105.324C230.141 105.143 230.36 105.027 230.599 105.002ZM257.229 117.396C257.408 117.377 257.588 117.41 257.747 117.491C257.906 117.572 258.037 117.696 258.123 117.849C258.209 118.002 258.246 118.176 258.23 118.35C258.214 118.523 258.145 118.688 258.032 118.824C257.92 118.959 257.768 119.059 257.596 119.111C257.425 119.163 257.241 119.164 257.069 119.115C256.897 119.065 256.743 118.967 256.628 118.833C256.514 118.7 256.442 118.536 256.424 118.362C256.412 118.139 256.489 117.92 256.639 117.749C256.789 117.579 257 117.47 257.229 117.445V117.396ZM244.726 118.635C244.847 118.616 244.972 118.621 245.091 118.651C245.211 118.68 245.323 118.732 245.421 118.805C245.519 118.877 245.601 118.969 245.661 119.073C245.722 119.177 245.759 119.292 245.773 119.411C245.786 119.53 245.773 119.65 245.737 119.764C245.701 119.878 245.641 119.984 245.56 120.075C245.48 120.166 245.382 120.24 245.272 120.293C245.161 120.346 245.041 120.376 244.917 120.383C244.679 120.404 244.442 120.334 244.256 120.188C244.069 120.042 243.949 119.832 243.92 119.602C243.92 119.377 244.008 119.16 244.168 118.997C244.327 118.833 244.545 118.735 244.777 118.722L244.726 118.635ZM232.222 119.875C232.398 119.858 232.575 119.893 232.731 119.974C232.886 120.055 233.013 120.179 233.097 120.33C233.18 120.481 233.215 120.653 233.198 120.823C233.18 120.993 233.111 121.155 233 121.288C232.888 121.42 232.738 121.518 232.569 121.568C232.4 121.618 232.22 121.618 232.051 121.569C231.881 121.52 231.731 121.424 231.618 121.292C231.505 121.16 231.435 120.999 231.417 120.829C231.425 120.619 231.511 120.42 231.659 120.267C231.807 120.115 232.007 120.019 232.222 119.998V119.875ZM219.719 121.114C219.898 121.095 220.078 121.128 220.237 121.209C220.396 121.29 220.527 121.414 220.613 121.567C220.699 121.72 220.736 121.894 220.72 122.068C220.704 122.241 220.635 122.406 220.522 122.542C220.41 122.677 220.258 122.777 220.086 122.829C219.915 122.881 219.731 122.882 219.559 122.833C219.387 122.783 219.233 122.685 219.119 122.552C219.004 122.418 218.932 122.254 218.914 122.081C218.927 121.874 219.015 121.679 219.163 121.53C219.31 121.38 219.507 121.285 219.719 121.263V121.114ZM250.197 110.765C250.376 110.747 250.556 110.78 250.715 110.86C250.875 110.941 251.006 111.066 251.092 111.219C251.178 111.372 251.215 111.546 251.199 111.719C251.183 111.893 251.114 112.058 251.001 112.193C250.888 112.329 250.736 112.428 250.565 112.48C250.393 112.532 250.21 112.533 250.037 112.484C249.865 112.435 249.712 112.337 249.597 112.203C249.482 112.069 249.411 111.905 249.392 111.732C249.406 111.526 249.494 111.331 249.641 111.181C249.788 111.031 249.985 110.937 250.197 110.914V110.765ZM237.694 112.005C237.816 111.986 237.94 111.991 238.06 112.02C238.179 112.049 238.292 112.102 238.39 112.174C238.488 112.247 238.569 112.338 238.63 112.442C238.69 112.546 238.728 112.661 238.741 112.78C238.754 112.899 238.742 113.019 238.706 113.134C238.669 113.248 238.609 113.354 238.529 113.444C238.449 113.535 238.351 113.61 238.24 113.662C238.13 113.715 238.009 113.746 237.886 113.752C237.648 113.773 237.41 113.703 237.224 113.558C237.038 113.412 236.918 113.202 236.889 112.971C236.911 112.772 237.003 112.585 237.149 112.443C237.296 112.301 237.488 112.212 237.694 112.191V112.005ZM225.191 113.244C225.367 113.228 225.543 113.262 225.699 113.343C225.855 113.425 225.982 113.548 226.065 113.699C226.148 113.851 226.183 114.022 226.166 114.192C226.149 114.363 226.08 114.524 225.968 114.657C225.856 114.79 225.706 114.887 225.537 114.937C225.369 114.987 225.188 114.988 225.019 114.939C224.85 114.89 224.699 114.793 224.587 114.662C224.474 114.53 224.404 114.369 224.385 114.198C224.416 114.007 224.512 113.831 224.658 113.698C224.804 113.565 224.992 113.484 225.191 113.467V113.244ZM271.356 130.942C271.478 130.923 271.602 130.928 271.722 130.957C271.841 130.986 271.953 131.039 272.051 131.112C272.149 131.184 272.231 131.275 272.291 131.379C272.352 131.484 272.39 131.599 272.403 131.718C272.416 131.836 272.404 131.957 272.367 132.071C272.331 132.185 272.271 132.291 272.191 132.382C272.111 132.473 272.012 132.547 271.902 132.6C271.791 132.653 271.671 132.683 271.548 132.689C271.309 132.71 271.072 132.641 270.886 132.495C270.7 132.349 270.579 132.139 270.55 131.909C270.581 131.716 270.676 131.538 270.822 131.403C270.968 131.269 271.156 131.185 271.356 131.165V130.942ZM258.853 132.181C259.091 132.16 259.328 132.23 259.514 132.376C259.701 132.521 259.821 132.732 259.85 132.962C259.869 133.135 259.835 133.31 259.752 133.464C259.668 133.619 259.54 133.745 259.382 133.829C259.224 133.912 259.045 133.948 258.866 133.933C258.687 133.917 258.517 133.85 258.377 133.741C258.237 133.632 258.134 133.484 258.081 133.318C258.027 133.152 258.026 132.974 258.077 132.807C258.128 132.64 258.229 132.491 258.367 132.38C258.505 132.269 258.674 132.199 258.853 132.181ZM246.349 133.421C246.528 133.402 246.708 133.435 246.867 133.516C247.027 133.596 247.157 133.721 247.243 133.874C247.329 134.027 247.367 134.201 247.351 134.375C247.334 134.548 247.266 134.713 247.153 134.848C247.04 134.984 246.888 135.084 246.717 135.136C246.545 135.187 246.362 135.189 246.189 135.139C246.017 135.09 245.864 134.992 245.749 134.858C245.634 134.724 245.563 134.56 245.544 134.387C245.586 134.206 245.687 134.042 245.832 133.919C245.977 133.797 246.158 133.722 246.349 133.706V133.421ZM233.846 134.66C234.025 134.641 234.205 134.674 234.364 134.755C234.523 134.836 234.654 134.961 234.74 135.113C234.826 135.266 234.863 135.44 234.847 135.614C234.831 135.787 234.762 135.952 234.649 136.088C234.537 136.223 234.385 136.323 234.213 136.375C234.042 136.427 233.858 136.428 233.686 136.379C233.514 136.329 233.36 136.231 233.245 136.098C233.131 135.964 233.059 135.8 233.041 135.627C233.09 135.452 233.194 135.296 233.338 135.181C233.482 135.066 233.66 134.996 233.846 134.982V134.66ZM221.343 135.899C221.521 135.881 221.702 135.914 221.861 135.994C222.02 136.075 222.151 136.2 222.237 136.353C222.323 136.506 222.36 136.68 222.344 136.853C222.328 137.027 222.259 137.192 222.146 137.327C222.033 137.463 221.881 137.562 221.71 137.614C221.538 137.666 221.355 137.667 221.183 137.618C221.01 137.569 220.857 137.471 220.742 137.337C220.627 137.203 220.556 137.039 220.537 136.866C220.593 136.698 220.7 136.551 220.844 136.442C220.987 136.334 221.161 136.27 221.343 136.259V135.899ZM264.324 124.274C264.446 124.255 264.571 124.26 264.69 124.29C264.81 124.319 264.922 124.371 265.02 124.444C265.118 124.516 265.2 124.608 265.26 124.712C265.32 124.816 265.358 124.931 265.371 125.05C265.384 125.169 265.372 125.289 265.336 125.403C265.299 125.517 265.239 125.623 265.159 125.714C265.079 125.805 264.981 125.879 264.87 125.932C264.76 125.985 264.639 126.015 264.516 126.022C264.278 126.043 264.04 125.973 263.854 125.827C263.668 125.681 263.548 125.471 263.519 125.241C263.575 125.073 263.682 124.925 263.825 124.817C263.969 124.709 264.143 124.645 264.324 124.634V124.274ZM251.821 125.514C252.059 125.493 252.297 125.562 252.483 125.708C252.669 125.854 252.789 126.064 252.818 126.294C252.837 126.467 252.803 126.642 252.72 126.797C252.637 126.951 252.508 127.078 252.35 127.161C252.193 127.245 252.013 127.281 251.834 127.265C251.655 127.249 251.485 127.183 251.345 127.073C251.206 126.964 251.103 126.817 251.049 126.65C250.996 126.484 250.994 126.306 251.045 126.139C251.096 125.972 251.197 125.824 251.335 125.712C251.473 125.601 251.642 125.532 251.821 125.514ZM239.318 126.753C239.496 126.734 239.677 126.767 239.836 126.848C239.995 126.929 240.126 127.053 240.212 127.206C240.298 127.359 240.335 127.533 240.319 127.707C240.303 127.88 240.234 128.045 240.121 128.181C240.008 128.316 239.857 128.416 239.685 128.468C239.514 128.52 239.33 128.521 239.158 128.472C238.985 128.422 238.832 128.324 238.717 128.191C238.602 128.057 238.531 127.893 238.512 127.72C238.578 127.563 238.69 127.429 238.832 127.332C238.975 127.235 239.144 127.181 239.318 127.174V126.753ZM226.814 127.992C226.993 127.974 227.173 128.007 227.332 128.087C227.492 128.168 227.623 128.293 227.709 128.446C227.795 128.599 227.832 128.773 227.816 128.946C227.8 129.12 227.731 129.285 227.618 129.42C227.505 129.555 227.353 129.655 227.182 129.707C227.01 129.759 226.827 129.76 226.654 129.711C226.482 129.662 226.329 129.564 226.214 129.43C226.099 129.296 226.028 129.132 226.009 128.959C226.082 128.811 226.196 128.685 226.338 128.595C226.48 128.505 226.645 128.455 226.814 128.451V127.992ZM213.915 129.405C214.033 129.329 214.169 129.282 214.311 129.269C214.488 129.249 214.667 129.28 214.826 129.358C214.985 129.436 215.117 129.558 215.205 129.708C215.293 129.858 215.334 130.03 215.322 130.203C215.31 130.375 215.245 130.54 215.137 130.678C215.029 130.815 214.881 130.918 214.712 130.975C214.544 131.031 214.362 131.038 214.189 130.995C214.017 130.952 213.861 130.86 213.742 130.732C213.622 130.603 213.545 130.444 213.518 130.273C213.659 130.446 213.787 130.161 213.915 129.864V129.405ZM284.805 144.835C284.997 145.281 285.202 145.715 285.406 146.149C285.215 146.115 285.041 146.021 284.909 145.883C284.778 145.744 284.696 145.568 284.677 145.38C284.717 145.348 284.76 145.319 284.805 145.294V144.835ZM272.98 145.69C273.158 145.671 273.338 145.705 273.498 145.785C273.657 145.866 273.788 145.991 273.874 146.144C273.96 146.297 273.997 146.471 273.981 146.644C273.965 146.818 273.896 146.982 273.783 147.118C273.67 147.253 273.518 147.353 273.347 147.405C273.175 147.457 272.992 147.458 272.82 147.409C272.647 147.36 272.494 147.262 272.379 147.128C272.264 146.994 272.193 146.83 272.174 146.657C272.246 146.508 272.359 146.381 272.502 146.291C272.644 146.201 272.81 146.152 272.98 146.149V145.69ZM260.476 146.93C260.655 146.911 260.835 146.944 260.994 147.025C261.153 147.105 261.284 147.23 261.37 147.383C261.456 147.536 261.494 147.71 261.478 147.883C261.461 148.057 261.393 148.222 261.28 148.357C261.167 148.493 261.015 148.593 260.843 148.644C260.672 148.696 260.488 148.698 260.316 148.648C260.144 148.599 259.991 148.501 259.876 148.367C259.761 148.233 259.69 148.069 259.671 147.896C259.748 147.754 259.864 147.635 260.006 147.552C260.148 147.469 260.31 147.425 260.476 147.425V146.93ZM247.973 148.169C248.151 148.15 248.332 148.183 248.491 148.264C248.65 148.345 248.781 148.469 248.867 148.622C248.953 148.775 248.99 148.949 248.974 149.123C248.958 149.296 248.889 149.461 248.776 149.597C248.663 149.732 248.512 149.832 248.34 149.884C248.169 149.936 247.985 149.937 247.813 149.888C247.641 149.838 247.487 149.74 247.372 149.607C247.258 149.473 247.186 149.309 247.167 149.136C247.25 149 247.368 148.889 247.509 148.812C247.651 148.736 247.811 148.698 247.973 148.702V148.169ZM235.47 149.408C235.645 149.392 235.822 149.427 235.978 149.508C236.133 149.589 236.261 149.713 236.344 149.864C236.427 150.015 236.462 150.186 236.445 150.357C236.428 150.527 236.359 150.689 236.247 150.821C236.135 150.954 235.985 151.051 235.816 151.101C235.647 151.152 235.467 151.152 235.298 151.103C235.129 151.054 234.978 150.958 234.865 150.826C234.753 150.694 234.683 150.533 234.664 150.363C234.752 150.235 234.872 150.133 235.014 150.065C235.155 149.998 235.312 149.968 235.47 149.978V149.408ZM222.966 150.648C223.145 150.629 223.325 150.662 223.484 150.743C223.643 150.823 223.774 150.948 223.86 151.101C223.946 151.254 223.984 151.428 223.968 151.602C223.951 151.775 223.883 151.94 223.77 152.075C223.657 152.211 223.505 152.311 223.334 152.363C223.162 152.414 222.979 152.416 222.806 152.366C222.634 152.317 222.481 152.219 222.366 152.085C222.251 151.951 222.18 151.787 222.161 151.614C222.251 151.49 222.372 151.391 222.513 151.326C222.654 151.261 222.81 151.232 222.966 151.242V150.648ZM210.463 151.887C210.642 151.868 210.822 151.901 210.981 151.982C211.14 152.063 211.271 152.188 211.357 152.34C211.443 152.493 211.48 152.667 211.464 152.841C211.448 153.014 211.379 153.179 211.266 153.315C211.154 153.45 211.002 153.55 210.83 153.602C210.659 153.654 210.475 153.655 210.303 153.606C210.131 153.556 209.977 153.458 209.862 153.325C209.748 153.191 209.676 153.027 209.657 152.854C209.752 152.737 209.876 152.646 210.016 152.587C210.157 152.529 210.311 152.505 210.463 152.519V151.887ZM278.451 137.709C278.69 137.688 278.927 137.757 279.113 137.903C279.299 138.049 279.42 138.259 279.449 138.49C279.468 138.663 279.434 138.837 279.35 138.992C279.267 139.146 279.138 139.273 278.981 139.356C278.823 139.44 278.643 139.476 278.464 139.46C278.286 139.445 278.115 139.378 277.976 139.268C277.836 139.159 277.733 139.012 277.679 138.846C277.626 138.679 277.625 138.501 277.676 138.334C277.727 138.167 277.827 138.019 277.966 137.907C278.104 137.796 278.273 137.727 278.451 137.709ZM265.948 138.948C266.127 138.929 266.307 138.963 266.466 139.043C266.625 139.124 266.756 139.249 266.842 139.402C266.928 139.554 266.966 139.729 266.949 139.902C266.933 140.076 266.864 140.24 266.751 140.376C266.639 140.511 266.487 140.611 266.315 140.663C266.144 140.715 265.96 140.716 265.788 140.667C265.616 140.617 265.462 140.52 265.348 140.386C265.233 140.252 265.161 140.088 265.143 139.915C265.241 139.804 265.366 139.719 265.507 139.667C265.647 139.616 265.799 139.598 265.948 139.617V138.948ZM253.445 140.187C253.623 140.169 253.804 140.202 253.963 140.283C254.122 140.363 254.253 140.488 254.339 140.641C254.425 140.794 254.462 140.968 254.446 141.141C254.43 141.315 254.361 141.48 254.248 141.615C254.135 141.751 253.983 141.851 253.812 141.902C253.64 141.954 253.457 141.956 253.285 141.906C253.112 141.857 252.959 141.759 252.844 141.625C252.729 141.491 252.658 141.327 252.639 141.154C252.741 141.05 252.868 140.972 253.009 140.927C253.149 140.882 253.299 140.87 253.445 140.894V140.187ZM240.941 141.427C241.063 141.408 241.188 141.413 241.307 141.442C241.427 141.471 241.539 141.524 241.637 141.596C241.735 141.669 241.817 141.76 241.877 141.864C241.937 141.969 241.975 142.084 241.988 142.202C242.001 142.321 241.989 142.442 241.953 142.556C241.916 142.67 241.856 142.776 241.776 142.867C241.696 142.958 241.598 143.032 241.487 143.085C241.377 143.138 241.256 143.168 241.133 143.174C240.901 143.186 240.673 143.111 240.497 142.965C240.32 142.819 240.208 142.613 240.183 142.389C240.158 142.165 240.223 141.94 240.364 141.761C240.506 141.582 240.712 141.463 240.941 141.427ZM228.451 142.666C228.627 142.65 228.803 142.685 228.959 142.766C229.115 142.847 229.242 142.971 229.325 143.122C229.408 143.273 229.443 143.444 229.426 143.615C229.409 143.785 229.34 143.947 229.228 144.079C229.116 144.212 228.966 144.309 228.798 144.359C228.629 144.409 228.448 144.41 228.279 144.361C228.11 144.312 227.959 144.215 227.847 144.084C227.734 143.952 227.664 143.791 227.645 143.62C227.755 143.531 227.886 143.469 228.026 143.438C228.166 143.408 228.312 143.411 228.451 143.447V142.666ZM215.948 143.905C216.126 143.887 216.306 143.92 216.466 144.001C216.625 144.081 216.756 144.206 216.842 144.359C216.928 144.512 216.965 144.686 216.949 144.859C216.933 145.033 216.864 145.198 216.751 145.333C216.638 145.469 216.486 145.569 216.315 145.62C216.143 145.672 215.96 145.674 215.787 145.624C215.615 145.575 215.462 145.477 215.347 145.343C215.232 145.209 215.161 145.045 215.142 144.872C215.253 144.785 215.384 144.725 215.525 144.697C215.665 144.669 215.81 144.674 215.948 144.711V143.905ZM287.107 159.063C287.285 159.044 287.465 159.077 287.625 159.158C287.784 159.239 287.915 159.363 288.001 159.516C288.087 159.669 288.124 159.843 288.108 160.017C288.092 160.19 288.023 160.355 287.91 160.491C287.797 160.626 287.645 160.726 287.474 160.778C287.302 160.83 287.119 160.831 286.946 160.781C286.774 160.732 286.621 160.634 286.506 160.5C286.391 160.367 286.32 160.203 286.301 160.029C286.413 159.943 286.544 159.883 286.684 159.855C286.824 159.827 286.969 159.832 287.107 159.868V159.063ZM274.603 160.302C274.835 160.29 275.063 160.365 275.24 160.511C275.416 160.658 275.529 160.864 275.553 161.088C275.578 161.312 275.513 161.536 275.372 161.715C275.231 161.894 275.024 162.014 274.795 162.05C274.557 162.071 274.319 162.001 274.133 161.855C273.947 161.709 273.827 161.499 273.798 161.269C273.913 161.189 274.045 161.136 274.185 161.114C274.325 161.093 274.468 161.103 274.603 161.145V160.302ZM262.1 161.541C262.338 161.52 262.576 161.59 262.762 161.736C262.948 161.882 263.068 162.092 263.097 162.322C263.116 162.495 263.082 162.67 262.999 162.824C262.916 162.979 262.787 163.106 262.629 163.189C262.472 163.272 262.292 163.309 262.113 163.293C261.934 163.277 261.764 163.211 261.624 163.101C261.484 162.992 261.381 162.845 261.328 162.678C261.275 162.512 261.273 162.334 261.324 162.167C261.375 162 261.476 161.852 261.614 161.74C261.752 161.629 261.921 161.56 262.1 161.541ZM249.597 162.781C249.775 162.762 249.955 162.795 250.115 162.876C250.274 162.957 250.405 163.081 250.491 163.234C250.577 163.387 250.614 163.561 250.598 163.735C250.582 163.908 250.513 164.073 250.4 164.209C250.287 164.344 250.135 164.444 249.964 164.496C249.792 164.548 249.609 164.549 249.437 164.5C249.264 164.45 249.111 164.352 248.996 164.218C248.881 164.085 248.81 163.921 248.791 163.747C248.911 163.678 249.047 163.636 249.186 163.625C249.326 163.614 249.466 163.635 249.597 163.686V162.781ZM237.093 164.02C237.272 164.001 237.452 164.035 237.611 164.115C237.77 164.196 237.901 164.321 237.987 164.474C238.073 164.626 238.111 164.801 238.095 164.974C238.078 165.148 238.01 165.312 237.897 165.448C237.784 165.583 237.632 165.683 237.46 165.735C237.289 165.787 237.105 165.788 236.933 165.739C236.761 165.689 236.608 165.592 236.493 165.458C236.378 165.324 236.307 165.16 236.288 164.987C236.417 164.93 236.558 164.902 236.7 164.906C236.842 164.91 236.981 164.947 237.106 165.012L237.093 164.02ZM224.603 165.259C224.833 165.252 225.058 165.33 225.231 165.477C225.404 165.624 225.513 165.83 225.536 166.052C225.559 166.274 225.494 166.497 225.353 166.674C225.213 166.851 225.009 166.97 224.782 167.007C224.659 167.027 224.534 167.022 224.413 166.993C224.293 166.964 224.18 166.911 224.081 166.838C223.982 166.764 223.9 166.672 223.84 166.567C223.779 166.462 223.742 166.346 223.73 166.226C223.717 166.106 223.731 165.985 223.768 165.87C223.806 165.756 223.868 165.65 223.95 165.559C224.032 165.469 224.132 165.395 224.244 165.344C224.357 165.292 224.479 165.263 224.603 165.259ZM280.075 152.358C280.254 152.339 280.434 152.372 280.593 152.453C280.752 152.534 280.883 152.658 280.969 152.811C281.055 152.964 281.092 153.138 281.076 153.312C281.06 153.485 280.991 153.65 280.878 153.786C280.766 153.921 280.614 154.021 280.442 154.073C280.271 154.125 280.087 154.126 279.915 154.077C279.743 154.027 279.589 153.929 279.475 153.796C279.36 153.662 279.288 153.498 279.27 153.325C279.396 153.266 279.534 153.237 279.674 153.239C279.813 153.242 279.951 153.275 280.075 153.337V152.358ZM267.572 153.597C267.946 153.569 268.317 153.687 268.602 153.924C268.888 154.161 269.064 154.498 269.093 154.861C269.122 155.225 269.001 155.584 268.756 155.861C268.512 156.137 268.164 156.308 267.789 156.336C267.551 156.357 267.313 156.287 267.127 156.142C266.941 155.996 266.821 155.786 266.792 155.555C266.773 155.332 266.844 155.109 266.989 154.934C267.134 154.759 267.342 154.644 267.572 154.613V153.597ZM255.081 154.837C255.32 154.816 255.558 154.888 255.742 155.036C255.927 155.185 256.043 155.398 256.066 155.63C256.078 155.744 256.067 155.859 256.033 155.969C255.999 156.079 255.943 156.181 255.868 156.27C255.793 156.358 255.701 156.432 255.597 156.486C255.492 156.54 255.378 156.573 255.26 156.584C255.021 156.608 254.782 156.54 254.595 156.393C254.408 156.247 254.289 156.035 254.263 155.803C254.396 155.753 254.539 155.734 254.681 155.747C254.823 155.76 254.96 155.805 255.081 155.878V154.837ZM242.578 156.076C242.756 156.057 242.937 156.09 243.096 156.171C243.255 156.252 243.386 156.376 243.472 156.529C243.558 156.682 243.595 156.856 243.579 157.03C243.563 157.203 243.494 157.368 243.381 157.504C243.268 157.639 243.117 157.739 242.945 157.791C242.774 157.843 242.59 157.844 242.418 157.795C242.246 157.745 242.092 157.647 241.977 157.514C241.862 157.38 241.791 157.216 241.772 157.043C241.906 156.998 242.049 156.985 242.189 157.005C242.329 157.024 242.462 157.075 242.578 157.154V156.076ZM230.074 157.315C230.197 157.296 230.322 157.3 230.443 157.33C230.564 157.359 230.677 157.411 230.775 157.485C230.874 157.558 230.956 157.65 231.016 157.755C231.077 157.86 231.114 157.977 231.127 158.096C231.139 158.216 231.126 158.337 231.088 158.452C231.05 158.567 230.988 158.672 230.906 158.763C230.824 158.854 230.724 158.927 230.612 158.979C230.5 159.03 230.378 159.059 230.253 159.063C230.023 159.07 229.799 158.992 229.625 158.845C229.452 158.698 229.343 158.493 229.32 158.27C229.297 158.048 229.363 157.826 229.503 157.648C229.643 157.471 229.847 157.352 230.074 157.315ZM217.571 158.555C217.81 158.53 218.049 158.599 218.236 158.745C218.423 158.892 218.543 159.104 218.568 159.335C218.59 159.566 218.518 159.797 218.368 159.977C218.217 160.157 218 160.274 217.763 160.302C217.531 160.314 217.303 160.239 217.126 160.093C216.95 159.947 216.837 159.74 216.813 159.516C216.788 159.293 216.853 159.068 216.994 158.889C217.135 158.71 217.342 158.59 217.571 158.555ZM288.73 173.699C288.968 173.678 289.206 173.748 289.392 173.894C289.578 174.04 289.698 174.25 289.727 174.48C289.747 174.653 289.712 174.828 289.629 174.982C289.546 175.137 289.417 175.264 289.26 175.347C289.102 175.43 288.922 175.467 288.743 175.451C288.564 175.435 288.394 175.369 288.255 175.259C288.115 175.15 288.012 175.003 287.958 174.836C287.905 174.67 287.903 174.492 287.954 174.325C288.005 174.158 288.106 174.01 288.244 173.898C288.382 173.787 288.551 173.718 288.73 173.699ZM276.227 174.939C276.405 174.92 276.586 174.953 276.745 175.034C276.904 175.115 277.035 175.239 277.121 175.392C277.207 175.545 277.244 175.719 277.228 175.893C277.212 176.066 277.143 176.231 277.03 176.367C276.917 176.502 276.766 176.602 276.594 176.654C276.423 176.706 276.239 176.707 276.067 176.658C275.895 176.608 275.741 176.51 275.626 176.376C275.511 176.243 275.44 176.079 275.421 175.906C275.567 175.882 275.717 175.893 275.857 175.939C275.998 175.984 276.125 176.062 276.227 176.166V174.939ZM263.724 176.178C263.902 176.159 264.082 176.193 264.242 176.273C264.401 176.354 264.532 176.479 264.618 176.632C264.704 176.785 264.741 176.959 264.725 177.132C264.709 177.306 264.64 177.47 264.527 177.606C264.414 177.741 264.262 177.841 264.091 177.893C263.919 177.945 263.736 177.946 263.563 177.897C263.391 177.848 263.238 177.75 263.123 177.616C263.008 177.482 262.937 177.318 262.918 177.145C263.064 177.121 263.214 177.133 263.354 177.178C263.494 177.223 263.621 177.301 263.724 177.405V176.178ZM251.22 177.418C251.399 177.399 251.579 177.432 251.738 177.513C251.897 177.593 252.028 177.718 252.114 177.871C252.2 178.024 252.238 178.198 252.222 178.371C252.205 178.545 252.137 178.71 252.024 178.845C251.911 178.981 251.759 179.081 251.587 179.133C251.416 179.184 251.232 179.186 251.06 179.136C250.888 179.087 250.735 178.989 250.62 178.855C250.505 178.721 250.433 178.557 250.415 178.384C250.553 178.37 250.692 178.386 250.823 178.431C250.953 178.476 251.072 178.549 251.169 178.644L251.22 177.418ZM238.73 178.657C238.905 178.641 239.082 178.675 239.238 178.756C239.393 178.837 239.521 178.961 239.604 179.112C239.687 179.263 239.722 179.435 239.705 179.605C239.688 179.776 239.619 179.937 239.507 180.07C239.395 180.202 239.245 180.3 239.076 180.35C238.907 180.4 238.727 180.401 238.558 180.352C238.389 180.303 238.238 180.206 238.125 180.074C238.013 179.943 237.943 179.781 237.924 179.611C238.078 179.597 238.233 179.621 238.374 179.682C238.515 179.743 238.638 179.838 238.73 179.958V178.657ZM226.226 179.896C226.405 179.878 226.585 179.911 226.744 179.991C226.904 180.072 227.034 180.197 227.12 180.35C227.207 180.503 227.244 180.677 227.228 180.85C227.212 181.024 227.143 181.189 227.03 181.324C226.917 181.459 226.765 181.559 226.594 181.611C226.422 181.663 226.239 181.664 226.066 181.615C225.894 181.566 225.741 181.468 225.626 181.334C225.511 181.2 225.44 181.036 225.421 180.863C225.576 180.85 225.732 180.876 225.873 180.939C226.014 181.002 226.136 181.1 226.226 181.222V179.896ZM213.902 181.136C214.123 181.161 214.326 181.264 214.473 181.425C214.621 181.586 214.702 181.794 214.702 182.009C214.702 182.225 214.621 182.432 214.473 182.594C214.326 182.755 214.123 182.858 213.902 182.883H213.749L213.902 181.136ZM293.665 165.941L294.202 167.428C293.995 167.409 293.802 167.321 293.655 167.178C293.508 167.036 293.416 166.848 293.397 166.648C293.487 166.732 293.558 166.835 293.604 166.948C293.65 167.061 293.671 167.183 293.665 167.304V165.941ZM281.699 166.957C281.937 166.936 282.174 167.006 282.36 167.152C282.547 167.298 282.667 167.508 282.696 167.738C282.708 167.963 282.631 168.184 282.48 168.355C282.329 168.527 282.116 168.635 281.885 168.659C281.654 168.683 281.423 168.62 281.238 168.483C281.054 168.347 280.93 168.146 280.893 167.924C281.051 167.918 281.208 167.951 281.35 168.02C281.491 168.089 281.611 168.193 281.699 168.321V166.957ZM269.208 168.197C269.438 168.189 269.663 168.267 269.836 168.414C270.01 168.561 270.119 168.767 270.142 168.989C270.164 169.212 270.099 169.434 269.959 169.611C269.819 169.789 269.614 169.908 269.387 169.944C269.265 169.964 269.139 169.959 269.019 169.93C268.898 169.901 268.785 169.848 268.686 169.775C268.588 169.702 268.506 169.61 268.445 169.504C268.385 169.399 268.347 169.283 268.335 169.163C268.323 169.043 268.336 168.922 268.374 168.808C268.412 168.693 268.474 168.587 268.555 168.496C268.637 168.406 268.737 168.333 268.85 168.281C268.962 168.229 269.084 168.201 269.208 168.197ZM256.705 169.436C256.883 169.417 257.064 169.451 257.223 169.531C257.382 169.612 257.513 169.737 257.599 169.89C257.685 170.042 257.722 170.217 257.706 170.39C257.69 170.563 257.621 170.728 257.508 170.864C257.395 170.999 257.244 171.099 257.072 171.151C256.901 171.203 256.717 171.204 256.545 171.155C256.372 171.105 256.219 171.008 256.104 170.874C255.989 170.74 255.918 170.576 255.899 170.403C256.065 170.401 256.229 170.444 256.371 170.527C256.513 170.611 256.629 170.731 256.705 170.874V169.436ZM244.201 170.675C244.38 170.657 244.56 170.69 244.72 170.771C244.879 170.851 245.01 170.976 245.096 171.129C245.182 171.282 245.219 171.456 245.203 171.629C245.187 171.803 245.118 171.968 245.005 172.103C244.892 172.239 244.74 172.339 244.569 172.39C244.397 172.442 244.214 172.444 244.041 172.394C243.869 172.345 243.716 172.247 243.601 172.113C243.486 171.979 243.415 171.815 243.396 171.642C243.566 171.645 243.731 171.695 243.874 171.784C244.016 171.874 244.13 172.001 244.201 172.15V170.675ZM231.698 171.915C231.874 171.899 232.051 171.933 232.206 172.014C232.362 172.095 232.489 172.219 232.572 172.37C232.655 172.521 232.691 172.693 232.673 172.863C232.656 173.034 232.587 173.195 232.475 173.328C232.364 173.46 232.214 173.558 232.045 173.608C231.876 173.658 231.696 173.659 231.526 173.61C231.357 173.561 231.207 173.464 231.094 173.332C230.981 173.201 230.911 173.039 230.893 172.869C231.069 172.875 231.239 172.931 231.382 173.03C231.525 173.129 231.635 173.267 231.698 173.427V171.915ZM219.195 173.154C219.373 173.135 219.554 173.169 219.713 173.249C219.872 173.33 220.003 173.455 220.089 173.608C220.175 173.76 220.212 173.935 220.196 174.108C220.18 174.282 220.111 174.446 219.998 174.582C219.885 174.717 219.734 174.817 219.562 174.869C219.391 174.921 219.207 174.922 219.035 174.873C218.863 174.823 218.709 174.726 218.594 174.592C218.479 174.458 218.408 174.294 218.389 174.121C218.569 174.127 218.742 174.184 218.888 174.286C219.033 174.387 219.145 174.528 219.208 174.691L219.195 173.154ZM290.354 189.799C290.532 189.78 290.713 189.813 290.872 189.894C291.031 189.975 291.162 190.099 291.248 190.252C291.334 190.405 291.371 190.579 291.355 190.753C291.339 190.926 291.27 191.091 291.157 191.226C291.044 191.362 290.893 191.462 290.721 191.514C290.55 191.565 290.366 191.567 290.194 191.517C290.022 191.468 289.868 191.37 289.753 191.236C289.638 191.102 289.567 190.939 289.548 190.765C289.523 190.534 289.594 190.302 289.745 190.121C289.896 189.939 290.115 189.824 290.354 189.799ZM277.85 191.038C277.972 191.019 278.097 191.024 278.216 191.053C278.336 191.083 278.448 191.135 278.546 191.208C278.644 191.28 278.726 191.371 278.786 191.476C278.846 191.58 278.884 191.695 278.897 191.814C278.91 191.933 278.898 192.053 278.862 192.167C278.825 192.281 278.765 192.387 278.685 192.478C278.605 192.569 278.507 192.643 278.396 192.696C278.286 192.749 278.165 192.779 278.042 192.785C277.804 192.806 277.567 192.737 277.38 192.591C277.194 192.445 277.074 192.235 277.045 192.005C277.044 191.787 277.125 191.577 277.274 191.415C277.422 191.253 277.628 191.149 277.85 191.125V191.038ZM265.36 192.277C265.599 192.257 265.836 192.328 266.021 192.477C266.205 192.626 266.322 192.839 266.344 193.071C266.357 193.185 266.346 193.3 266.312 193.41C266.278 193.52 266.222 193.622 266.147 193.711C266.072 193.799 265.98 193.873 265.875 193.927C265.771 193.981 265.657 194.014 265.539 194.025C265.3 194.049 265.061 193.981 264.874 193.834C264.687 193.688 264.567 193.476 264.542 193.244C264.55 193.03 264.637 192.826 264.787 192.669C264.937 192.512 265.14 192.413 265.36 192.389V192.277ZM252.857 193.517C253.035 193.498 253.216 193.531 253.375 193.612C253.534 193.693 253.665 193.817 253.751 193.97C253.837 194.123 253.874 194.297 253.858 194.471C253.842 194.644 253.773 194.809 253.66 194.944C253.547 195.08 253.395 195.18 253.224 195.232C253.052 195.283 252.869 195.285 252.697 195.235C252.524 195.186 252.371 195.088 252.256 194.954C252.141 194.82 252.07 194.657 252.051 194.483C252.062 194.276 252.15 194.08 252.298 193.93C252.445 193.78 252.644 193.686 252.857 193.665V193.517ZM240.353 194.756C240.476 194.736 240.601 194.741 240.722 194.77C240.842 194.799 240.955 194.852 241.054 194.925C241.153 194.999 241.235 195.091 241.295 195.196C241.356 195.301 241.393 195.417 241.405 195.537C241.418 195.657 241.404 195.778 241.367 195.893C241.329 196.007 241.267 196.113 241.185 196.204C241.103 196.294 241.003 196.368 240.891 196.419C240.778 196.471 240.656 196.5 240.532 196.504C240.302 196.511 240.077 196.433 239.904 196.286C239.731 196.139 239.622 195.933 239.599 195.711C239.576 195.489 239.641 195.266 239.781 195.089C239.922 194.912 240.126 194.793 240.353 194.756ZM227.85 195.995C228.089 195.971 228.328 196.04 228.515 196.186C228.702 196.332 228.821 196.545 228.847 196.776C228.869 197.007 228.797 197.237 228.647 197.418C228.496 197.598 228.279 197.715 228.042 197.743C227.81 197.755 227.582 197.68 227.405 197.534C227.228 197.387 227.116 197.181 227.092 196.957C227.067 196.733 227.132 196.509 227.273 196.33C227.414 196.151 227.621 196.031 227.85 195.995ZM215.347 197.235C215.586 197.21 215.825 197.279 216.012 197.425C216.199 197.572 216.318 197.784 216.344 198.016C216.363 198.189 216.329 198.363 216.246 198.518C216.162 198.672 216.034 198.799 215.876 198.882C215.718 198.966 215.539 199.002 215.36 198.986C215.181 198.971 215.011 198.904 214.871 198.794C214.731 198.685 214.628 198.538 214.575 198.372C214.521 198.205 214.52 198.027 214.571 197.86C214.622 197.693 214.723 197.545 214.861 197.433C214.999 197.322 215.168 197.253 215.347 197.235ZM295.89 181.78C296.068 181.761 296.248 181.794 296.408 181.875C296.567 181.956 296.698 182.081 296.784 182.233C296.87 182.386 296.907 182.561 296.891 182.734C296.875 182.907 296.806 183.072 296.693 183.208C296.58 183.343 296.428 183.443 296.257 183.495C296.085 183.547 295.902 183.548 295.73 183.499C295.557 183.449 295.404 183.352 295.289 183.218C295.174 183.084 295.103 182.92 295.084 182.747C295.12 182.57 295.21 182.408 295.342 182.282C295.474 182.156 295.643 182.072 295.826 182.04L295.89 181.78ZM283.399 183.019C283.578 183.001 283.758 183.034 283.917 183.115C284.076 183.195 284.207 183.32 284.293 183.473C284.379 183.626 284.416 183.8 284.4 183.973C284.384 184.147 284.315 184.312 284.202 184.447C284.09 184.583 283.938 184.683 283.766 184.734C283.595 184.786 283.411 184.787 283.239 184.738C283.067 184.689 282.913 184.591 282.799 184.457C282.684 184.323 282.612 184.159 282.594 183.986C282.633 183.815 282.725 183.659 282.857 183.54C282.99 183.42 283.156 183.343 283.335 183.317L283.399 183.019ZM270.896 184.259C271.135 184.234 271.374 184.303 271.561 184.449C271.748 184.596 271.867 184.808 271.893 185.04C271.914 185.272 271.841 185.504 271.688 185.685C271.535 185.866 271.314 185.981 271.075 186.006C270.844 186.014 270.62 185.936 270.446 185.789C270.273 185.642 270.164 185.436 270.141 185.214C270.118 184.991 270.184 184.769 270.324 184.592C270.464 184.414 270.668 184.295 270.896 184.259ZM258.392 185.498C258.624 185.486 258.852 185.561 259.029 185.707C259.206 185.854 259.318 186.06 259.342 186.284C259.367 186.508 259.302 186.732 259.161 186.911C259.02 187.09 258.813 187.21 258.584 187.246C258.352 187.257 258.124 187.182 257.948 187.036C257.771 186.89 257.659 186.684 257.634 186.46C257.609 186.236 257.674 186.011 257.815 185.832C257.957 185.654 258.163 185.534 258.392 185.498ZM245.889 186.737C246.068 186.719 246.248 186.752 246.407 186.833C246.566 186.913 246.697 187.038 246.783 187.191C246.869 187.344 246.906 187.518 246.89 187.691C246.874 187.865 246.805 188.03 246.692 188.165C246.58 188.301 246.428 188.401 246.256 188.452C246.085 188.504 245.901 188.506 245.729 188.456C245.557 188.407 245.403 188.309 245.289 188.175C245.174 188.041 245.102 187.877 245.084 187.704C245.141 187.552 245.241 187.419 245.372 187.318C245.502 187.217 245.659 187.154 245.825 187.134L245.889 186.737ZM233.386 187.977C233.564 187.958 233.745 187.991 233.904 188.072C234.063 188.153 234.194 188.277 234.28 188.43C234.366 188.583 234.403 188.757 234.387 188.931C234.371 189.104 234.302 189.269 234.189 189.405C234.076 189.54 233.924 189.64 233.753 189.692C233.581 189.744 233.398 189.745 233.226 189.695C233.053 189.646 232.9 189.548 232.785 189.414C232.67 189.281 232.599 189.117 232.58 188.943C232.639 188.805 232.733 188.683 232.854 188.59C232.975 188.497 233.118 188.435 233.271 188.411L233.386 187.977ZM220.882 189.216C221.061 189.197 221.241 189.231 221.4 189.311C221.56 189.392 221.69 189.517 221.777 189.67C221.863 189.822 221.9 189.997 221.884 190.17C221.868 190.344 221.799 190.508 221.686 190.644C221.573 190.779 221.421 190.879 221.25 190.931C221.078 190.983 220.895 190.984 220.722 190.935C220.55 190.885 220.397 190.788 220.282 190.654C220.167 190.52 220.096 190.356 220.077 190.183C220.145 190.045 220.25 189.926 220.38 189.839C220.51 189.753 220.661 189.7 220.818 189.687L220.882 189.216Z" fill="white"/>
<path d="M225.524 164.603C229.891 164.307 234.279 164.565 238.577 165.372C242.885 166.09 247.13 167.231 251.361 168.346C253.778 168.991 256.207 169.585 258.623 170.23V170.317C254.289 169.722 250.019 168.681 245.762 167.739C241.504 166.797 237.247 166.004 232.977 165.384C230.545 165.058 228.094 164.88 225.639 164.851C225.605 164.866 225.566 164.867 225.532 164.854C225.497 164.841 225.469 164.816 225.453 164.783C225.438 164.75 225.437 164.713 225.45 164.679C225.463 164.645 225.49 164.618 225.524 164.603Z" fill="#263238"/>
<path d="M218.122 167.49C222.606 166.666 227.202 166.591 231.712 167.267C231.776 167.267 231.712 167.366 231.712 167.366C229.449 167.366 227.199 167.304 224.936 167.366C222.673 167.428 220.397 167.527 218.135 167.614L218.122 167.49Z" fill="#263238"/>
<path d="M207.062 148.193C207.157 145.137 207.834 142.125 209.056 139.307C210.271 136.271 211.741 133.333 213.16 130.396C213.339 130.012 213.531 129.64 213.71 129.256C213.889 128.872 213.914 128.463 214.03 128.017C214.145 127.57 214.285 127.099 214.426 126.641C214.707 125.736 215.001 124.844 215.308 123.951C215.091 124.906 214.861 125.848 214.605 126.777C214.503 127.161 214.4 127.533 214.285 127.917L218.274 119.713C218.274 119.713 218.389 119.713 218.363 119.713C216.983 122.848 215.628 125.984 214.221 129.107C212.815 132.23 211.473 135.031 210.232 138.043C208.974 140.816 208.18 143.765 207.88 146.78C207.734 149.811 208.307 152.834 209.555 155.617C210.974 158.764 212.686 161.78 214.669 164.627C214.687 164.652 214.695 164.682 214.69 164.713C214.686 164.743 214.669 164.77 214.643 164.788C214.618 164.806 214.586 164.814 214.555 164.809C214.524 164.804 214.496 164.788 214.477 164.763C210.603 160.24 207.024 154.489 207.062 148.193Z" fill="#263238"/>
<path d="M244.24 103.762C244.112 105.361 238.282 118.994 229.576 118.634C225.907 118.486 226.457 104.778 226.457 104.778L221.138 91.3067L237.477 77.6738C237.477 77.6738 244.291 103.043 244.24 103.762Z" fill="#C95F50"/>
<path d="M221.138 91.3451L226.252 104.42C232.98 100.667 237.913 94.4961 239.982 87.2429C238.602 82.0624 237.426 77.6875 237.426 77.6875L221.138 91.3451Z" fill="#263238"/>
<path d="M198.663 79.7076C204.147 102.735 218.99 102.152 224.104 101C228.758 99.9586 244.444 95.8315 241.453 72.383C238.461 48.9345 225.689 44.1135 214.925 45.9601C204.16 47.8067 193.191 56.6805 198.663 79.7076Z" fill="#C95F50"/>
<path d="M240.469 71.6026C238.784 71.5448 237.144 71.0631 235.709 70.2048C234.274 69.3465 233.095 68.1412 232.286 66.7072C211.959 69.694 203.048 58.6638 203.048 58.6638C201.028 69.5701 198.152 72.7057 197.589 73.536C197.589 73.536 194.291 64.9349 196.119 57.6352C197.111 53.549 199.478 49.8991 202.845 47.2603C206.213 44.6216 210.391 43.144 214.72 43.0604C221.113 42.7754 227.224 47.0883 227.224 47.0883C227.224 47.0883 234.051 46.6297 237.745 51.4012C243.946 59.4198 240.469 71.6026 240.469 71.6026Z" fill="#03326C"/>
<path d="M202.589 57.9316C203.789 60.3634 205.6 62.4643 207.856 64.0416C210.112 65.6313 212.665 66.7805 215.373 67.4251L217.419 67.7969C218.109 67.9084 218.799 67.9208 219.49 67.9828C220.873 68.0881 222.262 68.0881 223.645 67.9828C225.013 67.8712 226.368 67.611 227.736 67.4375C229.104 67.2639 230.395 66.7682 231.712 66.3964C230.344 66.5947 229.002 66.8302 227.659 67.0409C226.317 67.2516 224.962 67.3259 223.606 67.3631C220.905 67.4788 218.199 67.2369 215.565 66.6443C212.945 66.0527 210.458 65.0027 208.227 63.5459C205.959 62.0814 204.038 60.168 202.589 57.9316Z" fill="#263238"/>
<path d="M237.477 73.4738C237.477 73.4738 240.188 64.8727 244.061 65.5915C247.935 66.3103 247.526 77.6752 244.138 80.2778C243.726 80.6405 243.243 80.9188 242.717 81.0958C242.191 81.2728 241.634 81.345 241.078 81.308C240.523 81.2709 239.981 81.1254 239.485 80.8803C238.99 80.6351 238.55 80.2952 238.193 79.8812L237.477 73.4738Z" fill="#C95F50"/>
<path d="M243.856 68.8496L243.92 68.9364C241.568 70.845 240.954 73.7326 240.8 76.5584C240.871 76.2476 241.009 75.9552 241.207 75.7012C241.405 75.4473 241.657 75.2378 241.946 75.0871C242.235 74.9364 242.554 74.8481 242.881 74.8282C243.209 74.8084 243.537 74.8574 243.843 74.972C243.933 74.972 243.843 75.1207 243.843 75.1331C243.321 75.1393 242.812 75.3006 242.387 75.5954C241.962 75.8901 241.64 76.304 241.465 76.7814C241.179 77.5843 240.986 78.4157 240.89 79.2601C240.89 79.5328 240.366 79.5452 240.366 79.2601C239.151 75.8643 240.276 70.3492 243.856 68.8496Z" fill="#263238"/>
<path d="M201.028 72.4314C201.411 72.0337 201.816 71.6572 202.242 71.3036C202.603 70.8424 203.118 70.5179 203.7 70.3865C203.889 70.3746 204.078 70.4241 204.235 70.5274C204.392 70.6306 204.51 70.7816 204.569 70.9566C204.635 71.3227 204.597 71.6993 204.46 72.0462C204.322 72.3932 204.091 72.6976 203.789 72.9272C203.26 73.4855 202.536 73.8343 201.757 73.9063C201.578 73.9123 201.401 73.8676 201.248 73.7776C201.095 73.6877 200.972 73.5565 200.894 73.3999C200.817 73.2434 200.789 73.0684 200.812 72.8964C200.836 72.7244 200.911 72.5628 201.028 72.4314Z" fill="#263238"/>
<path d="M219.208 72.4694C218.659 72.3607 218.104 72.282 217.546 72.234C216.97 72.0718 216.354 72.0979 215.795 72.3083C215.633 72.4087 215.511 72.5579 215.446 72.7327C215.381 72.9075 215.378 73.0982 215.437 73.275C215.606 73.6076 215.863 73.8907 216.182 74.0954C216.501 74.3 216.87 74.419 217.252 74.44C218.018 74.5917 218.815 74.4637 219.489 74.0806C219.639 73.9854 219.756 73.8501 219.828 73.6913C219.899 73.5324 219.921 73.3568 219.891 73.186C219.862 73.0151 219.781 72.8564 219.66 72.7291C219.538 72.6019 219.381 72.5117 219.208 72.4694Z" fill="#263238"/>
<path d="M216.777 77.4023C216.777 77.4023 216.918 77.4023 216.944 77.5015C217.365 79.0507 218.12 80.761 219.718 80.8477C219.718 80.8477 219.718 80.9345 219.718 80.9469C217.928 81.2071 216.918 78.9391 216.777 77.4023Z" fill="#263238"/>
<path d="M217.699 75.3825C220.256 74.4529 221.918 79.3484 219.617 80.2159C217.316 81.0835 215.603 76.1633 217.699 75.3825Z" fill="#263238"/>
<path d="M218.785 75.3074C219.322 75.4438 219.923 75.7908 220.473 75.6544C221.023 75.5181 221.393 74.8489 221.623 74.2168C221.623 74.2168 221.713 74.2168 221.726 74.2168C221.955 74.6357 222.013 75.1226 221.89 75.5814C221.767 76.0402 221.471 76.4377 221.061 76.6955C220.593 76.8492 220.083 76.8291 219.629 76.6391C219.176 76.449 218.811 76.1026 218.606 75.6668C218.491 75.5677 218.568 75.2579 218.785 75.3074Z" fill="#263238"/>
<path d="M207.292 79.793C207.292 79.793 207.19 79.9045 207.215 79.9665C207.816 81.4661 208.238 83.2755 207.011 84.267C207.011 84.267 207.011 84.3662 207.011 84.3414C208.698 83.5234 208.097 81.1191 207.292 79.793Z" fill="#263238"/>
<path d="M205.323 78.6909C202.766 79.3602 204.313 84.3176 206.704 83.6483C209.095 82.9791 207.484 78.1208 205.323 78.6909Z" fill="#263238"/>
<path d="M204.364 79.3346C204.032 79.7188 203.789 80.3137 203.316 80.4872C202.843 80.6607 202.191 80.2765 201.667 79.8675C201.667 79.8675 201.59 79.8675 201.603 79.9418C201.884 80.8961 202.511 81.7885 203.508 81.6893C204.505 81.5902 204.786 80.5987 204.722 79.5948C204.71 79.3965 204.492 79.1734 204.364 79.3346Z" fill="#263238"/>
<path d="M223.671 90.2666C223.441 90.7624 223.262 91.382 222.725 91.6423C222.15 91.853 221.535 91.9418 220.922 91.9026C220.858 91.9026 220.833 91.9645 220.922 92.0017C221.268 92.2027 221.663 92.3089 222.067 92.3089C222.47 92.3089 222.865 92.2027 223.211 92.0017C223.491 91.8011 223.704 91.5245 223.822 91.207C223.94 90.8894 223.959 90.5449 223.876 90.217C223.824 90.1923 223.697 90.2047 223.671 90.2666Z" fill="#263238"/>
<path d="M219.348 88.1711C217.244 88.2201 215.172 88.6883 213.263 89.5468C213.071 89.5468 212.623 89.5468 212.56 89.3732L211.882 86.0642C211.486 86.3864 209.453 87.886 209.325 87.3035C208.184 81.9542 207.61 76.5058 207.612 71.0433C207.612 71.0038 207.628 70.966 207.657 70.9381C207.686 70.9102 207.725 70.8945 207.765 70.8945C207.806 70.8945 207.845 70.9102 207.874 70.9381C207.903 70.966 207.919 71.0038 207.919 71.0433C208.993 76.0007 209.197 81.082 210.169 86.0642C210.89 85.518 211.686 85.0717 212.534 84.7381C212.713 84.7381 213.071 88.2702 213.263 88.7908C215.164 87.8159 217.357 87.5135 219.463 87.9356C220.294 87.948 220.409 88.1711 219.348 88.1711Z" fill="#263238"/>
<path d="M211.537 99.45C210.405 98.8367 209.361 98.0826 208.43 97.2068C207.497 96.3595 206.641 95.4348 205.874 94.4431C204.334 92.4514 203.046 90.2877 202.038 87.9984C200.969 85.7135 200.084 83.3517 199.392 80.9341L198.446 77.2161C198.177 75.9767 197.934 74.7374 197.64 73.498C197.743 74.7374 197.896 75.9767 198.024 77.2905C198.152 78.6042 198.497 79.7692 198.74 81.0085C199.367 83.4943 200.223 85.9207 201.297 88.2587C202.375 90.6008 203.777 92.7898 205.464 94.7653C207.079 96.7696 209.16 98.3749 211.537 99.45Z" fill="#263238"/>
<path d="M263.595 113.565C286.94 139.591 311.653 173.574 301.949 184.579C294.713 192.784 270.448 179.139 269.988 178.668C264.874 172.93 256.052 143.433 248.343 118.993C241.58 97.4903 253.163 101.915 263.595 113.565Z" fill="#C95F50"/>
<path d="M303.446 182.04C300.416 194.942 268.34 208.067 243.423 215.094C238.68 216.445 227.966 176.984 233.195 176.116C245.353 174.084 268.992 168.122 282.326 167.081C301.605 165.569 305.402 173.687 303.446 182.04Z" fill="#C95F50"/>
<path d="M236.543 175.732C236.543 175.732 224.743 176.414 214.451 177.468C208.711 178.05 197.422 181.371 193.408 183.664C187.412 187.11 164.566 205.229 168.977 210.682C172.966 215.64 190.557 197.657 190.557 197.657C190.557 197.657 171.163 214.276 177.095 219.37C183.027 224.464 200.107 201.598 200.107 201.598C200.107 201.598 180.56 219.11 187.54 223.423C192.82 226.682 209.491 206.815 209.491 206.815C209.491 206.815 192.871 221.973 198.087 225.567C203.866 229.52 220.486 212.107 220.486 212.107C235.482 219.023 244.061 219.37 250.478 210.484C251.54 209.059 236.543 175.732 236.543 175.732Z" fill="#C95F50"/>
<path d="M196.884 191.485C194.532 193.368 192.141 195.203 189.968 197.31C187.795 199.416 185.698 201.523 183.729 203.779C181.109 206.682 178.836 209.862 176.953 213.26C180.789 207.46 188.459 199.937 190.569 197.867C192.678 195.798 194.801 193.629 196.961 191.571C197.025 191.522 196.936 191.447 196.884 191.485Z" fill="#263238"/>
<path d="M204.736 198.957C201.833 201.436 198.867 203.915 196.08 206.505C193.293 209.095 190.967 211.871 188.41 214.672C188.205 214.895 188.41 214.92 188.601 214.672C191.286 211.97 193.984 209.715 196.707 207.001C199.43 204.286 202.038 201.547 204.851 198.982C204.851 198.982 204.774 198.92 204.736 198.957Z" fill="#263238"/>
<path d="M212.662 204.187C208.026 207.958 203.795 212.173 200.031 216.766C199.852 216.989 200.095 217.002 200.299 216.766C204.301 212.515 207.778 209.12 212.828 204.373C212.815 204.274 212.751 204.113 212.662 204.187Z" fill="#263238"/>
<path d="M183.411 218.898C182.431 219.475 181.36 219.894 180.241 220.138C179.203 220.299 178.139 220.101 177.236 219.58C177.172 219.58 177.236 219.456 177.3 219.493C177.808 219.773 178.377 219.93 178.961 219.949C179.544 219.969 180.124 219.851 180.65 219.605C181.606 219.247 182.53 218.812 183.411 218.304C184.347 217.765 185.244 217.164 186.096 216.506C186.96 215.877 187.788 215.203 188.576 214.486H188.64C187.592 215.749 186.837 217.216 186.428 218.787C186.183 219.527 186.126 220.314 186.262 221.08C186.44 221.738 186.84 222.318 187.4 222.728C188.022 223.16 188.788 223.35 189.548 223.261C190.27 223.12 190.959 222.851 191.581 222.468C193.042 221.689 194.455 220.829 195.812 219.89C196.567 219.369 197.308 218.836 198.024 218.266C198.74 217.696 199.405 217.027 200.159 216.568C200.159 216.568 200.287 216.705 200.261 216.742C199.942 217.312 197.193 221.365 197.423 223.447C197.449 223.987 197.65 224.507 197.996 224.931C198.342 225.356 198.817 225.664 199.354 225.814C200.5 226.072 201.702 225.964 202.78 225.504C204.658 224.712 206.474 223.788 208.213 222.74C208.213 222.74 208.316 222.74 208.213 222.827C206.935 223.62 204.25 225.306 202.908 225.963C201.786 226.539 200.491 226.71 199.251 226.446C198.687 226.317 198.168 226.044 197.748 225.657C197.328 225.269 197.022 224.78 196.861 224.24C196.67 223.092 196.877 221.916 197.449 220.894C198.103 219.612 198.837 218.371 199.648 217.176C199.213 217.609 196.861 219.568 196.132 220.113C194.672 221.191 193.139 222.173 191.542 223.05C190.903 223.504 190.142 223.77 189.351 223.816C188.56 223.862 187.771 223.687 187.08 223.31C186.457 222.879 185.985 222.271 185.731 221.57C185.477 220.869 185.453 220.109 185.661 219.394C185.91 218.238 186.388 217.139 187.068 216.159C186.799 216.42 186.518 216.68 186.224 216.915C185.355 217.664 184.413 218.328 183.411 218.898Z" fill="#263238"/>
<path d="M214.452 177.467C211.682 177.732 208.929 178.146 206.206 178.706C203.471 179.262 200.776 179.99 198.139 180.887C196.807 181.376 195.523 181.982 194.304 182.697C193.127 183.453 192.002 184.221 190.89 185.052C188.678 186.675 186.505 188.361 184.434 190.158L191.325 185.634C192.488 184.903 193.613 184.11 194.777 183.416C195.951 182.752 197.188 182.2 198.471 181.767C201.06 180.844 203.698 180.054 206.372 179.4C209.057 178.719 211.755 178.099 214.452 177.467Z" fill="#263238"/>
<path d="M37.2834 470.609H174.245V484.651H37.2834V470.609Z" fill="#A6A6A6"/>
<path d="M314.338 298.391H186.083V250.453H314.338V298.391Z" fill="#A6A6A6"/>
<path d="M293.358 413.698H186.044V407.687H293.358C295.675 407.687 297.97 407.244 300.11 406.384C302.251 405.523 304.196 404.262 305.833 402.673C307.471 401.083 308.769 399.196 309.653 397.12C310.538 395.043 310.991 392.818 310.988 390.572V130.184C310.995 124.068 313.503 118.204 317.963 113.878C322.423 109.552 328.471 107.117 334.78 107.107H349.239V113.118H334.78C330.112 113.122 325.636 114.921 322.335 118.12C319.035 121.32 317.179 125.659 317.176 130.184V390.572C317.179 393.606 316.565 396.612 315.37 399.417C314.175 402.222 312.421 404.771 310.209 406.918C307.997 409.066 305.371 410.77 302.479 411.933C299.588 413.097 296.488 413.696 293.358 413.698Z" fill="#D1D3D2"/>
<path d="M189.177 475.802H182.976V248.047C182.983 242.54 185.243 237.26 189.259 233.366C193.276 229.472 198.722 227.282 204.403 227.275H314.082V233.175H204.403C202.395 233.178 200.407 233.566 198.553 234.316C196.7 235.065 195.018 236.163 193.603 237.545C192.188 238.926 191.069 240.566 190.309 242.368C189.55 244.17 189.165 246.1 189.177 248.047V475.802Z" fill="#D1D3D2"/>
<path d="M368.428 115.871H330.049V103.924H368.428V115.871Z" fill="#263238"/>
<path d="M391.059 389.656C391.059 331.841 352.181 284.795 304.392 284.795C256.603 284.795 217.725 331.89 217.725 389.656C217.725 447.422 256.603 494.518 304.392 494.518C352.181 494.518 391.059 447.484 391.059 389.656ZM382.391 389.656C382.391 442.849 347.399 486.115 304.405 486.115C261.41 486.115 226.419 442.849 226.419 389.656C226.419 336.463 261.41 293.21 304.405 293.21C347.399 293.21 382.391 336.476 382.391 389.656Z" fill="#03326C"/>
<path d="M387.9 389.656C387.9 338.409 353.51 296.705 311.193 296.705C268.876 296.705 234.485 338.409 234.485 389.656C234.485 440.903 268.876 482.608 311.193 482.608C353.51 482.608 387.9 440.916 387.9 389.656ZM381.713 389.656C381.713 437.607 350.096 476.609 311.231 476.609C272.366 476.609 240.75 437.607 240.75 389.656C240.75 341.706 272.366 302.704 311.257 302.704C350.148 302.704 381.713 341.718 381.713 389.656Z" fill="#D1D3D2"/>
<path d="M320.729 389.655C320.729 398.058 315.168 404.862 308.303 404.862C301.438 404.862 295.915 398.009 295.915 389.655C295.915 381.302 301.438 374.461 308.303 374.461C315.168 374.461 320.729 381.265 320.729 389.655Z" fill="#D1D3D2"/>
<path d="M324.706 389.655C324.706 398.058 319.145 404.862 312.279 404.862C305.414 404.862 299.853 398.058 299.853 389.655C299.853 381.253 305.414 374.461 312.279 374.461C319.145 374.461 324.706 381.265 324.706 389.655Z" fill="#DBDBDB"/>
<path d="M184.728 497.404C175.796 497.404 168.555 488.554 168.555 477.637C168.555 466.719 175.796 457.869 184.728 457.869C193.66 457.869 200.9 466.719 200.9 477.637C200.9 488.554 193.66 497.404 184.728 497.404Z" fill="#D1D3D2"/>
<path d="M189.905 497.404C180.973 497.404 173.733 488.554 173.733 477.637C173.733 466.719 180.973 457.869 189.905 457.869C198.837 457.869 206.078 466.719 206.078 477.637C206.078 488.554 198.837 497.404 189.905 497.404Z" fill="#DBDBDB"/>
<path d="M210.13 11.6208C209.667 12.659 209.032 13.6191 208.25 14.4641C208.359 16.7833 206.671 18.9191 204.997 20.439C203.028 22.1955 200.781 23.6457 198.341 24.7367C194.261 26.4966 189.948 27.7134 185.522 28.353C185.945 31.71 186.893 34.9873 188.336 38.0753C188.336 38.1539 188.239 38.1932 188.198 38.0753C186.731 34.9854 185.693 31.7258 185.11 28.3793C184.246 28.5234 183.381 28.6544 182.503 28.7723C181.13 28.9427 179.758 29.0868 178.385 29.1523C176.006 29.4463 173.605 29.5514 171.208 29.4668C168.388 29.4746 165.652 28.5484 163.467 26.8462C162.508 26.0311 161.798 24.9827 161.414 23.8128C161.029 22.6429 160.985 21.3953 161.285 20.2031C161.561 19.1176 161.991 18.073 162.561 17.0978C162.888 16.4078 163.269 15.742 163.7 15.1062C165.183 13.027 167.042 11.2168 169.19 9.76024C169.739 9.36716 170.302 8.98717 170.878 8.6203L171.098 8.41065C173.184 6.5958 175.543 5.08972 178.097 3.94261C183.433 1.4689 189.267 0.127887 195.198 0.0117866C198.177 -0.0587336 201.155 0.187361 204.077 0.745538C206.63 1.25655 209.142 2.25235 210.308 4.67636C211.087 6.38409 211.218 8.29777 210.679 10.0878C210.555 10.6165 210.371 11.1305 210.13 11.6208ZM180.499 27.9993C181.99 27.7896 183.486 27.5276 184.987 27.2131C184.987 27.0428 184.987 26.8724 184.987 26.7021C184.644 26.7021 184.314 26.7938 183.971 26.82C183.628 26.8462 183.367 26.82 183.052 26.82C180.268 27.2612 177.444 27.4281 174.625 27.3179C172.11 27.2124 169.613 26.8611 167.173 26.2697C170.686 28.091 175.16 28.3268 179.003 28.0648L180.499 27.9993ZM189.612 3.47091C188.83 3.61504 188.061 3.77228 187.279 3.94261C189.3 3.96103 191.306 4.28384 193.221 4.89911C195.334 5.54651 197.203 6.7666 198.601 8.41065C199.661 8.6794 200.68 9.07566 201.634 9.5899H202.293C203.13 9.71175 203.949 9.92271 204.736 10.2188C204.736 10.1271 204.736 10.0223 204.736 9.91747C204.736 7.57207 202.773 5.98664 200.715 5.08255C198.37 4.12199 195.866 3.56314 193.317 3.43161C192.078 3.37313 190.836 3.38625 189.598 3.47091H189.612ZM204.064 14.1104C203.817 14.4117 203.57 14.7 203.309 14.9751C203.569 15.1756 203.804 15.4042 204.009 15.6565C204.105 15.1461 204.119 14.6247 204.05 14.1104H204.064ZM185.453 26.5842C185.453 26.7414 185.453 26.9117 185.453 27.069C187.551 26.6122 189.618 26.0346 191.643 25.3394C190.38 25.6408 189.118 25.9028 187.841 26.1518C187.032 26.3352 186.249 26.4925 185.453 26.5842ZM185.989 23.374C191.404 22.3546 196.628 20.5612 201.483 18.0543C202.115 17.7136 202.732 17.3729 203.336 17.0061C203.163 16.5182 202.843 16.0897 202.417 15.7744C200.263 17.5281 197.825 18.9355 195.198 19.9411C192.416 21.0286 189.576 21.9734 186.689 22.7713C186.611 22.7951 186.528 22.7967 186.45 22.7757C186.372 22.7547 186.302 22.7121 186.249 22.6533V22.7713C186.153 22.9678 186.098 23.1775 185.989 23.374ZM200.838 15.8792L201.566 15.3158C200.494 14.9883 199.346 14.961 198.258 15.2372C195.691 15.6588 193.207 16.4496 190.888 17.5826C189.013 18.552 187.506 20.0602 186.579 21.8934C191.574 20.4259 196.694 18.8929 200.88 15.8792H200.838ZM185.742 24.4222L185.577 25.3132L186.743 25.0905L188.377 24.645C191.149 23.8299 193.832 22.7637 196.392 21.461C193.511 22.5625 190.541 23.4389 187.512 24.0815L185.742 24.4222ZM185.11 24.5401C183.463 24.8153 181.803 25.0249 180.142 25.1691C180.853 25.4938 181.633 25.6553 182.42 25.6408C183.286 25.6415 184.15 25.5625 185 25.4049C185.028 25.1167 185.055 24.8284 185.11 24.5401ZM196.625 22.4961L197.023 22.352C198.193 21.8796 199.322 21.3188 200.399 20.6748L201.374 20.0721C201.525 19.928 201.689 19.7838 201.827 19.6266L202.087 19.3252C200.341 20.4944 198.516 21.5536 196.625 22.4961ZM203.72 12.9966C203.294 12.03 202.577 11.205 201.662 10.625C200.858 10.5594 200.05 10.5594 199.246 10.625C199.022 11.1549 198.641 11.6104 198.148 11.9353C197.059 12.7591 195.913 13.512 194.717 14.189C190.365 16.6873 185.529 18.3186 180.499 18.9846C179.707 19.8918 179.139 20.9577 178.838 22.103C178.639 22.8538 178.757 23.6492 179.168 24.3174C181.235 24.1558 183.292 23.889 185.33 23.5181C185.399 23.2168 185.495 22.9154 185.591 22.614C186.378 20.2278 188.065 18.2059 190.326 16.9405C192.725 15.692 195.313 14.8078 197.997 14.32C199.456 13.9108 201.015 13.9753 202.43 14.5034H202.513C202.977 14.049 203.382 13.5431 203.72 12.9966ZM169.053 17.4122C169.452 17.7252 169.922 17.945 170.425 18.0543C171.775 15.9886 173.549 14.2056 175.64 12.8132C179.765 9.86614 184.682 8.09853 189.818 7.7162C192.113 7.55322 194.42 7.68099 196.68 8.09618L196.488 7.93895C195.667 7.25704 194.741 6.70016 193.743 6.288C189.731 4.84018 185.345 4.62488 181.199 5.67218L180.897 5.777C176.639 7.1998 172.66 9.28991 169.121 11.9615L168.998 12.158C168.229 13.5469 167.461 16.102 169.053 17.4122ZM197.874 9.1444C195.863 8.64177 193.79 8.40372 191.712 8.43686C186.97 8.4972 182.332 9.77827 178.289 12.1449C176.251 13.3317 174.402 14.7923 172.8 16.482C172.293 17.0216 171.834 17.6001 171.427 18.2115L172.635 18.3032C173.963 18.4058 175.297 18.4364 176.629 18.395C177.644 18.395 178.66 18.277 179.662 18.1591L179.744 18.0674C183.148 14.1366 188.281 12.0925 193.276 10.7167C194.877 10.2491 196.516 9.9116 198.176 9.70783C198.108 9.49156 198.011 9.28456 197.888 9.092L197.874 9.1444ZM196.735 10.9657C194.222 11.4539 191.763 12.1691 189.392 13.1014C187.096 13.9531 184.949 15.1327 183.024 16.5999C182.498 17.0116 181.994 17.4489 181.515 17.9101C185.03 17.3563 188.439 16.3053 191.629 14.7917C192.77 14.2525 193.879 13.6532 194.951 12.9966C195.541 12.6428 196.117 12.2629 196.68 11.8698C197.185 11.5658 197.646 11.2002 198.052 10.7823C197.613 10.7692 197.174 10.8609 196.749 10.8609L196.735 10.9657ZM171.29 22.9285C172.662 24.3698 175.05 24.527 176.917 24.4746H177.74C177.469 23.5785 177.43 22.6326 177.629 21.7192C177.827 20.8057 178.257 19.9524 178.879 19.2335C176.254 19.5045 173.602 19.4605 170.988 19.1025C170.64 19.6898 170.484 20.3629 170.541 21.0354C170.597 21.7079 170.863 22.349 171.304 22.8761L171.29 22.9285ZM204.228 12.1056C204.332 11.8756 204.419 11.6392 204.489 11.3981C204.124 11.242 203.748 11.1107 203.364 11.005C203.499 11.1341 203.627 11.2697 203.748 11.4112C203.933 11.6137 204.102 11.8282 204.256 12.0532L204.228 12.1056ZM164.538 24.5795C165.137 24.8248 165.757 25.022 166.39 25.1691C168.767 25.8212 171.21 26.2297 173.678 26.3876C175.642 26.5252 177.615 26.5252 179.579 26.3876C179.092 26.1524 178.662 25.8221 178.317 25.418H178.221C176.011 25.536 173.472 25.5753 171.537 24.3698C171.062 24.0866 170.652 23.7159 170.329 23.2795C170.006 22.843 169.778 22.3496 169.657 21.8279C169.476 20.8575 169.605 19.8577 170.027 18.9584C169.53 18.8533 169.061 18.6527 168.648 18.3689C168.235 18.0851 167.887 17.7239 167.625 17.3074C167.169 16.4272 167.025 15.4295 167.214 14.4641C167.26 14.1164 167.343 13.774 167.461 13.4421C165.816 14.7526 164.423 16.3266 163.344 18.0936C162.671 19.1875 162.437 20.477 162.685 21.7231C162.964 22.7796 163.538 23.744 164.345 24.5139L164.538 24.5795ZM205.203 15.7482C205.859 15.1919 206.482 14.6013 207.069 13.9793C206.949 13.5192 206.734 13.0865 206.437 12.7064C206.141 12.3262 205.768 12.0062 205.34 11.765C205.17 12.2206 204.954 12.6594 204.695 13.0752C204.974 14.0275 205.007 15.0301 204.791 15.9971L205.203 15.7482ZM209.32 10.7429C209.802 9.46196 209.743 8.05227 209.155 6.81212C208.612 5.82525 207.851 4.96272 206.924 4.28406C205.998 3.60541 204.928 3.1268 203.789 2.88129C201.041 2.34614 198.214 2.28843 195.445 2.71095H195.019C197.111 2.96441 199.154 3.50273 201.085 4.30949C202.214 4.69734 203.224 5.34709 204.024 6.20025C204.824 7.0534 205.39 8.08317 205.669 9.19682C205.745 9.7009 205.745 10.2127 205.669 10.7167C206.676 11.2166 207.478 12.0239 207.948 13.0097C208.502 12.3114 208.963 11.55 209.32 10.7429ZM177.562 5.22668C179.839 4.32478 182.201 3.63158 184.616 3.15645C186.021 2.88285 187.442 2.69033 188.871 2.57993C190.394 2.29167 191.945 2.04271 193.482 1.84617C198.684 1.19103 205.354 0.535895 209.1 4.8205C209.224 4.96463 209.334 5.12186 209.444 5.26599C209.246 4.79731 208.983 4.35649 208.661 3.95571C207.836 3.03367 206.742 2.36759 205.518 2.04271C202.892 1.30978 200.171 0.926192 197.435 0.902774C191.961 0.732162 186.507 1.62366 181.405 3.52333C180.076 4.02646 178.775 4.59501 177.507 5.22668H177.562ZM169.519 28.4317H169.972C168.523 28.0438 167.138 27.4662 165.855 26.7152C165.198 26.3342 164.586 25.8861 164.03 25.3787C163.647 25.2165 163.294 24.9952 162.987 24.7236C162.928 24.6701 162.873 24.6132 162.822 24.5532C162.928 24.7526 163.047 24.9452 163.179 25.1298C163.945 26.063 164.902 26.8373 165.992 27.405C167.083 27.9728 168.283 28.3221 169.519 28.4317ZM206.218 17.4122C206.57 16.8755 206.838 16.2929 207.014 15.6827C206.344 16.256 205.639 16.7898 204.901 17.2812L204.75 17.3991C204.743 17.9196 204.617 18.4324 204.38 18.9011C204.143 19.3698 203.8 19.783 203.377 20.1114C202.314 21.0133 201.138 21.7877 199.878 22.4175C199.425 22.732 198.972 23.0333 198.505 23.3085C198.039 23.5836 197.339 23.9374 196.749 24.2388C198.173 23.6583 199.55 22.9749 200.866 22.1948C203.002 21.0022 204.831 19.368 206.218 17.4122Z" fill="#263238"/>
</svg>
