<svg width="52" height="50" viewBox="0 0 52 50" fill="none" xmlns="http://www.w3.org/2000/svg">
<path d="M26 33.3334V43.7501" stroke="#03326C" stroke-width="4.72312" stroke-linecap="round"/>
<path d="M19.5 43.7501H32.5" stroke="#03326C" stroke-width="4.72312" stroke-linecap="round"/>
<path fill-rule="evenodd" clip-rule="evenodd" d="M26.0016 33.3333C31.573 33.3333 36.2159 31.4815 37.1445 25.9258L38.7594 10.6271C38.8891 9.39959 37.8871 8.33334 36.604 8.33334H15.3993C14.1162 8.33334 13.1141 9.39959 13.2437 10.6271L14.8587 25.9258C15.7873 31.4815 20.4302 33.3333 26.0016 33.3333Z" stroke="#03326C" stroke-width="4.72312" stroke-linecap="round"/>
<path d="M39.0007 14.5833H44.3187C44.9716 14.5833 45.5007 15.0921 45.5007 15.7197V18.75C45.5007 23.3523 41.6204 27.0833 36.834 27.0833" stroke="#03326C" stroke-width="4.72312" stroke-linecap="round"/>
<path d="M13 14.5833H7.68181C7.02912 14.5833 6.5 15.0921 6.5 15.7197V18.75C6.5 23.3523 10.3802 27.0833 15.1667 27.0833" stroke="#03326C" stroke-width="4.72312" stroke-linecap="round"/>
</svg>
