<svg width="22" height="21" viewBox="0 0 22 21" fill="none" xmlns="http://www.w3.org/2000/svg">
<path d="M2.84316 14.3684L8.73577 14.3684L7.55661 18.0898C7.34451 18.7618 7.45161 19.5068 7.84536 20.0815C8.23911 20.6563 8.87751 21 9.55056 21L11.2432 21C11.555 21 11.8501 20.8541 12.0506 20.6021L16.9856 14.3684H19.6432C20.8013 14.3684 21.7432 13.377 21.7432 12.1579V2.21053C21.7432 0.991423 20.8013 0 19.6432 0H16.4932L5.67082 0C4.80037 0 4.01077 0.575844 3.70416 1.43463L0.809315 9.55942C0.765215 9.68321 0.743164 9.81474 0.743164 9.94737V12.1579C0.743164 13.377 1.68501 14.3684 2.84316 14.3684ZM19.6432 12.1579H17.5432V2.21053H19.6432V12.1579ZM2.84316 10.1474L5.67082 2.21053L15.4432 2.21053L15.4432 12.8631L10.7518 18.7895L9.54846 18.7895L11.1886 13.6135C11.2967 13.2764 11.2421 12.9062 11.0447 12.6177C10.8473 12.3281 10.5302 12.1579 10.1932 12.1579L2.84316 12.1579V10.1474Z" fill="#251212"/>
</svg>
