<svg width="55" height="58" viewBox="0 0 55 58" fill="none" xmlns="http://www.w3.org/2000/svg">
<path d="M6.3623 0C2.8485 0 0 2.8485 0 6.3623C0 8.43385 1.00853 10.3757 2.70318 11.5671L21.7488 24.9567C25.1992 27.3825 29.8008 27.3825 33.2512 24.9567L52.2968 11.5671C53.9915 10.3757 55 8.43385 55 6.3623C55 2.8485 52.1515 0 48.6377 0H6.3623ZM15.7512 30.4069C9.12533 25.7487 0 30.4881 0 38.5876V48C0 53.5228 4.47715 58 10 58H45C50.5228 58 55 53.5229 55 48V38.5876C55 30.4881 45.8747 25.7487 39.2487 30.4069L33.2513 34.6234C29.8008 37.0492 25.1992 37.0492 21.7488 34.6234L15.7512 30.4069Z" fill="white"/>
</svg>
