<svg width="101" height="101" viewBox="0 0 101 101" fill="none" xmlns="http://www.w3.org/2000/svg">
<path d="M41.3475 38.3736C41.3475 40.9258 39.6385 42.2159 38.4255 42.2159C37.2126 42.2159 35.5035 40.9258 35.5035 38.3736C35.5035 35.8215 37.2126 34.5314 38.4255 34.5314C39.6385 34.5314 41.3475 35.8215 41.3475 38.3736Z" stroke="#03326C" stroke-width="6.24536"/>
<path d="M65.5263 38.3736C65.5263 40.9258 63.8173 42.2159 62.6043 42.2159C61.3912 42.2159 59.6823 40.9258 59.6823 38.3736C59.6823 35.8215 61.3912 34.5314 62.6043 34.5314C63.8173 34.5314 65.5263 35.8215 65.5263 38.3736Z" stroke="#03326C" stroke-width="6.24536"/>
<path d="M35.6286 62.4954C33.9918 63.7417 32.7708 65.0015 31.9423 65.976C31.5279 66.4628 31.2106 66.8802 30.9876 67.1903M35.6286 62.4954L66.7923 71.8121L66.7881 71.8464L66.6658 72.837C66.4881 72.665 66.3238 72.462 66.1777 72.2287L66.1618 72.2053M35.6286 62.4954C38.9177 59.9893 43.8407 57.5706 50.5257 57.5706C57.2109 57.5706 62.1291 59.9893 65.4142 62.4968C66.2951 63.1688 67.0552 63.8447 67.6981 64.4776L35.6286 62.4954ZM30.9876 67.1903C30.8761 67.3458 30.7879 67.4749 30.7229 67.5722M30.9876 67.1903L31.1107 67.2788L30.7703 67.603L30.7229 67.5722M30.9876 67.1903L31.1108 67.2787L32.2257 66.2172L32.2259 66.217L32.8577 65.6154L34.7077 67.5583M30.7229 67.5722L30.6425 67.6957M30.7229 67.5722L30.7697 67.6035L30.6607 67.7074L30.6425 67.6957M30.6425 67.6957L30.6151 67.7382M30.6425 67.6957L30.6606 67.7075L30.6231 67.7432L30.6151 67.7382M30.6151 67.7382L30.6046 67.7553L30.6002 67.7624M30.6151 67.7382L30.623 67.7433L30.6081 67.7574L30.6081 67.7575L30.6018 67.7634L30.6002 67.7624M30.6002 67.7624L30.5962 67.7688L30.6018 67.7634L30.6002 67.7624ZM34.7077 67.5583C34.7065 67.5597 34.7053 67.561 34.7041 67.5623C34.7214 67.5804 34.7388 67.5987 34.7563 67.617C34.7576 67.6158 34.7589 67.6146 34.7602 67.6134M34.7077 67.5583C35.3972 66.7964 36.3317 65.8849 37.5203 64.9799L37.5211 64.9793C40.3732 62.8062 44.6476 60.6932 50.5257 60.6932C56.4037 60.6932 60.6725 62.8059 63.5196 64.9791L63.5203 64.9796C64.9455 66.0668 66.0041 67.1633 66.7123 67.9984L66.7129 67.9991C66.786 68.0853 66.8553 68.1686 66.9209 68.2487C66.2908 67.5988 65.4971 66.8664 64.5326 66.1306M34.7077 67.5583L34.7602 67.6134M34.7602 67.6134L36.1536 69.0768L34.7078 70.4591L35.6182 71.2337M34.7602 67.6134C35.2642 67.1377 35.8461 66.635 36.5081 66.1307L36.5082 66.1306C39.4788 63.868 44.1023 61.5452 50.5257 61.5452C56.9484 61.5452 61.5668 63.867 64.5326 66.1306M35.6182 71.2337L34.7076 70.4592L33.8927 71.2384L34.9902 72.0275L33.8925 71.2386L33.6963 71.4262L33.684 71.4379L33.6626 71.4583L33.6443 71.4758L31.7375 73.2989C32.8146 73.8426 34.082 73.4552 34.8498 72.2337L34.8656 72.2096M35.6182 71.2337C35.3253 71.5779 35.1172 71.854 34.9917 72.0286C34.9289 72.1159 34.887 72.1776 34.8656 72.2096M35.6182 71.2337C36.2043 70.5445 37.1258 69.5857 38.4004 68.6148C40.9339 66.685 44.909 64.6679 50.5257 64.6679C56.1422 64.6679 60.1114 66.6843 62.6386 68.6133M34.8656 72.2096L34.8655 72.2095L34.8656 72.2096ZM62.6386 68.6133C63.9104 69.5835 64.8287 70.5417 65.4126 71.2301C65.7043 71.5744 65.9117 71.8497 66.0365 72.0243C66.0989 72.1116 66.1405 72.1734 66.1618 72.2053M62.6386 68.6133L64.5326 66.1306M62.6386 68.6133L64.5333 66.1311C64.533 66.131 64.5328 66.1308 64.5326 66.1306M66.1618 72.2053L66.7969 71.7748L66.7961 71.7814L66.1618 72.2053ZM67.8869 69.3206C67.8887 69.3228 67.8905 69.325 67.8923 69.3272L67.8869 69.3206ZM67.8869 69.3206L67.969 69.2675C67.9688 69.2658 67.9686 69.264 67.9684 69.2623L67.8869 69.3206ZM67.7008 69.2912L67.7639 69.3888L67.7691 69.3968L67.7829 69.4183C67.8582 69.5436 67.9365 69.7965 67.9092 70.1163C67.8964 70.2657 67.863 70.3898 67.8257 70.4792C67.7908 70.5629 67.7617 70.5952 67.7617 70.5953C67.7617 70.5953 67.7619 70.5951 67.7621 70.5948L67.8791 70.7075L67.7008 69.2912ZM67.881 69.3136C67.8596 69.2881 67.838 69.2622 67.8159 69.2361L67.881 69.3136ZM31.1935 72.9278C31.1332 72.8746 31.0739 72.8178 31.016 72.7575C30.9562 72.6952 30.8989 72.6303 30.8442 72.563C30.903 72.6244 30.9628 72.6869 31.0235 72.7503C31.0794 72.8086 31.136 72.8678 31.1935 72.9278Z" stroke="#03326C" stroke-width="6.24536"/>
<path d="M3.26526 50.3133C3.26526 34.3809 11.372 20.2921 23.7552 11.8786C11.4158 20.287 3.31644 34.3529 3.31644 50.3133C3.31644 66.2784 11.4204 80.3477 23.7657 88.7553C11.3765 80.3426 3.26526 66.2504 3.26526 50.3133ZM97.7134 50.3133C97.7134 34.3487 89.6099 20.2797 77.265 11.872C89.6537 20.2848 97.7646 34.3767 97.7646 50.3133C97.7646 66.254 89.6497 80.3489 77.2558 88.7609C89.6059 80.354 97.7134 66.2819 97.7134 50.3133Z" stroke="#03326C" stroke-width="6.24536"/>
</svg>
