<svg width="41" height="52" viewBox="0 0 41 52" fill="none" xmlns="http://www.w3.org/2000/svg">
<path d="M4.89588 18.5688V1M36.1041 18.5688V1M20.5 6.01966V1M23.8809 16.3351L27.3138 22.961C27.7819 23.8646 29.0303 24.7681 30.0705 24.9187L36.2862 25.9226C40.2652 26.5752 41.2015 29.336 38.3407 32.0968L33.5034 36.7651C32.6972 37.5431 32.2291 39.0741 32.4892 40.1785L33.8675 45.9762C34.9598 50.5441 32.4371 52.3261 28.25 49.9417L22.4245 46.6036C21.3582 46.0013 19.6418 46.0013 18.5755 46.6036L12.75 49.9417C8.56285 52.3261 6.04018 50.5441 7.13247 45.9762L8.51083 40.1785C8.7709 39.0992 8.30278 37.5682 7.49657 36.7651L2.65929 32.0968C-0.201465 29.336 0.734783 26.5501 4.71383 25.9226L10.9295 24.9187C11.9697 24.743 13.2181 23.8646 13.6862 22.961L17.1191 16.3351C18.9656 12.746 22.0344 12.746 23.8809 16.3351Z" stroke="#FF781C" stroke-width="1.5" stroke-linecap="round" stroke-linejoin="round"/>
</svg>
