<svg width="238" height="240" viewBox="0 0 238 240" fill="none" xmlns="http://www.w3.org/2000/svg">
<path d="M237 120C237 185.73 184.162 239 119 239C53.8383 239 1 185.73 1 120C1 54.2702 53.8383 1 119 1C184.162 1 237 54.2702 237 120Z" fill="white" stroke="#03326C" stroke-width="2"/>
<path d="M120.324 137.511C128.697 137.511 135.485 130.666 135.485 122.222C135.485 113.779 128.697 106.934 120.324 106.934C111.95 106.934 105.162 113.779 105.162 122.222C105.162 130.666 111.95 137.511 120.324 137.511Z" fill="#03326C"/>
<path d="M106.108 74.4453L97.4376 84.0009H82.4183C77.2065 84.0009 72.9424 88.3009 72.9424 93.5564V150.89C72.9424 156.145 77.2065 160.445 82.4183 160.445H158.226C163.437 160.445 167.702 156.145 167.702 150.89V93.5564C167.702 88.3009 163.437 84.0009 158.226 84.0009H143.206L134.536 74.4453H106.108ZM120.322 146.112C107.245 146.112 96.6322 135.41 96.6322 122.223C96.6322 109.036 107.245 98.3342 120.322 98.3342C133.399 98.3342 144.012 109.036 144.012 122.223C144.012 135.41 133.399 146.112 120.322 146.112Z" fill="#03326C"/>
</svg>
