<svg width="70" height="71" viewBox="0 0 70 71" fill="none" xmlns="http://www.w3.org/2000/svg">
<circle cx="35" cy="35.5" r="35" fill="white"/>
<path d="M47.1875 50.0608L43.2056 34.3116C44.6778 32.4521 45.4751 30.1351 45.4637 27.7495C45.4637 24.9648 44.3741 22.2943 42.4345 20.3252C40.4949 18.3562 37.8643 17.25 35.1213 17.25C32.3784 17.25 29.7477 18.3562 27.8081 20.3252C25.8686 22.2943 24.7789 24.9648 24.7789 27.7495C24.7742 30.1535 25.5905 32.4849 27.0887 34.3466L23.0552 50.0608C22.9694 50.3967 22.9839 50.7509 23.0968 51.0783C23.2098 51.4058 23.4161 51.6918 23.6895 51.9C23.9629 52.1082 24.2911 52.2292 24.6324 52.2475C24.9738 52.2659 25.3127 52.1809 25.6063 52.0032L34.7938 46.526L44.5846 52.0207C44.8492 52.1828 45.155 52.2619 45.4637 52.2482C45.7314 52.2569 45.9973 52.2021 46.2405 52.0883C46.4837 51.9744 46.6974 51.8046 46.8647 51.5923C47.032 51.3801 47.1483 51.1311 47.2043 50.8653C47.2603 50.5994 47.2545 50.324 47.1875 50.0608ZM35.1213 20.7498C36.485 20.7498 37.8181 21.1603 38.9519 21.9295C40.0858 22.6986 40.9696 23.7918 41.4914 25.0708C42.0133 26.3498 42.1498 27.7572 41.8838 29.115C41.6177 30.4728 40.9611 31.72 39.9968 32.699C39.0325 33.6779 37.8039 34.3445 36.4665 34.6146C35.129 34.8847 33.7426 34.7461 32.4828 34.2163C31.2229 33.6865 30.146 32.7893 29.3884 31.6383C28.6308 30.4872 28.2264 29.1339 28.2264 27.7495C28.2264 25.893 28.9528 24.1127 30.2459 22.8C31.5389 21.4873 33.2927 20.7498 35.1213 20.7498ZM35.6557 42.9912C35.3936 42.8376 35.0964 42.7567 34.7938 42.7567C34.4912 42.7567 34.194 42.8376 33.932 42.9912L27.468 46.841L29.9501 36.8665C31.5025 37.7723 33.2618 38.249 35.0524 38.249C36.8429 38.249 38.6022 37.7723 40.1546 36.8665L42.7919 46.9985L35.6557 42.9912Z" fill="#FF781C"/>
</svg>
