<svg width="39" height="38" viewBox="0 0 39 38" fill="none" xmlns="http://www.w3.org/2000/svg">
<path d="M19.411 36.9179C29.1895 36.9179 37.1167 28.8773 37.1167 18.959C37.1167 9.04049 29.1895 1 19.411 1C9.63242 1 1.70532 9.04049 1.70532 18.959C1.70532 28.8773 9.63242 36.9179 19.411 36.9179Z" stroke="white" stroke-width="2" stroke-linecap="round" stroke-linejoin="round"/>
<path d="M23.5421 31.5302V28.1845C23.5864 27.6286 23.5104 27.0698 23.319 26.5452C23.1278 26.0206 22.8256 25.5422 22.4327 25.1419C26.139 24.7338 30.0343 23.3465 30.0343 16.9815C30.0339 15.3538 29.4 13.7886 28.2637 12.6098C28.8018 11.1858 28.7637 9.61184 28.1575 8.21483C28.1575 8.21483 26.7646 7.80682 23.5421 9.94018C20.8367 9.21602 17.985 9.21602 15.2795 9.94018C12.0571 7.80682 10.6642 8.21483 10.6642 8.21483C10.058 9.61184 10.0199 11.1858 10.558 12.6098C9.4132 13.7973 8.77863 15.3767 8.78744 17.0163C8.78744 23.3348 12.6827 24.7222 16.389 25.1767C16.0008 25.5731 15.7012 26.0457 15.5101 26.564C15.3189 27.0822 15.2403 27.6342 15.2795 28.1845V31.5302" stroke="white" stroke-width="2" stroke-linecap="round" stroke-linejoin="round"/>
<path d="M15.2795 29.1985C11.7384 30.333 8.78741 29.1985 7.01685 25.7012L15.2795 29.1985Z" fill="white"/>
<path d="M15.2795 29.1985C11.7384 30.333 8.78741 29.1985 7.01685 25.7012" stroke="white" stroke-width="2" stroke-linecap="round" stroke-linejoin="round"/>
</svg>
