<svg width="32" height="31" viewBox="0 0 32 31" fill="none" xmlns="http://www.w3.org/2000/svg">
<path d="M30.7546 27.8288L24.9463 22.0375C26.8203 19.65 27.8371 16.7018 27.8333 13.6667C27.8333 10.9637 27.0318 8.32135 25.5301 6.07388C24.0284 3.82641 21.8939 2.07472 19.3967 1.04032C16.8994 0.00592151 14.1515 -0.264724 11.5004 0.262607C8.84937 0.789939 6.4142 2.09156 4.50288 4.00288C2.59156 5.9142 1.28994 8.34937 0.762607 11.0004C0.235276 13.6515 0.505922 16.3994 1.54032 18.8967C2.57472 21.3939 4.32641 23.5284 6.57388 25.0301C8.82135 26.5318 11.4637 27.3333 14.1667 27.3333C17.2018 27.3371 20.15 26.3203 22.5375 24.4463L28.3288 30.2546C28.4876 30.4147 28.6765 30.5418 28.8847 30.6285C29.0929 30.7153 29.3162 30.7599 29.5417 30.7599C29.7672 30.7599 29.9905 30.7153 30.1987 30.6285C30.4068 30.5418 30.5958 30.4147 30.7546 30.2546C30.9147 30.0958 31.0418 29.9068 31.1285 29.6987C31.2153 29.4905 31.2599 29.2672 31.2599 29.0417C31.2599 28.8162 31.2153 28.5929 31.1285 28.3847C31.0418 28.1765 30.9147 27.9876 30.7546 27.8288ZM3.91667 13.6667C3.91667 11.6394 4.51783 9.65768 5.64411 7.97208C6.77039 6.28648 8.37123 4.97271 10.2442 4.19691C12.1171 3.42111 14.178 3.21813 16.1664 3.61362C18.1547 4.00912 19.981 4.98534 21.4145 6.41883C22.848 7.85232 23.8242 9.67869 24.2197 11.667C24.6152 13.6553 24.4122 15.7162 23.6364 17.5892C22.8606 19.4621 21.5469 21.063 19.8613 22.1892C18.1757 23.3155 16.1939 23.9167 14.1667 23.9167C11.4482 23.9167 8.84108 22.8368 6.91883 20.9145C4.99658 18.9923 3.91667 16.3851 3.91667 13.6667Z" fill="#FF781C"/>
<path d="M17.5846 11.9596H15.8763V10.2513C15.8763 9.79822 15.6963 9.3637 15.3759 9.04333C15.0556 8.72295 14.621 8.54297 14.168 8.54297C13.7149 8.54297 13.2804 8.72295 12.96 9.04333C12.6396 9.3637 12.4596 9.79822 12.4596 10.2513V11.9596H10.7513C10.2982 11.9596 9.8637 12.1396 9.54333 12.46C9.22295 12.7804 9.04297 13.2149 9.04297 13.668C9.04297 14.121 9.22295 14.5556 9.54333 14.8759C9.8637 15.1963 10.2982 15.3763 10.7513 15.3763H12.4596V17.0846C12.4596 17.5377 12.6396 17.9722 12.96 18.2926C13.2804 18.613 13.7149 18.793 14.168 18.793C14.621 18.793 15.0556 18.613 15.3759 18.2926C15.6963 17.9722 15.8763 17.5377 15.8763 17.0846V15.3763H17.5846C18.0377 15.3763 18.4722 15.1963 18.7926 14.8759C19.113 14.5556 19.293 14.121 19.293 13.668C19.293 13.2149 19.113 12.7804 18.7926 12.46C18.4722 12.1396 18.0377 11.9596 17.5846 11.9596Z" fill="#FF781C"/>
</svg>
