<svg width="70" height="70" viewBox="0 0 70 70" fill="none" xmlns="http://www.w3.org/2000/svg">
<path d="M70 35C70 54.33 54.33 70 35 70C15.67 70 0 54.33 0 35C0 15.67 15.67 0 35 0C54.33 0 70 15.67 70 35Z" fill="white"/>
<path d="M49.7546 47.8288L43.9463 42.0375C45.8203 39.65 46.8371 36.7018 46.8333 33.6667C46.8333 30.9637 46.0318 28.3214 44.5301 26.0739C43.0284 23.8264 40.8939 22.0747 38.3967 21.0403C35.8994 20.0059 33.1515 19.7353 30.5004 20.2626C27.8494 20.7899 25.4142 22.0916 23.5029 24.0029C21.5916 25.9142 20.2899 28.3494 19.7626 31.0004C19.2353 33.6515 19.5059 36.3994 20.5403 38.8967C21.5747 41.3939 23.3264 43.5284 25.5739 45.0301C27.8214 46.5318 30.4637 47.3333 33.1667 47.3333C36.2018 47.3371 39.15 46.3203 41.5375 44.4463L47.3288 50.2546C47.4876 50.4147 47.6765 50.5418 47.8847 50.6285C48.0929 50.7153 48.3162 50.7599 48.5417 50.7599C48.7672 50.7599 48.9905 50.7153 49.1987 50.6285C49.4068 50.5418 49.5958 50.4147 49.7546 50.2546C49.9147 50.0958 50.0418 49.9068 50.1285 49.6987C50.2153 49.4905 50.2599 49.2672 50.2599 49.0417C50.2599 48.8162 50.2153 48.5929 50.1285 48.3847C50.0418 48.1765 49.9147 47.9876 49.7546 47.8288ZM22.9167 33.6667C22.9167 31.6394 23.5178 29.6577 24.6441 27.9721C25.7704 26.2865 27.3712 24.9727 29.2442 24.1969C31.1171 23.4211 33.178 23.2181 35.1664 23.6136C37.1547 24.0091 38.981 24.9853 40.4145 26.4188C41.848 27.8523 42.8242 29.6787 43.2197 31.667C43.6152 33.6553 43.4122 35.7162 42.6364 37.5892C41.8606 39.4621 40.5469 41.063 38.8613 42.1892C37.1757 43.3155 35.1939 43.9167 33.1667 43.9167C30.4482 43.9167 27.8411 42.8368 25.9188 40.9145C23.9966 38.9923 22.9167 36.3851 22.9167 33.6667Z" fill="#FF781C"/>
<path d="M36.5846 31.9596H34.8763V30.2513C34.8763 29.7982 34.6963 29.3637 34.3759 29.0433C34.0556 28.723 33.621 28.543 33.168 28.543C32.7149 28.543 32.2804 28.723 31.96 29.0433C31.6396 29.3637 31.4596 29.7982 31.4596 30.2513V31.9596H29.7513C29.2982 31.9596 28.8637 32.1396 28.5433 32.46C28.223 32.7804 28.043 33.2149 28.043 33.668C28.043 34.121 28.223 34.5556 28.5433 34.8759C28.8637 35.1963 29.2982 35.3763 29.7513 35.3763H31.4596V37.0846C31.4596 37.5377 31.6396 37.9722 31.96 38.2926C32.2804 38.613 32.7149 38.793 33.168 38.793C33.621 38.793 34.0556 38.613 34.3759 38.2926C34.6963 37.9722 34.8763 37.5377 34.8763 37.0846V35.3763H36.5846C37.0377 35.3763 37.4722 35.1963 37.7926 34.8759C38.113 34.5556 38.293 34.121 38.293 33.668C38.293 33.2149 38.113 32.7804 37.7926 32.46C37.4722 32.1396 37.0377 31.9596 36.5846 31.9596Z" fill="#FF781C"/>
</svg>
