<svg width="120" height="15" viewBox="0 0 120 15" fill="none" xmlns="http://www.w3.org/2000/svg">
<path d="M3.03764 1.31818V11.5H0.884943V1.31818H3.03764ZM4.769 11.5V3.86364H6.82227V5.19602H6.90181C7.04102 4.72206 7.27468 4.36411 7.60281 4.12216C7.93093 3.87689 8.30877 3.75426 8.73633 3.75426C8.84239 3.75426 8.95674 3.76089 9.07937 3.77415C9.202 3.78741 9.30972 3.80563 9.40252 3.82883V5.7081C9.30309 5.67827 9.16554 5.65175 8.98988 5.62855C8.81422 5.60535 8.65347 5.59375 8.50764 5.59375C8.19608 5.59375 7.91767 5.6617 7.67241 5.79759C7.43046 5.93016 7.23822 6.11577 7.0957 6.3544C6.9565 6.59304 6.8869 6.86813 6.8869 7.17969V11.5H4.769ZM13.7377 14.3636V3.86364H15.8258V5.14631H15.9203C16.0131 4.94081 16.1473 4.73201 16.323 4.51989C16.502 4.30445 16.734 4.12547 17.019 3.98295C17.3074 3.83712 17.6653 3.7642 18.0929 3.7642C18.6497 3.7642 19.1634 3.91004 19.6341 4.2017C20.1047 4.49006 20.4809 4.9259 20.7626 5.50923C21.0443 6.08925 21.1852 6.81676 21.1852 7.69176C21.1852 8.54356 21.0476 9.26278 20.7725 9.84943C20.5008 10.4328 20.1296 10.8752 19.6589 11.1768C19.1916 11.4751 18.6679 11.6243 18.0879 11.6243C17.6769 11.6243 17.3272 11.5563 17.0389 11.4205C16.7538 11.2846 16.5202 11.1139 16.3379 10.9084C16.1556 10.6996 16.0164 10.4891 15.9203 10.277H15.8556V14.3636H13.7377ZM15.8109 7.68182C15.8109 8.13589 15.8739 8.53196 15.9998 8.87003C16.1258 9.2081 16.3081 9.47159 16.5467 9.66051C16.7853 9.84612 17.0753 9.93892 17.4167 9.93892C17.7614 9.93892 18.0531 9.84446 18.2917 9.65554C18.5304 9.4633 18.711 9.19815 18.8336 8.86009C18.9596 8.5187 19.0225 8.12595 19.0225 7.68182C19.0225 7.241 18.9612 6.85322 18.8386 6.51847C18.716 6.18371 18.5353 5.92187 18.2967 5.73295C18.0581 5.54403 17.7647 5.44957 17.4167 5.44957C17.072 5.44957 16.7804 5.54072 16.5417 5.72301C16.3064 5.9053 16.1258 6.16383 15.9998 6.49858C15.8739 6.83333 15.8109 7.22775 15.8109 7.68182ZM24.7747 11.6442C24.2875 11.6442 23.8533 11.5597 23.4721 11.3906C23.091 11.2183 22.7894 10.9647 22.5673 10.63C22.3485 10.2919 22.2392 9.87098 22.2392 9.36719C22.2392 8.94295 22.3171 8.58665 22.4728 8.2983C22.6286 8.00994 22.8407 7.77794 23.1092 7.60227C23.3777 7.42661 23.6826 7.29403 24.024 7.20455C24.3687 7.11506 24.7299 7.05208 25.1078 7.01562C25.5519 6.96922 25.9099 6.92614 26.1816 6.88636C26.4534 6.84328 26.6506 6.7803 26.7733 6.69744C26.8959 6.61458 26.9572 6.49195 26.9572 6.32955V6.29972C26.9572 5.98485 26.8578 5.74124 26.6589 5.56889C26.4634 5.39654 26.185 5.31037 25.8237 5.31037C25.4425 5.31037 25.1393 5.39489 24.9139 5.56392C24.6885 5.72964 24.5394 5.93845 24.4664 6.19034L22.5076 6.03125C22.6071 5.56723 22.8026 5.16619 23.0943 4.82812C23.3859 4.48674 23.7621 4.2249 24.2228 4.04261C24.6868 3.85701 25.2238 3.7642 25.8336 3.7642C26.2579 3.7642 26.6639 3.81392 27.0517 3.91335C27.4428 4.01278 27.7891 4.1669 28.0907 4.37571C28.3957 4.58452 28.6359 4.85298 28.8116 5.18111C28.9873 5.50592 29.0751 5.89536 29.0751 6.34943V11.5H27.0666V10.4411H27.0069C26.8843 10.6797 26.7202 10.8902 26.5147 11.0724C26.3092 11.2514 26.0623 11.3923 25.774 11.495C25.4856 11.5945 25.1525 11.6442 24.7747 11.6442ZM25.3812 10.1825C25.6928 10.1825 25.9679 10.1212 26.2065 9.99858C26.4451 9.87263 26.6324 9.7036 26.7683 9.49148C26.9042 9.27936 26.9721 9.03906 26.9721 8.7706V7.96023C26.9058 8.00331 26.8147 8.04309 26.6987 8.07955C26.586 8.11269 26.4584 8.14418 26.3159 8.17401C26.1734 8.20052 26.0308 8.22538 25.8883 8.24858C25.7458 8.26847 25.6165 8.28669 25.5005 8.30327C25.252 8.33973 25.0349 8.39773 24.8493 8.47727C24.6636 8.55682 24.5195 8.66454 24.4167 8.80043C24.314 8.933 24.2626 9.09872 24.2626 9.29759C24.2626 9.58594 24.367 9.80634 24.5758 9.95881C24.7879 10.108 25.0564 10.1825 25.3812 10.1825ZM30.7182 11.5V3.86364H32.7715V5.19602H32.851C32.9902 4.72206 33.2239 4.36411 33.552 4.12216C33.8801 3.87689 34.258 3.75426 34.6855 3.75426C34.7916 3.75426 34.906 3.76089 35.0286 3.77415C35.1512 3.78741 35.2589 3.80563 35.3517 3.82883V5.7081C35.2523 5.67827 35.1148 5.65175 34.9391 5.62855C34.7634 5.60535 34.6027 5.59375 34.4569 5.59375C34.1453 5.59375 33.8669 5.6617 33.6216 5.79759C33.3797 5.93016 33.1874 6.11577 33.0449 6.3544C32.9057 6.59304 32.8361 6.86813 32.8361 7.17969V11.5H30.7182ZM38.4055 11.6442C37.9183 11.6442 37.4841 11.5597 37.103 11.3906C36.7218 11.2183 36.4202 10.9647 36.1982 10.63C35.9794 10.2919 35.87 9.87098 35.87 9.36719C35.87 8.94295 35.9479 8.58665 36.1037 8.2983C36.2595 8.00994 36.4716 7.77794 36.7401 7.60227C37.0085 7.42661 37.3134 7.29403 37.6548 7.20455C37.9995 7.11506 38.3608 7.05208 38.7386 7.01562C39.1828 6.96922 39.5407 6.92614 39.8125 6.88636C40.0843 6.84328 40.2815 6.7803 40.4041 6.69744C40.5268 6.61458 40.5881 6.49195 40.5881 6.32955V6.29972C40.5881 5.98485 40.4886 5.74124 40.2898 5.56889C40.0942 5.39654 39.8158 5.31037 39.4545 5.31037C39.0734 5.31037 38.7701 5.39489 38.5447 5.56392C38.3194 5.72964 38.1702 5.93845 38.0973 6.19034L36.1385 6.03125C36.2379 5.56723 36.4335 5.16619 36.7251 4.82812C37.0168 4.48674 37.393 4.2249 37.8537 4.04261C38.3177 3.85701 38.8546 3.7642 39.4645 3.7642C39.8887 3.7642 40.2947 3.81392 40.6825 3.91335C41.0736 4.01278 41.42 4.1669 41.7216 4.37571C42.0265 4.58452 42.2668 4.85298 42.4425 5.18111C42.6181 5.50592 42.706 5.89536 42.706 6.34943V11.5H40.6974V10.4411H40.6378C40.5152 10.6797 40.3511 10.8902 40.1456 11.0724C39.9401 11.2514 39.6932 11.3923 39.4048 11.495C39.1165 11.5945 38.7834 11.6442 38.4055 11.6442ZM39.0121 10.1825C39.3236 10.1825 39.5987 10.1212 39.8374 9.99858C40.076 9.87263 40.2633 9.7036 40.3991 9.49148C40.535 9.27936 40.603 9.03906 40.603 8.7706V7.96023C40.5367 8.00331 40.4455 8.04309 40.3295 8.07955C40.2169 8.11269 40.0893 8.14418 39.9467 8.17401C39.8042 8.20052 39.6617 8.22538 39.5192 8.24858C39.3767 8.26847 39.2474 8.28669 39.1314 8.30327C38.8828 8.33973 38.6657 8.39773 38.4801 8.47727C38.2945 8.55682 38.1503 8.66454 38.0476 8.80043C37.9448 8.933 37.8935 9.09872 37.8935 9.29759C37.8935 9.58594 37.9979 9.80634 38.2067 9.95881C38.4188 10.108 38.6873 10.1825 39.0121 10.1825ZM49.7669 11.6442C49.2797 11.6442 48.8455 11.5597 48.4643 11.3906C48.0832 11.2183 47.7815 10.9647 47.5595 10.63C47.3407 10.2919 47.2314 9.87098 47.2314 9.36719C47.2314 8.94295 47.3092 8.58665 47.465 8.2983C47.6208 8.00994 47.8329 7.77794 48.1014 7.60227C48.3699 7.42661 48.6748 7.29403 49.0162 7.20455C49.3609 7.11506 49.7221 7.05208 50.1 7.01562C50.5441 6.96922 50.902 6.92614 51.1738 6.88636C51.4456 6.84328 51.6428 6.7803 51.7654 6.69744C51.8881 6.61458 51.9494 6.49195 51.9494 6.32955V6.29972C51.9494 5.98485 51.85 5.74124 51.6511 5.56889C51.4556 5.39654 51.1771 5.31037 50.8159 5.31037C50.4347 5.31037 50.1315 5.39489 49.9061 5.56392C49.6807 5.72964 49.5315 5.93845 49.4586 6.19034L47.4998 6.03125C47.5993 5.56723 47.7948 5.16619 48.0865 4.82812C48.3781 4.48674 48.7543 4.2249 49.215 4.04261C49.679 3.85701 50.216 3.7642 50.8258 3.7642C51.2501 3.7642 51.6561 3.81392 52.0439 3.91335C52.435 4.01278 52.7813 4.1669 53.0829 4.37571C53.3878 4.58452 53.6281 4.85298 53.8038 5.18111C53.9795 5.50592 54.0673 5.89536 54.0673 6.34943V11.5H52.0588V10.4411H51.9991C51.8765 10.6797 51.7124 10.8902 51.5069 11.0724C51.3014 11.2514 51.0545 11.3923 50.7662 11.495C50.4778 11.5945 50.1447 11.6442 49.7669 11.6442ZM50.3734 10.1825C50.685 10.1825 50.96 10.1212 51.1987 9.99858C51.4373 9.87263 51.6246 9.7036 51.7605 9.49148C51.8964 9.27936 51.9643 9.03906 51.9643 8.7706V7.96023C51.898 8.00331 51.8069 8.04309 51.6909 8.07955C51.5782 8.11269 51.4506 8.14418 51.3081 8.17401C51.1655 8.20052 51.023 8.22538 50.8805 8.24858C50.738 8.26847 50.6087 8.28669 50.4927 8.30327C50.2441 8.33973 50.027 8.39773 49.8414 8.47727C49.6558 8.55682 49.5117 8.66454 49.4089 8.80043C49.3062 8.933 49.2548 9.09872 49.2548 9.29759C49.2548 9.58594 49.3592 9.80634 49.568 9.95881C49.7801 10.108 50.0486 10.1825 50.3734 10.1825ZM58.9506 14.3636V3.86364H61.0387V5.14631H61.1332C61.226 4.94081 61.3602 4.73201 61.5359 4.51989C61.7148 4.30445 61.9469 4.12547 62.2319 3.98295C62.5202 3.83712 62.8782 3.7642 63.3058 3.7642C63.8626 3.7642 64.3763 3.91004 64.8469 4.2017C65.3176 4.49006 65.6938 4.9259 65.9755 5.50923C66.2572 6.08925 66.3981 6.81676 66.3981 7.69176C66.3981 8.54356 66.2605 9.26278 65.9854 9.84943C65.7137 10.4328 65.3424 10.8752 64.8718 11.1768C64.4045 11.4751 63.8808 11.6243 63.3008 11.6243C62.8898 11.6243 62.5401 11.5563 62.2518 11.4205C61.9667 11.2846 61.7331 11.1139 61.5508 10.9084C61.3685 10.6996 61.2293 10.4891 61.1332 10.277H61.0685V14.3636H58.9506ZM61.0238 7.68182C61.0238 8.13589 61.0868 8.53196 61.2127 8.87003C61.3387 9.2081 61.521 9.47159 61.7596 9.66051C61.9982 9.84612 62.2882 9.93892 62.6296 9.93892C62.9743 9.93892 63.266 9.84446 63.5046 9.65554C63.7433 9.4633 63.9239 9.19815 64.0465 8.86009C64.1725 8.5187 64.2354 8.12595 64.2354 7.68182C64.2354 7.241 64.1741 6.85322 64.0515 6.51847C63.9289 6.18371 63.7482 5.92187 63.5096 5.73295C63.271 5.54403 62.9776 5.44957 62.6296 5.44957C62.2849 5.44957 61.9933 5.54072 61.7546 5.72301C61.5193 5.9053 61.3387 6.16383 61.2127 6.49858C61.0868 6.83333 61.0238 7.22775 61.0238 7.68182ZM69.9876 11.6442C69.5004 11.6442 69.0662 11.5597 68.685 11.3906C68.3039 11.2183 68.0022 10.9647 67.7802 10.63C67.5614 10.2919 67.4521 9.87098 67.4521 9.36719C67.4521 8.94295 67.5299 8.58665 67.6857 8.2983C67.8415 8.00994 68.0536 7.77794 68.3221 7.60227C68.5906 7.42661 68.8955 7.29403 69.2369 7.20455C69.5816 7.11506 69.9428 7.05208 70.3207 7.01562C70.7648 6.96922 71.1228 6.92614 71.3945 6.88636C71.6663 6.84328 71.8635 6.7803 71.9862 6.69744C72.1088 6.61458 72.1701 6.49195 72.1701 6.32955V6.29972C72.1701 5.98485 72.0707 5.74124 71.8718 5.56889C71.6763 5.39654 71.3978 5.31037 71.0366 5.31037C70.6554 5.31037 70.3522 5.39489 70.1268 5.56392C69.9014 5.72964 69.7522 5.93845 69.6793 6.19034L67.7205 6.03125C67.82 5.56723 68.0155 5.16619 68.3072 4.82812C68.5988 4.48674 68.975 4.2249 69.4357 4.04261C69.8997 3.85701 70.4367 3.7642 71.0465 3.7642C71.4708 3.7642 71.8768 3.81392 72.2646 3.91335C72.6557 4.01278 73.002 4.1669 73.3036 4.37571C73.6085 4.58452 73.8488 4.85298 74.0245 5.18111C74.2002 5.50592 74.288 5.89536 74.288 6.34943V11.5H72.2795V10.4411H72.2198C72.0972 10.6797 71.9331 10.8902 71.7276 11.0724C71.5221 11.2514 71.2752 11.3923 70.9869 11.495C70.6985 11.5945 70.3654 11.6442 69.9876 11.6442ZM70.5941 10.1825C70.9057 10.1825 71.1808 10.1212 71.4194 9.99858C71.658 9.87263 71.8453 9.7036 71.9812 9.49148C72.1171 9.27936 72.185 9.03906 72.185 8.7706V7.96023C72.1187 8.00331 72.0276 8.04309 71.9116 8.07955C71.7989 8.11269 71.6713 8.14418 71.5288 8.17401C71.3862 8.20052 71.2437 8.22538 71.1012 8.24858C70.9587 8.26847 70.8294 8.28669 70.7134 8.30327C70.4648 8.33973 70.2478 8.39773 70.0621 8.47727C69.8765 8.55682 69.7324 8.66454 69.6296 8.80043C69.5269 8.933 69.4755 9.09872 69.4755 9.29759C69.4755 9.58594 69.5799 9.80634 69.7887 9.95881C70.0008 10.108 70.2693 10.1825 70.5941 10.1825ZM70.3654 2.87926L71.4194 0.617188H73.3782L71.8619 2.87926H70.3654ZM79.3714 14.5227C78.6854 14.5227 78.0971 14.4283 77.6065 14.2393C77.1193 14.0537 76.7315 13.8002 76.4432 13.4787C76.1548 13.1572 75.9676 12.7959 75.8814 12.3949L77.8402 12.1314C77.8999 12.2839 77.9943 12.4264 78.1236 12.5589C78.2528 12.6915 78.4235 12.7976 78.6357 12.8771C78.8511 12.96 79.1129 13.0014 79.4212 13.0014C79.8819 13.0014 80.2614 12.8887 80.5597 12.6634C80.8613 12.4413 81.0121 12.0684 81.0121 11.5447V10.1477H80.9226C80.8298 10.3598 80.6906 10.5604 80.505 10.7493C80.3194 10.9382 80.0807 11.0923 79.7891 11.2116C79.4974 11.331 79.1494 11.3906 78.745 11.3906C78.1716 11.3906 77.6496 11.258 77.179 10.9929C76.7116 10.7244 76.3388 10.3151 76.0604 9.76491C75.7853 9.21141 75.6477 8.51207 75.6477 7.6669C75.6477 6.80185 75.7886 6.07931 76.0703 5.49929C76.352 4.91927 76.7266 4.48509 77.1939 4.19673C77.6645 3.90838 78.1799 3.7642 78.7401 3.7642C79.1676 3.7642 79.5256 3.83712 79.8139 3.98295C80.1023 4.12547 80.3343 4.30445 80.5099 4.51989C80.6889 4.73201 80.8265 4.94081 80.9226 5.14631H81.0021V3.86364H83.1051V11.5746C83.1051 12.2242 82.946 12.7678 82.6278 13.2053C82.3097 13.6428 81.8688 13.9709 81.3054 14.1896C80.7453 14.4117 80.1006 14.5227 79.3714 14.5227ZM79.4162 9.79972C79.7576 9.79972 80.0459 9.7152 80.2812 9.54616C80.5199 9.37382 80.7022 9.12855 80.8281 8.81037C80.9574 8.48887 81.022 8.1044 81.022 7.65696C81.022 7.20952 80.959 6.82173 80.8331 6.49361C80.7071 6.16217 80.5249 5.9053 80.2862 5.72301C80.0476 5.54072 79.7576 5.44957 79.4162 5.44957C79.0682 5.44957 78.7749 5.54403 78.5362 5.73295C78.2976 5.91856 78.117 6.17708 77.9943 6.50852C77.8717 6.83996 77.8104 7.22277 77.8104 7.65696C77.8104 8.09777 77.8717 8.47893 77.9943 8.80043C78.1203 9.11861 78.3009 9.36553 78.5362 9.54119C78.7749 9.71354 79.0682 9.79972 79.4162 9.79972ZM84.7905 11.5V3.86364H86.9084V11.5H84.7905ZM85.8544 2.87926C85.5395 2.87926 85.2694 2.77486 85.044 2.56605C84.822 2.35393 84.7109 2.10038 84.7109 1.8054C84.7109 1.51373 84.822 1.26349 85.044 1.05469C85.2694 0.842566 85.5395 0.736505 85.8544 0.736505C86.1693 0.736505 86.4377 0.842566 86.6598 1.05469C86.8852 1.26349 86.9979 1.51373 86.9979 1.8054C86.9979 2.10038 86.8852 2.35393 86.6598 2.56605C86.4377 2.77486 86.1693 2.87926 85.8544 2.87926ZM90.7228 7.08523V11.5H88.6049V3.86364H90.6234V5.21094H90.7129C90.8819 4.76681 91.1653 4.41548 91.563 4.15696C91.9608 3.89512 92.443 3.7642 93.0098 3.7642C93.5401 3.7642 94.0024 3.88021 94.3968 4.11222C94.7913 4.34422 95.0978 4.67566 95.3166 5.10653C95.5353 5.53409 95.6447 6.04451 95.6447 6.63778V11.5H93.5268V7.01562C93.5301 6.5483 93.4108 6.18371 93.1689 5.92188C92.9269 5.65672 92.5938 5.52415 92.1696 5.52415C91.8845 5.52415 91.6326 5.58546 91.4139 5.7081C91.1984 5.83073 91.0294 6.00971 90.9068 6.24503C90.7875 6.47704 90.7261 6.7571 90.7228 7.08523ZM99.4915 11.6442C99.0043 11.6442 98.5701 11.5597 98.1889 11.3906C97.8078 11.2183 97.5062 10.9647 97.2841 10.63C97.0653 10.2919 96.956 9.87098 96.956 9.36719C96.956 8.94295 97.0339 8.58665 97.1896 8.2983C97.3454 8.00994 97.5575 7.77794 97.826 7.60227C98.0945 7.42661 98.3994 7.29403 98.7408 7.20455C99.0855 7.11506 99.4467 7.05208 99.8246 7.01562C100.269 6.96922 100.627 6.92614 100.898 6.88636C101.17 6.84328 101.367 6.7803 101.49 6.69744C101.613 6.61458 101.674 6.49195 101.674 6.32955V6.29972C101.674 5.98485 101.575 5.74124 101.376 5.56889C101.18 5.39654 100.902 5.31037 100.54 5.31037C100.159 5.31037 99.8561 5.39489 99.6307 5.56392C99.4053 5.72964 99.2562 5.93845 99.1832 6.19034L97.2244 6.03125C97.3239 5.56723 97.5194 5.16619 97.8111 4.82812C98.1027 4.48674 98.4789 4.2249 98.9396 4.04261C99.4036 3.85701 99.9406 3.7642 100.55 3.7642C100.975 3.7642 101.381 3.81392 101.768 3.91335C102.16 4.01278 102.506 4.1669 102.808 4.37571C103.112 4.58452 103.353 4.85298 103.528 5.18111C103.704 5.50592 103.792 5.89536 103.792 6.34943V11.5H101.783V10.4411H101.724C101.601 10.6797 101.437 10.8902 101.232 11.0724C101.026 11.2514 100.779 11.3923 100.491 11.495C100.202 11.5945 99.8693 11.6442 99.4915 11.6442ZM100.098 10.1825C100.41 10.1825 100.685 10.1212 100.923 9.99858C101.162 9.87263 101.349 9.7036 101.485 9.49148C101.621 9.27936 101.689 9.03906 101.689 8.7706V7.96023C101.623 8.00331 101.531 8.04309 101.415 8.07955C101.303 8.11269 101.175 8.14418 101.033 8.17401C100.89 8.20052 100.748 8.22538 100.605 8.24858C100.463 8.26847 100.333 8.28669 100.217 8.30327C99.9688 8.33973 99.7517 8.39773 99.5661 8.47727C99.3804 8.55682 99.2363 8.66454 99.1335 8.80043C99.0308 8.933 98.9794 9.09872 98.9794 9.29759C98.9794 9.58594 99.0838 9.80634 99.2926 9.95881C99.5047 10.108 99.7732 10.1825 100.098 10.1825ZM114.8 12.0568L113.647 10.9134L116.675 7.88565H109.58V6.20526H116.675L113.647 3.18253L114.8 2.03409L119.812 7.04545L114.8 12.0568Z" fill="white"/>
</svg>
