<svg width="37" height="36" viewBox="0 0 37 36" fill="none" xmlns="http://www.w3.org/2000/svg">
<path d="M10.3081 29.5461L15.7867 33.9092C16.4936 34.6364 18.0841 35 19.1445 35H25.8601C27.9808 35 30.2783 33.3638 30.8084 31.1822L35.0499 17.911C35.9335 15.3658 34.343 13.1842 31.6921 13.1842H24.623C23.5626 13.1842 22.679 12.2752 22.8557 11.0026L23.7394 5.18503C24.0928 3.54885 23.0325 1.73086 21.4419 1.18547C20.0281 0.640074 18.2608 1.36727 17.5539 2.45806L10.3081 13.5477" stroke="#FF781C" stroke-width="2" stroke-miterlimit="10"/>
<path d="M1.29517 29.5454V11.7292C1.29517 9.18402 2.35553 8.27502 4.8297 8.27502H6.59697C9.07114 8.27502 10.1315 9.18402 10.1315 11.7292V29.5454C10.1315 32.0906 9.07114 32.9996 6.59697 32.9996H4.8297C2.35553 32.9996 1.29517 32.0906 1.29517 29.5454Z" stroke="#FF781C" stroke-width="2" stroke-linecap="round" stroke-linejoin="round"/>
</svg>
