<svg width="40" height="41" viewBox="0 0 40 41" fill="none" xmlns="http://www.w3.org/2000/svg">
<path d="M19.6116 20.5013C20.509 20.5013 21.2366 19.7364 21.2366 18.7929C21.2366 17.8494 20.509 17.0846 19.6116 17.0846C18.7141 17.0846 17.9866 17.8494 17.9866 18.7929C17.9866 19.7364 18.7141 20.5013 19.6116 20.5013Z" fill="#FF781C"/>
<path d="M26.1113 20.5013C27.0088 20.5013 27.7363 19.7364 27.7363 18.7929C27.7363 17.8494 27.0088 17.0846 26.1113 17.0846C25.2139 17.0846 24.4863 17.8494 24.4863 18.7929C24.4863 19.7364 25.2139 20.5013 26.1113 20.5013Z" fill="#FF781C"/>
<path d="M13.1113 20.5013C14.0088 20.5013 14.7363 19.7364 14.7363 18.7929C14.7363 17.8494 14.0088 17.0846 13.1113 17.0846C12.2139 17.0846 11.4863 17.8494 11.4863 18.7929C11.4863 19.7364 12.2139 20.5013 13.1113 20.5013Z" fill="#FF781C"/>
<path d="M30.9871 5.125H8.23706C6.94413 5.125 5.70416 5.66495 4.78992 6.62608C3.87568 7.5872 3.36206 8.89077 3.36206 10.25V35.875C3.36256 36.1777 3.43955 36.4748 3.58517 36.736C3.73079 36.9971 3.9398 37.2129 4.19081 37.3613C4.43368 37.506 4.7079 37.5824 4.98706 37.5833C5.27872 37.5832 5.56498 37.5006 5.81581 37.3442L13.1121 32.6975C13.3818 32.5287 13.6922 32.4456 14.0058 32.4583H30.9871C32.28 32.4583 33.52 31.9184 34.4342 30.9573C35.3485 29.9961 35.8621 28.6926 35.8621 27.3333V10.25C35.8621 8.89077 35.3485 7.5872 34.4342 6.62608C33.52 5.66495 32.28 5.125 30.9871 5.125ZM32.6121 27.3333C32.6121 27.7864 32.4409 28.2209 32.1361 28.5413C31.8314 28.8617 31.418 29.0417 30.9871 29.0417H14.0058C13.1183 29.0409 12.2474 29.2949 11.4871 29.7763L6.61206 32.8513V10.25C6.61206 9.79692 6.78327 9.3624 7.08801 9.04203C7.39276 8.72165 7.80608 8.54167 8.23706 8.54167H30.9871C31.418 8.54167 31.8314 8.72165 32.1361 9.04203C32.4409 9.3624 32.6121 9.79692 32.6121 10.25V27.3333Z" fill="#FF781C"/>
</svg>
