<svg width="25" height="35" viewBox="0 0 25 35" fill="none" xmlns="http://www.w3.org/2000/svg">
<path d="M21.25 0H3.75C1.67969 0 0 1.46973 0 3.28125V31.7188C0 33.5303 1.67969 35 3.75 35H21.25C23.3203 35 25 33.5303 25 31.7188V3.28125C25 1.46973 23.3203 0 21.25 0ZM12.5 32.8125C11.1172 32.8125 10 31.835 10 30.625C10 29.415 11.1172 28.4375 12.5 28.4375C13.8828 28.4375 15 29.415 15 30.625C15 31.835 13.8828 32.8125 12.5 32.8125ZM21.25 25.4297C21.25 25.8809 20.8281 26.25 20.3125 26.25H4.6875C4.17188 26.25 3.75 25.8809 3.75 25.4297V4.10156C3.75 3.65039 4.17188 3.28125 4.6875 3.28125H20.3125C20.8281 3.28125 21.25 3.65039 21.25 4.10156V25.4297Z" fill="#FF781C"/>
</svg>
