<svg width="38" height="38" viewBox="0 0 38 38" fill="none" xmlns="http://www.w3.org/2000/svg">
<path d="M19.0569 26.9401C23.4029 26.9401 26.9261 23.3664 26.9261 18.9583C26.9261 14.5501 23.4029 10.9766 19.0569 10.9766C14.7109 10.9766 11.1877 14.5501 11.1877 18.9583C11.1877 23.3664 14.7109 26.9401 19.0569 26.9401Z" stroke="white" stroke-width="2" stroke-linecap="round" stroke-linejoin="round"/>
<path d="M1.35156 26.9407V10.9772C1.35156 5.46695 5.75551 1 11.188 1H26.9264C32.3589 1 36.7629 5.46695 36.7629 10.9772V26.9407C36.7629 32.4509 32.3589 36.9179 26.9264 36.9179H11.188C5.75551 36.9179 1.35156 32.4509 1.35156 26.9407Z" stroke="white" stroke-width="2"/>
<path d="M29.877 8.00459L29.8969 7.98242L29.877 8.00459Z" fill="white"/>
<path d="M29.877 8.00459L29.8969 7.98242" stroke="white" stroke-width="2" stroke-linecap="round" stroke-linejoin="round"/>
</svg>
