<svg width="21" height="21" viewBox="0 0 21 21" fill="none" xmlns="http://www.w3.org/2000/svg">
<path d="M18.9 6.63158H13.0074L14.1865 2.91016C14.3986 2.23816 14.2915 1.49321 13.8978 0.918474C13.504 0.343737 12.8657 0 12.1926 0H10.5C10.1881 0 9.8931 0.145895 9.69255 0.397895L4.75755 6.63158H2.1C0.94185 6.63158 0 7.623 0 8.8421V18.7895C0 20.0086 0.94185 21 2.1 21H5.25H16.0723C16.9428 21 17.7324 20.4242 18.039 19.5654L20.9338 11.4406C20.9779 11.3168 21 11.1853 21 11.0526V8.8421C21 7.623 20.0581 6.63158 18.9 6.63158ZM2.1 8.8421H4.2V18.7895H2.1V8.8421ZM18.9 10.8526L16.0723 18.7895H6.3V8.13695L10.9914 2.21053H12.1947L10.5546 7.38647C10.4464 7.72358 10.501 8.09384 10.6985 8.38231C10.8958 8.67189 11.2129 8.8421 11.55 8.8421H18.9V10.8526Z" fill="#251212"/>
</svg>
