<svg width="51" height="46" viewBox="0 0 51 46" fill="none" xmlns="http://www.w3.org/2000/svg">
<path d="M0 23V46H7.35354H14.7071L14.6871 34.6801C14.6671 28.4541 14.6771 23.3602 14.7071 23.3602C14.7371 23.3602 17.0582 27.0237 19.8595 31.4899C22.961 36.4398 25.012 39.6094 25.1021 39.5888C25.1721 39.5785 27.5032 35.9562 30.2846 31.5414C33.0559 27.1266 35.367 23.4734 35.427 23.4219C35.4771 23.3602 35.5171 27.528 35.5171 34.6595V46H42.9707H50.4242V23V0L41.2999 0.0205803L32.1655 0.0514526L31.8953 0.565994C31.4851 1.3481 31.0249 2.87114 30.8548 4.04429C30.3546 7.40939 31.5252 10.9906 34.0064 13.6765L34.7167 14.4277L34.0264 15.323C33.0059 16.6506 31.8253 18.4103 30.9149 19.9642C29.2541 22.7942 27.1931 27.5177 26.0625 31.0783C25.9125 31.562 25.7524 31.9942 25.7024 32.0456C25.5923 32.1691 25.6023 18.5235 25.7124 18.2353C25.7624 18.1119 25.8824 18.0089 25.9825 18.0089C26.3127 17.9987 26.993 17.6179 27.4632 17.1754C29.2241 15.498 28.7838 12.6063 26.6128 11.536C26.1526 11.3096 25.9225 11.2685 25.2121 11.2685C24.2016 11.2685 23.6714 11.4743 22.951 12.1638C22.2407 12.8327 21.9105 13.6251 21.9105 14.6644C21.9105 15.3539 21.9606 15.5906 22.2007 16.1051C22.6309 17.0416 23.4313 17.7414 24.3917 17.9987L24.8119 18.1221V25.1302C24.8119 28.9893 24.7819 32.1177 24.7519 32.0868C24.7219 32.0559 24.5118 31.4591 24.2717 30.7593C23.4113 28.2174 22.0806 24.9244 21.0201 22.7633C19.8796 20.4273 18.1887 17.6899 16.618 15.6112L15.7276 14.438L16.4179 13.6765C19.7595 10.0336 20.5899 5.19687 18.639 0.812973L18.2788 0H9.1444H0V23Z" fill="#03326C"/>
</svg>
