<svg width="40" height="42" viewBox="0 0 40 42" fill="none" xmlns="http://www.w3.org/2000/svg">
<path d="M35.7143 0H4.28571C1.91964 0 0 2.01562 0 4.5V37.5C0 39.9844 1.91964 42 4.28571 42H35.7143C38.0804 42 40 39.9844 40 37.5V4.5C40 2.01562 38.0804 0 35.7143 0ZM32.8571 23.625C32.8571 24.2437 32.375 24.75 31.7857 24.75H23.5714V33.375C23.5714 33.9938 23.0893 34.5 22.5 34.5H17.5C16.9107 34.5 16.4286 33.9938 16.4286 33.375V24.75H8.21429C7.625 24.75 7.14286 24.2437 7.14286 23.625V18.375C7.14286 17.7563 7.625 17.25 8.21429 17.25H16.4286V8.625C16.4286 8.00625 16.9107 7.5 17.5 7.5H22.5C23.0893 7.5 23.5714 8.00625 23.5714 8.625V17.25H31.7857C32.375 17.25 32.8571 17.7563 32.8571 18.375V23.625Z" fill="#03326C"/>
</svg>
