<svg width="55" height="58" viewBox="0 0 55 58" fill="none" xmlns="http://www.w3.org/2000/svg">
<path d="M0 0.0724095V48C0 53.5229 4.47715 58 10 58H44.9159C50.4388 58 54.9159 53.5228 54.9159 48V41.5689C54.9159 41.0355 55 40.5035 55 39.97C55 39.4366 54.9159 38.9046 54.9159 38.3711V9.99999C54.9159 4.47714 50.4388 0 44.9159 0H0.0724107C0.03242 0 0 0.0324188 0 0.0724095ZM6.86449 17.3134C6.86449 11.7905 11.3416 7.31336 16.8645 7.31336H38.0514C43.5743 7.31336 48.0514 11.7905 48.0514 17.3134V26.2772C48.0514 31.8 43.5743 36.2772 38.0514 36.2772H37.7547C37.5492 36.2576 37.3424 36.2576 37.1369 36.2772C36.2266 36.3636 35.3861 36.8279 34.8004 37.568C34.2147 38.3081 33.9316 39.2633 34.0135 40.2235C34.0955 41.1837 34.5356 42.0702 35.2372 42.6881C35.9389 43.306 36.8444 43.6045 37.7547 43.5181H44.4309C46.4305 43.5181 48.0514 45.139 48.0514 47.1386C48.0514 49.1381 46.4305 50.7591 44.4309 50.7591H16.8645C11.3416 50.7591 6.86449 46.2819 6.86449 40.7591V17.3134ZM24.0257 14.5543C18.3282 14.5543 13.729 19.4057 13.729 25.4157C13.729 28.4043 15.4829 32.0095 17.5431 35.2133C20.6435 40.0349 27.408 40.0349 30.5084 35.2133C32.5685 32.0095 34.3224 28.4042 34.3224 25.4157C34.3224 19.4057 29.7232 14.5543 24.0257 14.5543ZM24.0257 21.7953C25.9478 21.7953 27.458 23.3883 27.458 25.4157C27.458 27.4432 25.9478 29.0362 24.0257 29.0362C22.1037 29.0362 20.5935 27.4432 20.5935 25.4157C20.5935 23.3883 22.1037 21.7953 24.0257 21.7953Z" fill="white"/>
</svg>
